<?xml version="1.0" encoding="UTF-8"?>
<svg width="225px" height="940px" viewBox="0 0 225 940" version="1.1" xmlns="http://www.w3.org/2000/svg" xmlns:xlink="http://www.w3.org/1999/xlink">
    <!-- Generator: Sketch 55.2 (78181) - https://sketchapp.com -->
    <title>Group</title>
    <desc>Created with Sketch.</desc>
    <g id="Signup" stroke="none" stroke-width="1" fill="none" fill-rule="evenodd" opacity="0.389206659">
        <g id="01-website" transform="translate(-1215.000000, -100.000000)" fill="#C8E3E0">
            <g id="Group" transform="translate(1215.000000, 100.000000)">
                <g id="Group-2" transform="translate(0.000000, 723.000000)">
                    <rect id="Rectangle" x="63" y="181" width="7" height="6"></rect>
                    <rect id="Rectangle-Copy" x="63" y="211" width="7" height="6"></rect>
                    <rect id="Rectangle" x="96" y="181" width="6" height="6"></rect>
                    <rect id="Rectangle-Copy-2" x="96" y="211" width="6" height="6"></rect>
                    <rect id="Rectangle" x="0" y="181" width="6" height="6"></rect>
                    <rect id="Rectangle-Copy" x="0" y="211" width="6" height="6"></rect>
                    <rect id="Rectangle" x="31" y="181" width="6" height="6"></rect>
                    <rect id="Rectangle-Copy-2" x="31" y="211" width="6" height="6"></rect>
                    <rect id="Rectangle" x="190" y="181" width="7" height="6"></rect>
                    <rect id="Rectangle-Copy" x="190" y="211" width="7" height="6"></rect>
                    <rect id="Rectangle" x="222" y="181" width="6" height="6"></rect>
                    <rect id="Rectangle-Copy-2" x="222" y="211" width="6" height="6"></rect>
                    <rect id="Rectangle-Copy" x="126" y="211" width="6" height="6"></rect>
                    <rect id="Rectangle" x="126" y="181" width="6" height="6"></rect>
                    <rect id="Rectangle" x="157" y="181" width="7" height="6"></rect>
                    <rect id="Rectangle-Copy-2" x="157" y="211" width="7" height="6"></rect>
                    <rect id="Rectangle" x="63" y="120" width="7" height="7"></rect>
                    <rect id="Rectangle-Copy" x="63" y="151" width="7" height="6"></rect>
                    <rect id="Rectangle" x="96" y="120" width="6" height="7"></rect>
                    <rect id="Rectangle-Copy-2" x="96" y="151" width="6" height="6"></rect>
                    <rect id="Rectangle" x="0" y="120" width="6" height="7"></rect>
                    <rect id="Rectangle-Copy" x="0" y="151" width="6" height="6"></rect>
                    <rect id="Rectangle" x="31" y="120" width="6" height="7"></rect>
                    <rect id="Rectangle-Copy-2" x="31" y="151" width="6" height="6"></rect>
                    <rect id="Rectangle" x="190" y="120" width="7" height="7"></rect>
                    <rect id="Rectangle-Copy" x="190" y="151" width="7" height="6"></rect>
                    <rect id="Rectangle" x="222" y="120" width="6" height="7"></rect>
                    <rect id="Rectangle-Copy-2" x="222" y="151" width="6" height="6"></rect>
                    <rect id="Rectangle" x="126" y="120" width="6" height="7"></rect>
                    <rect id="Rectangle-Copy" x="126" y="151" width="6" height="6"></rect>
                    <rect id="Rectangle" x="157" y="120" width="7" height="7"></rect>
                    <rect id="Rectangle-Copy-2" x="157" y="151" width="7" height="6"></rect>
                    <rect id="Rectangle" x="63" y="60" width="7" height="6"></rect>
                    <rect id="Rectangle-Copy" x="63" y="90" width="7" height="7"></rect>
                    <rect id="Rectangle" x="96" y="60" width="6" height="6"></rect>
                    <rect id="Rectangle-Copy-2" x="96" y="90" width="6" height="7"></rect>
                    <rect id="Rectangle" x="0" y="60" width="6" height="6"></rect>
                    <rect id="Rectangle-Copy" x="0" y="90" width="6" height="7"></rect>
                    <rect id="Rectangle" x="31" y="60" width="6" height="6"></rect>
                    <rect id="Rectangle-Copy-2" x="31" y="90" width="6" height="7"></rect>
                    <rect id="Rectangle" x="190" y="60" width="7" height="6"></rect>
                    <rect id="Rectangle-Copy" x="190" y="90" width="7" height="7"></rect>
                    <rect id="Rectangle" x="222" y="60" width="6" height="6"></rect>
                    <rect id="Rectangle-Copy-2" x="222" y="90" width="6" height="7"></rect>
                    <rect id="Rectangle" x="126" y="60" width="6" height="6"></rect>
                    <rect id="Rectangle-Copy" x="126" y="90" width="6" height="7"></rect>
                    <rect id="Rectangle" x="157" y="60" width="7" height="6"></rect>
                    <rect id="Rectangle-Copy-2" x="157" y="90" width="7" height="7"></rect>
                    <rect id="Rectangle" x="63" y="0" width="7" height="6"></rect>
                    <rect id="Rectangle-Copy" x="63" y="30" width="7" height="6"></rect>
                    <rect id="Rectangle" x="96" y="0" width="6" height="6"></rect>
                    <rect id="Rectangle-Copy-2" x="96" y="30" width="6" height="6"></rect>
                    <rect id="Rectangle" x="0" y="0" width="6" height="6"></rect>
                    <rect id="Rectangle-Copy" x="0" y="30" width="6" height="6"></rect>
                    <rect id="Rectangle" x="31" y="0" width="6" height="6"></rect>
                    <rect id="Rectangle-Copy-2" x="31" y="30" width="6" height="6"></rect>
                    <rect id="Rectangle" x="190" y="0" width="7" height="6"></rect>
                    <rect id="Rectangle-Copy" x="190" y="30" width="7" height="6"></rect>
                    <rect id="Rectangle" x="222" y="0" width="6" height="6"></rect>
                    <rect id="Rectangle-Copy-2" x="222" y="30" width="6" height="6"></rect>
                    <rect id="Rectangle" x="126" y="0" width="6" height="6"></rect>
                    <rect id="Rectangle-Copy" x="126" y="30" width="6" height="6"></rect>
                    <rect id="Rectangle" x="157" y="0" width="7" height="6"></rect>
                    <rect id="Rectangle-Copy-2" x="157" y="30" width="7" height="6"></rect>
                </g>
                <g id="Group-2" transform="translate(0.000000, 482.000000)">
                    <rect id="Rectangle" x="63" y="181" width="7" height="6"></rect>
                    <rect id="Rectangle-Copy" x="63" y="211" width="7" height="6"></rect>
                    <rect id="Rectangle" x="96" y="181" width="6" height="6"></rect>
                    <rect id="Rectangle-Copy-2" x="96" y="211" width="6" height="6"></rect>
                    <rect id="Rectangle" x="0" y="181" width="6" height="6"></rect>
                    <rect id="Rectangle-Copy" x="0" y="211" width="6" height="6"></rect>
                    <rect id="Rectangle" x="31" y="181" width="6" height="6"></rect>
                    <rect id="Rectangle-Copy-2" x="31" y="211" width="6" height="6"></rect>
                    <rect id="Rectangle" x="190" y="181" width="7" height="6"></rect>
                    <rect id="Rectangle-Copy" x="190" y="211" width="7" height="6"></rect>
                    <rect id="Rectangle" x="222" y="181" width="6" height="6"></rect>
                    <rect id="Rectangle-Copy-2" x="222" y="211" width="6" height="6"></rect>
                    <rect id="Rectangle" x="126" y="181" width="6" height="6"></rect>
                    <rect id="Rectangle-Copy" x="126" y="211" width="6" height="6"></rect>
                    <rect id="Rectangle" x="157" y="181" width="7" height="6"></rect>
                    <rect id="Rectangle-Copy-2" x="157" y="211" width="7" height="6"></rect>
                    <rect id="Rectangle" x="63" y="120" width="7" height="7"></rect>
                    <rect id="Rectangle-Copy" x="63" y="151" width="7" height="6"></rect>
                    <rect id="Rectangle" x="96" y="120" width="6" height="7"></rect>
                    <rect id="Rectangle-Copy-2" x="96" y="151" width="6" height="6"></rect>
                    <rect id="Rectangle" x="0" y="120" width="6" height="7"></rect>
                    <rect id="Rectangle-Copy" x="0" y="151" width="6" height="6"></rect>
                    <rect id="Rectangle" x="31" y="120" width="6" height="7"></rect>
                    <rect id="Rectangle-Copy-2" x="31" y="151" width="6" height="6"></rect>
                    <rect id="Rectangle" x="190" y="120" width="7" height="7"></rect>
                    <rect id="Rectangle-Copy" x="190" y="151" width="7" height="6"></rect>
                    <rect id="Rectangle" x="222" y="120" width="6" height="7"></rect>
                    <rect id="Rectangle-Copy-2" x="222" y="151" width="6" height="6"></rect>
                    <rect id="Rectangle" x="126" y="120" width="6" height="7"></rect>
                    <rect id="Rectangle-Copy" x="126" y="151" width="6" height="6"></rect>
                    <rect id="Rectangle" x="157" y="120" width="7" height="7"></rect>
                    <rect id="Rectangle-Copy-2" x="157" y="151" width="7" height="6"></rect>
                    <rect id="Rectangle" x="63" y="60" width="7" height="6"></rect>
                    <rect id="Rectangle-Copy" x="63" y="90" width="7" height="7"></rect>
                    <rect id="Rectangle" x="96" y="60" width="6" height="6"></rect>
                    <rect id="Rectangle-Copy-2" x="96" y="90" width="6" height="7"></rect>
                    <rect id="Rectangle" x="0" y="60" width="6" height="6"></rect>
                    <rect id="Rectangle-Copy" x="0" y="90" width="6" height="7"></rect>
                    <rect id="Rectangle" x="31" y="60" width="6" height="6"></rect>
                    <rect id="Rectangle-Copy-2" x="31" y="90" width="6" height="7"></rect>
                    <rect id="Rectangle" x="190" y="60" width="7" height="6"></rect>
                    <rect id="Rectangle-Copy" x="190" y="90" width="7" height="7"></rect>
                    <rect id="Rectangle" x="222" y="60" width="6" height="6"></rect>
                    <rect id="Rectangle-Copy-2" x="222" y="90" width="6" height="7"></rect>
                    <rect id="Rectangle" x="126" y="60" width="6" height="6"></rect>
                    <rect id="Rectangle-Copy" x="126" y="90" width="6" height="7"></rect>
                    <rect id="Rectangle" x="157" y="60" width="7" height="6"></rect>
                    <rect id="Rectangle-Copy-2" x="157" y="90" width="7" height="7"></rect>
                    <rect id="Rectangle" x="63" y="0" width="7" height="6"></rect>
                    <rect id="Rectangle-Copy" x="63" y="30" width="7" height="6"></rect>
                    <rect id="Rectangle" x="96" y="0" width="6" height="6"></rect>
                    <rect id="Rectangle-Copy-2" x="96" y="30" width="6" height="6"></rect>
                    <rect id="Rectangle" x="0" y="0" width="6" height="6"></rect>
                    <rect id="Rectangle-Copy" x="0" y="30" width="6" height="6"></rect>
                    <rect id="Rectangle" x="31" y="0" width="6" height="6"></rect>
                    <rect id="Rectangle-Copy-2" x="31" y="30" width="6" height="6"></rect>
                    <rect id="Rectangle" x="190" y="0" width="7" height="6"></rect>
                    <rect id="Rectangle-Copy" x="190" y="30" width="7" height="6"></rect>
                    <rect id="Rectangle" x="222" y="0" width="6" height="6"></rect>
                    <rect id="Rectangle-Copy-2" x="222" y="30" width="6" height="6"></rect>
                    <rect id="Rectangle" x="126" y="0" width="6" height="6"></rect>
                    <rect id="Rectangle-Copy" x="126" y="30" width="6" height="6"></rect>
                    <rect id="Rectangle" x="157" y="0" width="7" height="6"></rect>
                    <rect id="Rectangle-Copy-2" x="157" y="30" width="7" height="6"></rect>
                </g>
                <g id="Group-2" transform="translate(0.000000, 241.000000)">
                    <rect id="Rectangle" x="63" y="181" width="7" height="6"></rect>
                    <rect id="Rectangle-Copy" x="63" y="211" width="7" height="6"></rect>
                    <rect id="Rectangle" x="96" y="181" width="6" height="6"></rect>
                    <rect id="Rectangle-Copy-2" x="96" y="211" width="6" height="6"></rect>
                    <rect id="Rectangle" x="0" y="181" width="6" height="6"></rect>
                    <rect id="Rectangle-Copy" x="0" y="211" width="6" height="6"></rect>
                    <rect id="Rectangle" x="31" y="181" width="6" height="6"></rect>
                    <rect id="Rectangle-Copy-2" x="31" y="211" width="6" height="6"></rect>
                    <rect id="Rectangle" x="190" y="181" width="7" height="6"></rect>
                    <rect id="Rectangle-Copy" x="190" y="211" width="7" height="6"></rect>
                    <rect id="Rectangle" x="222" y="181" width="6" height="6"></rect>
                    <rect id="Rectangle-Copy-2" x="222" y="211" width="6" height="6"></rect>
                    <rect id="Rectangle" x="126" y="181" width="6" height="6"></rect>
                    <rect id="Rectangle-Copy" x="126" y="211" width="6" height="6"></rect>
                    <rect id="Rectangle" x="157" y="181" width="7" height="6"></rect>
                    <rect id="Rectangle-Copy-2" x="157" y="211" width="7" height="6"></rect>
                    <rect id="Rectangle" x="63" y="120" width="7" height="7"></rect>
                    <rect id="Rectangle-Copy" x="63" y="151" width="7" height="6"></rect>
                    <rect id="Rectangle" x="96" y="120" width="6" height="7"></rect>
                    <rect id="Rectangle-Copy-2" x="96" y="151" width="6" height="6"></rect>
                    <rect id="Rectangle" x="0" y="120" width="6" height="7"></rect>
                    <rect id="Rectangle-Copy" x="0" y="151" width="6" height="6"></rect>
                    <rect id="Rectangle" x="31" y="120" width="6" height="7"></rect>
                    <rect id="Rectangle-Copy-2" x="31" y="151" width="6" height="6"></rect>
                    <rect id="Rectangle" x="190" y="120" width="7" height="7"></rect>
                    <rect id="Rectangle-Copy" x="190" y="151" width="7" height="6"></rect>
                    <rect id="Rectangle" x="222" y="120" width="6" height="7"></rect>
                    <rect id="Rectangle-Copy-2" x="222" y="151" width="6" height="6"></rect>
                    <rect id="Rectangle" x="126" y="120" width="6" height="7"></rect>
                    <rect id="Rectangle-Copy" x="126" y="151" width="6" height="6"></rect>
                    <rect id="Rectangle" x="157" y="120" width="7" height="7"></rect>
                    <rect id="Rectangle-Copy-2" x="157" y="151" width="7" height="6"></rect>
                    <rect id="Rectangle" x="63" y="60" width="7" height="6"></rect>
                    <rect id="Rectangle-Copy" x="63" y="90" width="7" height="7"></rect>
                    <rect id="Rectangle" x="96" y="60" width="6" height="6"></rect>
                    <rect id="Rectangle-Copy-2" x="96" y="90" width="6" height="7"></rect>
                    <rect id="Rectangle" x="0" y="60" width="6" height="6"></rect>
                    <rect id="Rectangle-Copy" x="0" y="90" width="6" height="7"></rect>
                    <rect id="Rectangle" x="31" y="60" width="6" height="6"></rect>
                    <rect id="Rectangle-Copy-2" x="31" y="90" width="6" height="7"></rect>
                    <rect id="Rectangle" x="190" y="60" width="7" height="6"></rect>
                    <rect id="Rectangle-Copy" x="190" y="90" width="7" height="7"></rect>
                    <rect id="Rectangle" x="222" y="60" width="6" height="6"></rect>
                    <rect id="Rectangle-Copy-2" x="222" y="90" width="6" height="7"></rect>
                    <rect id="Rectangle" x="126" y="60" width="6" height="6"></rect>
                    <rect id="Rectangle-Copy" x="126" y="90" width="6" height="7"></rect>
                    <rect id="Rectangle" x="157" y="60" width="7" height="6"></rect>
                    <rect id="Rectangle-Copy-2" x="157" y="90" width="7" height="7"></rect>
                    <rect id="Rectangle" x="63" y="0" width="7" height="6"></rect>
                    <rect id="Rectangle-Copy" x="63" y="30" width="7" height="6"></rect>
                    <rect id="Rectangle" x="96" y="0" width="6" height="6"></rect>
                    <rect id="Rectangle-Copy-2" x="96" y="30" width="6" height="6"></rect>
                    <rect id="Rectangle" x="0" y="0" width="6" height="6"></rect>
                    <rect id="Rectangle-Copy" x="0" y="30" width="6" height="6"></rect>
                    <rect id="Rectangle" x="31" y="0" width="6" height="6"></rect>
                    <rect id="Rectangle-Copy-2" x="31" y="30" width="6" height="6"></rect>
                    <rect id="Rectangle" x="190" y="0" width="7" height="6"></rect>
                    <rect id="Rectangle-Copy" x="190" y="30" width="7" height="6"></rect>
                    <rect id="Rectangle" x="222" y="0" width="6" height="6"></rect>
                    <rect id="Rectangle-Copy-2" x="222" y="30" width="6" height="6"></rect>
                    <rect id="Rectangle" x="126" y="0" width="6" height="6"></rect>
                    <rect id="Rectangle-Copy" x="126" y="30" width="6" height="6"></rect>
                    <rect id="Rectangle" x="157" y="0" width="7" height="6"></rect>
                    <rect id="Rectangle-Copy-2" x="157" y="30" width="7" height="6"></rect>
                </g>
                <g id="Group-2">
                    <rect id="Rectangle" x="63" y="181" width="7" height="6"></rect>
                    <rect id="Rectangle-Copy" x="63" y="211" width="7" height="6"></rect>
                    <rect id="Rectangle" x="96" y="181" width="6" height="6"></rect>
                    <rect id="Rectangle-Copy-2" x="96" y="211" width="6" height="6"></rect>
                    <rect id="Rectangle" x="0" y="181" width="6" height="6"></rect>
                    <rect id="Rectangle-Copy" x="0" y="211" width="6" height="6"></rect>
                    <rect id="Rectangle" x="31" y="181" width="6" height="6"></rect>
                    <rect id="Rectangle-Copy-2" x="31" y="211" width="6" height="6"></rect>
                    <rect id="Rectangle" x="190" y="181" width="7" height="6"></rect>
                    <rect id="Rectangle-Copy" x="190" y="211" width="7" height="6"></rect>
                    <rect id="Rectangle" x="222" y="181" width="6" height="6"></rect>
                    <rect id="Rectangle-Copy-2" x="222" y="211" width="6" height="6"></rect>
                    <rect id="Rectangle" x="126" y="181" width="6" height="6"></rect>
                    <rect id="Rectangle-Copy" x="126" y="211" width="6" height="6"></rect>
                    <rect id="Rectangle" x="157" y="181" width="7" height="6"></rect>
                    <rect id="Rectangle-Copy-2" x="157" y="211" width="7" height="6"></rect>
                    <rect id="Rectangle-Copy" x="63" y="151" width="7" height="6"></rect>
                    <rect id="Rectangle-Copy-2" x="96" y="151" width="6" height="6"></rect>
                    <rect id="Rectangle-Copy" x="0" y="151" width="6" height="6"></rect>
                    <rect id="Rectangle-Copy-2" x="31" y="151" width="6" height="6"></rect>
                    <rect id="Rectangle-Copy" x="190" y="151" width="7" height="6"></rect>
                    <rect id="Rectangle-Copy-2" x="222" y="151" width="6" height="6"></rect>
                    <rect id="Rectangle-Copy" x="126" y="151" width="6" height="6"></rect>
                    <rect id="Rectangle-Copy-2" x="157" y="151" width="7" height="6"></rect>
                    <rect id="Rectangle" x="63" y="0" width="7" height="6"></rect>
                    <rect id="Rectangle" x="96" y="0" width="6" height="6"></rect>
                    <rect id="Rectangle" x="0" y="0" width="6" height="6"></rect>
                    <rect id="Rectangle" x="31" y="0" width="6" height="6"></rect>
                    <rect id="Rectangle" x="190" y="0" width="7" height="6"></rect>
                    <rect id="Rectangle" x="222" y="0" width="6" height="6"></rect>
                    <rect id="Rectangle" x="126" y="0" width="6" height="6"></rect>
                    <rect id="Rectangle" x="157" y="0" width="7" height="6"></rect>
                </g>
            </g>
        </g>
    </g>
</svg>