<?xml version="1.0" encoding="UTF-8"?>
<svg width="239px" height="546px" viewBox="0 0 239 546" version="1.1" xmlns="http://www.w3.org/2000/svg" xmlns:xlink="http://www.w3.org/1999/xlink">
    <!-- Generator: Sketch 55.2 (78181) - https://sketchapp.com -->
    <title>Combined Shape Copy 2</title>
    <desc>Created with Sketch.</desc>
    <g id="Signup" stroke="none" stroke-width="1" fill="none" fill-rule="evenodd">
        <g id="01-website" transform="translate(-721.000000, -100.000000)" fill="#BEE3F8">
            <path d="M722.000002,389 C721.66713,389 721.333796,389 721,389 C721,396.994536 721.3382,404.903814 722,412.712077 L722,389 C987.615092,389 959.109909,389 959.109909,389 C959.109909,437.845531 959.109909,481.081841 959.109909,517.499613 C959.109909,598.698395 959.109909,646 959.109909,646 C837.645331,646 737.423013,547.83577 722.827777,421 Z M722.882642,349 C722.882642,351.649601 722.882642,354.316334 722.882642,357 C722.882642,357 721.997028,357 722.000008,357 L722,349 L722.882642,349 C722.882642,303.424083 722.882642,262.917298 722.882642,228.500387 C722.882642,147.301605 722.882642,100 722.882642,100 C850.827701,100 955.004464,210.764379 958.887779,348.999964 Z" id="Combined-Shape-Copy-2"></path>
        </g>
    </g>
</svg>