<?xml version="1.0" encoding="UTF-8"?>
<svg width="30px" height="32px" viewBox="0 0 30 32" version="1.1" xmlns="http://www.w3.org/2000/svg" xmlns:xlink="http://www.w3.org/1999/xlink">
    <!-- Generator: Sketch 55.2 (78181) - https://sketchapp.com -->
    <title>pictograms/calendar/calendar 03</title>
    <desc>Created with Sketch.</desc>
    <g id="Signup" stroke="none" stroke-width="1" fill="none" fill-rule="evenodd">
        <g id="Payment-details" transform="translate(-947.000000, -349.000000)" fill="#000000">
            <g id="pictograms/calendar/calendar-03" transform="translate(946.500000, 348.922674)">
                <path d="M17.721,24.9997 L25,24.9997 L25,21.7197 L17.721,21.7197 L17.721,24.9997 Z M25.36,25.7197 L17.36,25.7197 C17.161,25.7197 17,25.5577 17,25.3597 L17,21.3597 C17,21.1607 17.161,20.9997 17.36,20.9997 L25.36,20.9997 C25.56,20.9997 25.721,21.1607 25.721,21.3597 L25.721,25.3597 C25.721,25.5577 25.56,25.7197 25.36,25.7197 Z M19.3604,4.7197 L11.3604,4.7197 C11.1614,4.7197 11.0004,4.5587 11.0004,4.3597 C11.0004,4.1607 11.1614,3.9997 11.3604,3.9997 L19.3604,3.9997 C19.5594,3.9997 19.7204,4.1607 19.7204,4.3597 C19.7204,4.5587 19.5594,4.7197 19.3604,4.7197 Z M29.3604,31.7197 L1.3604,31.7197 C1.1614,31.7197 1.0004,31.5587 1.0004,31.3597 L1.0004,4.3597 C1.0004,4.1607 1.1614,3.9997 1.3604,3.9997 L5.3604,3.9997 C5.5594,3.9997 5.7204,4.1607 5.7204,4.3597 C5.7204,4.5587 5.5594,4.7197 5.3604,4.7197 L1.7204,4.7197 L1.7204,30.9997 L29.0004,30.9997 L29.0004,4.7197 L25.3604,4.7197 C25.1614,4.7197 25.0004,4.5587 25.0004,4.3597 C25.0004,4.1607 25.1614,3.9997 25.3604,3.9997 L29.3604,3.9997 C29.5594,3.9997 29.7204,4.1607 29.7204,4.3597 L29.7204,31.3597 C29.7204,31.5587 29.5594,31.7197 29.3604,31.7197 Z M5.721,15.9997 L13,15.9997 L13,12.7197 L5.721,12.7197 L5.721,15.9997 Z M13.36,16.7197 L5.36,16.7197 C5.161,16.7197 5,16.5577 5,16.3597 L5,12.3597 C5,12.1607 5.161,11.9997 5.36,11.9997 L13.36,11.9997 C13.56,11.9997 13.721,12.1607 13.721,12.3597 L13.721,16.3597 C13.721,16.5577 13.56,16.7197 13.36,16.7197 Z M22.3604,1.7197 C22.0074,1.7197 21.7204,2.0067 21.7204,2.3597 L21.7204,6.3597 C21.7204,6.7127 22.0074,6.9997 22.3604,6.9997 C22.7134,6.9997 23.0004,6.7127 23.0004,6.3597 L23.0004,2.3597 C23.0004,2.0067 22.7134,1.7197 22.3604,1.7197 Z M22.3604,7.7197 C21.6104,7.7197 21.0004,7.1097 21.0004,6.3597 L21.0004,2.3597 C21.0004,1.6097 21.6104,0.9997 22.3604,0.9997 C23.1104,0.9997 23.7204,1.6097 23.7204,2.3597 L23.7204,6.3597 C23.7204,7.1097 23.1104,7.7197 22.3604,7.7197 Z M8.3594,1.7197 C8.0064,1.7197 7.7194,2.0067 7.7194,2.3597 L7.7194,6.3597 C7.7194,6.7127 8.0064,6.9997 8.3594,6.9997 C8.7124,6.9997 8.9994,6.7127 8.9994,6.3597 L8.9994,2.3597 C8.9994,2.0067 8.7124,1.7197 8.3594,1.7197 Z M8.3594,7.7197 C7.6094,7.7197 6.9994,7.1097 6.9994,6.3597 L6.9994,2.3597 C6.9994,1.6097 7.6094,0.9997 8.3594,0.9997 C9.1094,0.9997 9.7194,1.6097 9.7194,2.3597 L9.7194,6.3597 C9.7194,7.1097 9.1094,7.7197 8.3594,7.7197 Z M5.721,24.9997 L13,24.9997 L13,21.7197 L5.721,21.7197 L5.721,24.9997 Z M13.36,25.7197 L5.36,25.7197 C5.161,25.7197 5,25.5577 5,25.3597 L5,21.3597 C5,21.1607 5.161,20.9997 5.36,20.9997 L13.36,20.9997 C13.56,20.9997 13.721,21.1607 13.721,21.3597 L13.721,25.3597 C13.721,25.5577 13.56,25.7197 13.36,25.7197 Z M17.721,15.9997 L25,15.9997 L25,12.7197 L17.721,12.7197 L17.721,15.9997 Z M25.36,16.7197 L17.36,16.7197 C17.161,16.7197 17,16.5577 17,16.3597 L17,12.3597 C17,12.1607 17.161,11.9997 17.36,11.9997 L25.36,11.9997 C25.56,11.9997 25.721,12.1607 25.721,12.3597 L25.721,16.3597 C25.721,16.5577 25.56,16.7197 25.36,16.7197 Z" id="Fill-11"></path>
            </g>
        </g>
    </g>
</svg>