<?xml version="1.0" encoding="UTF-8"?>
<svg width="31px" height="22px" viewBox="0 0 31 22" version="1.1" xmlns="http://www.w3.org/2000/svg" xmlns:xlink="http://www.w3.org/1999/xlink">
    <!-- Generator: Sketch 55.2 (78181) - https://sketchapp.com -->
    <title>pictograms/retail/card</title>
    <desc>Created with Sketch.</desc>
    <g id="Signup" stroke="none" stroke-width="1" fill="none" fill-rule="evenodd">
        <g id="Payment-details" transform="translate(-670.000000, -356.000000)" fill="#000000">
            <g id="pictograms/retail/card" transform="translate(669.000000, 350.500000)">
                <path d="M30.9999,10.7207 L1.7199,10.7207 L1.7199,12.9997 L30.9999,12.9997 L30.9999,10.7207 Z M30.9999,9.9997 L30.9999,8.3607 C30.9999,7.4557 30.2639,6.7207 29.3599,6.7207 L3.3599,6.7207 C2.4559,6.7207 1.7199,7.4557 1.7199,8.3607 L1.7199,9.9997 L30.9999,9.9997 Z M30.9999,13.7207 L1.7199,13.7207 L1.7199,24.3607 C1.7199,25.2647 2.4559,25.9997 3.3599,25.9997 L29.3599,25.9997 C30.2639,25.9997 30.9999,25.2647 30.9999,24.3607 L30.9999,13.7207 Z M29.3599,26.7207 L3.3599,26.7207 C2.0589,26.7207 0.9999,25.6617 0.9999,24.3607 L0.9999,8.3607 C0.9999,7.0587 2.0589,5.9997 3.3599,5.9997 L29.3599,5.9997 C30.6609,5.9997 31.7199,7.0587 31.7199,8.3607 L31.7199,24.3607 C31.7199,25.6617 30.6609,26.7207 29.3599,26.7207 Z" id="Fill-8"></path>
            </g>
        </g>
    </g>
</svg>