<?xml version="1.0" encoding="UTF-8"?>
<svg width="491px" height="1024px" viewBox="0 0 491 1024" version="1.1" xmlns="http://www.w3.org/2000/svg" xmlns:xlink="http://www.w3.org/1999/xlink">
    <!-- Generator: Sketch 55.2 (78181) - https://sketchapp.com -->
    <title>Group 11</title>
    <desc>Created with Sketch.</desc>
    <defs>
        <rect id="path-1" x="0" y="0" width="491" height="1024"></rect>
    </defs>
    <g id="Signup" stroke="none" stroke-width="1" fill="none" fill-rule="evenodd">
        <g id="Signup---Confirm-details">
            <g id="Group-11">
                <g id="Group">
                    <text id="©-2020-Acorn.-All-ri" font-family="Helvetica" font-size="14" font-weight="normal" fill="#A0AEC0">
                        <tspan x="36" y="991">© 2020 Acorn. All rights reserved.</tspan>
                    </text>
                    <g id="Combined-Shape-+-Combined-Shape-Copy-2-Mask">
                        <mask id="mask-2" fill="white">
                            <use xlink:href="#path-1"></use>
                        </mask>
                        <use id="Mask" fill="#EBF8FF" xlink:href="#path-1"></use>
                        <path d="M0,795 C90.0224142,795 163,872.902454 163,969 C163,1065.09755 90.0224142,1143 0,1143 L-580,1143 L-580,795 L0,795 Z" id="Combined-Shape" fill="#FEEBC8" mask="url(#mask-2)"></path>
                        <path d="M892,-13 C982.022414,-13 1055,64.9024535 1055,161 C1055,257.097546 982.022414,335 892,335 L312,335 L312,-13 L892,-13 Z" id="Combined-Shape-Copy-2" fill="#FED7D7" mask="url(#mask-2)" transform="translate(683.500000, 161.000000) scale(-1, 1) translate(-683.500000, -161.000000) "></path>
                    </g>
                </g>
                <g id="undraw_contract_uy56" transform="translate(23.000000, 339.000000)" fill-rule="nonzero">
                    <path d="M25.1646242,31 C11.2731359,31.0157427 0.0158002675,42.2320423 0,56.0728922 L0,344.927422 C0.0159363424,358.768165 11.2732432,369.984295 25.1646242,370 L237.835691,370 C251.726963,369.984157 262.984099,358.768057 263,344.927422 L263,56.0728713 C262.984226,42.2321364 251.727064,31.0158782 237.835691,31 L25.1646242,31 Z" id="Path" fill="#3F3D56"></path>
                    <rect id="Rectangle" fill="#FFFFFF" x="13" y="47" width="236" height="305"></rect>
                    <rect id="Rectangle" fill="#A3BFFA" x="44" y="103" width="175" height="12"></rect>
                    <rect id="Rectangle" fill="#A3BFFA" x="44" y="133" width="175" height="12"></rect>
                    <rect id="Rectangle" fill="#A3BFFA" x="44" y="164" width="175" height="12"></rect>
                    <rect id="Rectangle" fill="#A3BFFA" x="44" y="195" width="175" height="12"></rect>
                    <rect id="Rectangle" fill="#A3BFFA" x="44" y="226" width="175" height="12"></rect>
                    <rect id="Rectangle" fill="#A3BFFA" x="44" y="255" width="175" height="12"></rect>
                    <rect id="Rectangle" fill="#A3BFFA" x="44" y="286" width="175" height="12"></rect>
                    <polygon id="Rectangle" fill="#FFFAF0" transform="translate(154.562823, 156.601405) rotate(-10.370530) translate(-154.562823, -156.601405) " points="66.7729675 43.3040326 242.499397 43.1899178 242.352678 269.898778 66.6262485 270.012893"></polygon>
                    <polygon id="Rectangle" fill="#A3BFFA" transform="translate(142.286216, 89.271046) rotate(-10.370530) translate(-142.286216, -89.271046) " points="77.3980933 85.0356592 207.179875 84.9513804 207.174338 93.5064335 77.3925567 93.5907123"></polygon>
                    <polygon id="Rectangle" fill="#A3BFFA" transform="translate(146.378415, 111.714501) rotate(-10.370530) translate(-146.378415, -111.714501) " points="81.4902927 107.479114 211.272074 107.394835 211.266538 115.949888 81.4847561 116.034167"></polygon>
                    <polygon id="Rectangle" fill="#A3BFFA" transform="translate(150.470619, 134.157954) rotate(-10.370530) translate(-150.470619, -134.157954) " points="85.5824963 129.922567 215.364278 129.838288 215.358741 138.393341 85.5769598 138.47762"></polygon>
                    <polygon id="Rectangle" fill="#A3BFFA" transform="translate(154.562817, 156.601404) rotate(-10.370530) translate(-154.562817, -156.601404) " points="89.6746948 152.366017 219.456476 152.281738 219.45094 160.836791 89.6691582 160.92107"></polygon>
                    <polygon id="Rectangle" fill="#A3BFFA" transform="translate(158.653195, 179.044780) rotate(-10.370392) translate(-158.653195, -179.044780) " points="93.7653781 174.809412 223.546549 174.725135 223.541012 183.280148 93.7598416 183.364425"></polygon>
                    <polygon id="Rectangle" fill="#A3BFFA" transform="translate(162.747231, 201.488305) rotate(-10.370530) translate(-162.747231, -201.488305) " points="97.8591082 197.252918 227.64089 197.168639 227.635353 205.723693 97.8535716 205.807971"></polygon>
                    <polygon id="Rectangle" fill="#A3BFFA" transform="translate(166.839430, 223.931760) rotate(-10.370530) translate(-166.839430, -223.931760) " points="101.951308 219.696373 231.733089 219.612094 231.727552 228.167147 101.945771 228.251426"></polygon>
                    <polygon id="Rectangle" fill="#E6E6E6" transform="translate(324.283863, 309.237647) rotate(-10.370530) translate(-324.283863, -309.237647) " points="299.443358 277.179682 349.165883 277.147393 349.124368 341.295611 299.401843 341.3279"></polygon>
                    <polygon id="Rectangle" fill="#FFFFFF" transform="translate(320.810143, 290.186247) rotate(-10.370530) translate(-320.810143, -290.186247) " points="302.449778 288.987826 339.172074 288.963979 339.170508 291.384668 302.448211 291.408515"></polygon>
                    <polygon id="Rectangle" fill="#FFFFFF" transform="translate(321.968048, 296.536713) rotate(-10.370530) translate(-321.968048, -296.536713) " points="303.607684 295.338292 340.32998 295.314445 340.328413 297.735134 303.606117 297.758981"></polygon>
                    <polygon id="Rectangle" fill="#FFFFFF" transform="translate(323.125959, 302.887178) rotate(-10.370530) translate(-323.125959, -302.887178) " points="304.765594 301.688757 341.487891 301.66491 341.486324 304.085599 304.764028 304.109446"></polygon>
                    <polygon id="Rectangle" fill="#FFFFFF" transform="translate(324.283865, 309.237644) rotate(-10.370530) translate(-324.283865, -309.237644) " points="305.9235 308.039223 342.645796 308.015376 342.64423 310.436064 305.921933 310.459911"></polygon>
                    <polygon id="Rectangle" fill="#FFFFFF" transform="translate(325.441766, 315.588120) rotate(-10.370530) translate(-325.441766, -315.588120) " points="307.081401 314.389699 343.803698 314.365852 343.802131 316.786541 307.079835 316.810388"></polygon>
                    <polygon id="Rectangle" fill="#FFFFFF" transform="translate(326.599677, 321.938586) rotate(-10.370530) translate(-326.599677, -321.938586) " points="308.239312 320.740165 344.961608 320.716318 344.960042 323.137007 308.237746 323.160854"></polygon>
                    <polygon id="Rectangle" fill="#FFFFFF" transform="translate(327.757583, 328.289051) rotate(-10.370530) translate(-327.757583, -328.289051) " points="309.397218 327.09063 346.119514 327.066783 346.117947 329.487472 309.395651 329.511319"></polygon>
                    <path d="M173.426567,16.2234076 L152.758621,16.2234076 L152.758621,11.8801242 C152.758621,5.31891279 147.577016,0 141.185183,0 L118.814812,0 C112.422984,0 107.241387,5.31891782 107.24139,11.8801242 L107.24139,16.2234076 L86.5734325,16.2234076 C83.5039665,16.2234076 80.5602178,17.4750601 78.3897781,19.7030158 C76.2193383,21.9309714 75,24.9527275 75,28.1035318 L75,61 L185,61 L185,28.1035318 C185,24.9527275 183.780662,21.9309714 181.610222,19.7030158 C179.439782,17.4750601 176.496034,16.2234076 173.426567,16.2234076 Z" id="Path" fill="#3F3D56"></path>
                    <path d="M123.383621,330.232191 C126.802325,327.968671 130.315975,325.614582 134.37575,324.585689 C138.079798,323.646956 142.333035,323.895286 145.26274,326.519197 C147.627057,328.636736 148.625307,331.891366 146.873556,334.677252 C146.113401,335.962597 144.821384,336.872094 143.323376,337.17635 C141.868959,337.361991 140.417691,336.813459 139.478533,335.723126 C138.560034,334.741199 138.010495,333.289902 138.498568,331.995588 C139.01179,330.634573 140.384704,329.802216 141.733109,329.337705 C143.302529,328.856728 144.919047,328.533658 146.556996,328.373625 L153.265775,327.48509 L180.724952,323.848306 L211.304492,319.798251 C211.807387,319.660606 212.102618,319.157554 211.967095,318.669219 C211.816948,318.188714 211.303536,317.906691 210.800095,318.028174 L149.953049,326.086936 C147.752158,326.378426 145.520228,326.587146 143.342218,327.015414 C141.627695,327.283752 140.002011,327.937018 138.595518,328.922834 C135.680747,331.155438 135.888966,335.104317 138.571263,337.43997 C141.286609,339.804369 145.223536,339.39733 147.606341,336.7859 C150.084745,334.067029 150.340561,330.06788 148.227581,327.074109 C145.626461,323.279584 140.886712,321.821788 136.35792,322.359957 C131.120337,322.982345 126.679982,325.830576 122.425974,328.647152 C121.424388,329.310298 122.372377,330.901721 123.383621,330.232181 L123.383621,330.232191 Z" id="Path" fill="#3F3D56"></path>
                    <path d="M339.203193,260 L339.734563,266.250003 C339.734563,266.250003 336.546357,280 343.454135,280 C350.361913,280 345.048236,266.250003 345.048236,266.250003 L345.579606,261.250001 L339.203193,260 Z" id="Path" fill="#A0616A"></path>
                    <path d="M394.826246,238 L391.676093,243.773783 C391.676093,243.773783 380.017715,253.601737 387.513393,258.158565 C395.00907,262.715392 397.442015,247.279032 397.442015,247.279032 L401,243.29097 L394.826246,238 Z" id="Path" fill="#A0616A"></path>
                    <path d="M349,266.159805 L357.638297,327.432512 L361.957445,371.290875 C361.957445,371.290875 365.659574,380.96551 378,372.580827 L376.148933,347.426767 L374.91489,324.852613 C374.91489,324.852613 373.680852,302.923431 372.446809,299.053574 C371.212766,295.183716 373.063828,282.284202 373.063828,282.284202 L378,261 L349,266.159805 Z" id="Path" fill="#2F2E41"></path>
                    <path d="M362.802886,368 L357.707447,374.027907 C357.707447,374.027907 350.064271,371.348836 348.153493,376.706973 C346.242715,382.06511 362.802886,383.404651 362.802886,383.404651 C362.802886,383.404651 380,384.744186 380,383.404651 C380,382.065115 379.539208,371.820374 377.221882,371.249722 C374.904556,370.679071 362.802886,368 362.802886,368 Z" id="Path" fill="#2F2E41"></path>
                    <path d="M373,262.492564 L381.638298,326.672047 L385.957447,370.3141 C385.957447,370.3141 389.659572,379.94102 402,371.597691 L400.148938,346.567691 L398.914894,324.104872 C398.914894,324.104872 397.680851,302.283845 396.446808,298.433074 C395.212764,294.582303 397.063832,281.746409 397.063832,281.746409 L395.829789,258 L373,262.492564 Z" id="Path" fill="#2F2E41"></path>
                    <path d="M388.802888,368 L383.707443,374.027907 C383.707443,374.027907 376.064266,371.348836 374.153492,376.706973 C372.242719,382.06511 388.802888,383.404651 388.802888,383.404651 C388.802888,383.404651 406,384.744186 406,383.404651 C406,382.065115 405.539208,371.820374 403.221887,371.249722 C400.904566,370.679071 388.802888,368 388.802888,368 Z" id="Path" fill="#2F2E41"></path>
                    <circle id="Oval" fill="#A0616A" cx="353" cy="148" r="14"></circle>
                    <polygon id="Path" fill="#A0616A" points="363.461441 153 369 162.600211 354.846018 169 353 157.479958"></polygon>
                    <path d="M371.097073,162.070658 C371.097073,162.070658 357.645633,160.7944 352.521283,169.090069 L339.878246,178.66253 C337.794239,180.2404 336.719687,182.810479 337.063134,185.395626 L348.037485,268 L364.051106,267.361874 L390.313448,262.256842 L398,260.342458 L394.156729,226.521621 C394.156729,226.521621 389.672916,213.120921 394.797272,204.187121 L392.235096,172.918821 L374.299828,165.899426 L371.097073,162.070658 Z" id="Path" fill="#7970FD"></path>
                    <path d="M340.923075,182.602319 L340,181 C340,181 338.769229,181 338.769229,183.563708 C338.769229,186.127416 336.615382,241.567569 336.615382,241.567569 L336,262.718151 L347.692307,264 L352,224.262554 L350.153848,197.984556 L340.923075,182.602319 Z" id="Path" fill="#6E65F4"></path>
                    <path d="M382,171 L391.223014,172.280702 C394.816816,175.938777 397.916141,180.027295 400.446029,184.447368 C404.398746,191.491229 416.256909,204.938598 413.62176,215.184212 C410.986612,225.429827 403.081172,244 403.081172,244 L390.564219,238.877195 C390.564219,238.877195 400.446023,216.464915 399.787234,214.543864 C399.128444,212.622813 391.223009,201.09649 391.223009,201.09649 L382,171 Z" id="Path" fill="#726AED"></path>
                    <path d="M345.108276,141.407645 C345.108276,141.407645 334.408233,140.787901 341.33178,133.970682 C341.33178,133.970682 346.996522,131.491698 349.514186,132.73119 C349.514186,132.73119 353.290682,130.252206 353.290682,131.491698 C353.290682,131.491698 366.50841,127.773227 368.396656,140.787886 C370.284901,153.802545 367.137824,160 367.137824,160 L358.326005,159.380257 C358.326005,159.380257 360.21425,148.844577 353.290682,150.084069 C353.290682,150.084069 347.62594,151.943309 346.996522,150.084069 C346.367103,148.224828 345.108276,141.407645 345.108276,141.407645 Z" id="Path" fill="#2F2E41"></path>
                    <polygon id="Path" fill="#000000" opacity="0.2" points="349.599803 263 355 224.649875 351.399704 201 352.599803 226.723466 349 263"></polygon>
                </g>
            </g>
        </g>
    </g>
</svg>