<?xml version="1.0" encoding="UTF-8"?>
<svg width="11px" height="13px" viewBox="0 0 11 13" version="1.1" xmlns="http://www.w3.org/2000/svg" xmlns:xlink="http://www.w3.org/1999/xlink">
    <!-- Generator: Sketch 55.2 (78181) - https://sketchapp.com -->
    <title>Icon</title>
    <desc>Created with Sketch.</desc>
    <g id="Signup" stroke="none" stroke-width="1" fill="none" fill-rule="evenodd">
        <g id="Signup---Confirm-details" transform="translate(-744.000000, -416.000000)" fill="#38B2AC" fill-rule="nonzero">
            <g id="Group-7" transform="translate(571.000000, 355.000000)">
                <g id="bx-bx-edit-alt-copy" transform="translate(171.000000, 60.000000)">
                    <g id="Icon" transform="translate(2.000000, 1.000000)">
                        <path d="M9.72248397,3.676725 C9.94904167,3.444675 10.0737083,3.13650278 10.0737083,2.80868611 C10.0737083,2.48086944 9.94904167,2.17269722 9.72248397,1.94064722 L8.77190064,0.967019444 C8.54534295,0.734969444 8.24446474,0.607280556 7.92440705,0.607280556 C7.60434936,0.607280556 7.30347115,0.734969444 7.07751282,0.966405556 L0.705128205,7.47301389 L0.705128205,10.1833333 L3.35009936,10.1833333 L9.72248397,3.676725 Z M7.92440705,1.83505833 L8.87558974,2.80807222 L7.92260897,3.78047222 L6.97202564,2.80745833 L7.92440705,1.83505833 Z M1.90384615,8.95555556 L1.90384615,7.98254167 L6.12333333,3.67426944 L7.07391667,4.64789722 L2.85502885,8.95555556 L1.90384615,8.95555556 Z M0.705128205,11.4111111 L10.2948718,11.4111111 L10.2948718,12.6388889 L0.705128205,12.6388889 L0.705128205,11.4111111 Z" id="Icon-Shape"></path>
                    </g>
                </g>
            </g>
        </g>
    </g>
</svg>