<svg width="20" height="24" viewBox="0 0 20 24" fill="none" xmlns="http://www.w3.org/2000/svg">
<path d="M19 24H10C9.73478 24 9.48043 23.8946 9.29289 23.7071C9.10536 23.5196 9 23.2652 9 23V21C9 20.7348 9.10536 20.4804 9.29289 20.2929C9.48043 20.1054 9.73478 20 10 20H19C19.2652 20 19.5196 20.1054 19.7071 20.2929C19.8946 20.4804 20 20.7348 20 21V23C20 23.2652 19.8946 23.5196 19.7071 23.7071C19.5196 23.8946 19.2652 24 19 24Z" fill="#D6B1FF"/>
<path d="M19 0H1C0.734784 0 0.480429 0.105356 0.292892 0.292892C0.105356 0.480429 0 0.734784 0 1V3C0 3.26522 0.105356 3.51957 0.292892 3.70711C0.480429 3.89464 0.734784 4 1 4H19C19.2652 4 19.5196 3.89464 19.7071 3.70711C19.8946 3.51957 20 3.26522 20 3V1C20 0.734784 19.8946 0.480429 19.7071 0.292892C19.5196 0.105356 19.2652 0 19 0Z" fill="#2EC5CE"/>
<path d="M19 6H1C0.734784 6 0.480429 6.10536 0.292892 6.29289C0.105356 6.48043 0 6.73478 0 7V17C0 17.2652 0.105356 17.5196 0.292892 17.7071C0.480429 17.8946 0.734784 18 1 18H19C19.2652 18 19.5196 17.8946 19.7071 17.7071C19.8946 17.5196 20 17.2652 20 17V7C20 6.73478 19.8946 6.48043 19.7071 6.29289C19.5196 6.10536 19.2652 6 19 6Z" fill="#1A4F7B"/>
</svg>
