<svg width="22" height="22" viewBox="0 0 22 22" fill="none" xmlns="http://www.w3.org/2000/svg">
<path d="M4 0H1C0.734784 0 0.480429 0.105356 0.292892 0.292892C0.105356 0.480429 0 0.734784 0 1V21C0 21.2652 0.105356 21.5196 0.292892 21.7071C0.480429 21.8946 0.734784 22 1 22H4V0Z" fill="#D6B1FF"/>
<path d="M6 22H16V0H6V22ZM11 18C10.7348 18 10.4804 17.8946 10.2929 17.7071C10.1054 17.5196 10 17.2652 10 17C10 16.7348 10.1054 16.4804 10.2929 16.2929C10.4804 16.1054 10.7348 16 11 16C11.2652 16 11.5196 16.1054 11.7071 16.2929C11.8946 16.4804 12 16.7348 12 17C12 17.2652 11.8946 17.5196 11.7071 17.7071C11.5196 17.8946 11.2652 18 11 18ZM11 4C11.2652 4 11.5196 4.10536 11.7071 4.29289C11.8946 4.48043 12 4.73478 12 5C12 5.26522 11.8946 5.51957 11.7071 5.70711C11.5196 5.89464 11.2652 6 11 6C10.7348 6 10.4804 5.89464 10.2929 5.70711C10.1054 5.51957 10 5.26522 10 5C10 4.73478 10.1054 4.48043 10.2929 4.29289C10.4804 4.10536 10.7348 4 11 4ZM11 10C11.2652 10 11.5196 10.1054 11.7071 10.2929C11.8946 10.4804 12 10.7348 12 11C12 11.2652 11.8946 11.5196 11.7071 11.7071C11.5196 11.8946 11.2652 12 11 12C10.7348 12 10.4804 11.8946 10.2929 11.7071C10.1054 11.5196 10 11.2652 10 11C10 10.7348 10.1054 10.4804 10.2929 10.2929C10.4804 10.1054 10.7348 10 11 10Z" fill="#1A4F7B"/>
<path d="M21 0H18V22H21C21.2652 22 21.5196 21.8946 21.7071 21.7071C21.8946 21.5196 22 21.2652 22 21V1C22 0.734784 21.8946 0.480429 21.7071 0.292892C21.5196 0.105356 21.2652 0 21 0Z" fill="#2EC5CE"/>
</svg>
