<?xml version="1.0" encoding="utf-8"?>
<!-- Generator: Adobe Illustrator 23.0.0, SVG Export Plug-In . SVG Version: 6.00 Build 0)  -->
<svg version="1.1" id="Layer_1" xmlns="http://www.w3.org/2000/svg" xmlns:xlink="http://www.w3.org/1999/xlink" x="0px" y="0px"
	 width="640px" height="427px" viewBox="0 0 640 427" style="enable-background:new 0 0 640 427;" xml:space="preserve">
<style type="text/css">
	.st0{fill:#DA251D;}
	.st1{fill:#FFFF00;}
</style>
<rect class="st0" width="640" height="427"/>
<g transform="translate(0.000000,427.000000) scale(0.100000,-0.100000)">
	<path class="st1" d="M3347,2972l141-437l463-5l463-5l-364-264c-201-145-369-267-373-271c-5-4,55-204,133-445
		c78-240,140-438,138-439c-1-2-169,118-373,265c-203,148-372,269-375,269s-172-121-375-269c-204-147-372-267-373-265
		c-2,1,60,199,138,440c135,417,141,438,124,451c-11,8-178,130-373,271l-355,257l463,5l463,5l141,437c78,241,144,438,147,438
		S3269,3213,3347,2972z"/>
</g>
</svg>
