<?xml version="1.0" encoding="utf-8"?>
<!-- Generator: Adobe Illustrator 22.0.1, SVG Export Plug-In . SVG Version: 6.00 Build 0)  -->
<svg version="1.1" id="Layer_1" xmlns="http://www.w3.org/2000/svg" xmlns:xlink="http://www.w3.org/1999/xlink" x="0px" y="0px"
	 viewBox="0 0 719 504" style="enable-background:new 0 0 719 504;" xml:space="preserve">
<style type="text/css">
	.st0{fill:#009B3A;}
	.st1{fill:#FEDF00;}
	.st2{fill:#002776;}
	.st3{clip-path:url(#SVGID_2_);}
	.st4{fill:#FFFFFF;}
	.st5{fill:#B5B5B5;}
</style>
<title>BR</title>
<rect x="-1" class="st0" width="720" height="504"/>
<path class="st1" d="M60.2,252L359,442.8L657.8,252L359,61.2L60.2,252z"/>
<circle class="st2" cx="359" cy="252" r="126"/>
<g>
	<defs>
		<circle id="SVGID_1_" cx="359" cy="252" r="126"/>
	</defs>
	<clipPath id="SVGID_2_">
		<use xlink:href="#SVGID_1_"  style="overflow:visible;"/>
	</clipPath>
	<g class="st3">
		<path class="st4" d="M-19,504c0-169,137-306,306-306s306,137,306,306h-18c0-159.1-128.9-288-288-288S-1,344.9-1,504H-19z"/>
	</g>
</g>
<path class="st0" d="M256.2,208.6c-0.4-3.3-3.1-5.7-6.1-5.3s-5,3.3-4.6,6.6s3.1,5.7,6.1,5.3S256.6,211.8,256.2,208.6z M250.8,205.6
	c4.1,0,4.1,7.3,0,7.3S246.7,205.6,250.8,205.6z"/>
<path id="E" class="st0" d="M291.8,213l10.8,0.4l0.1-2.2l-8.7-0.3l0.1-3.1l6.9,0.2l0.1-2.1l-6.9-0.2l0.1-2.4l8.2,0.3l0.1-2.2
	l-10.3-0.4L291.8,213z"/>
<path id="M" class="st0" d="M307,213.6l2,0.2l0.7-8.2l1.7,8.4l1.9,0.2l3.1-8l-0.7,8.2l2,0.2l1-12l-3-0.3l-3.1,8l-1.6-8.4l-3-0.3
	L307,213.6z"/>
<path id="e-2" class="st0" d="M331.9,216.4l8.9,1.5l0.3-2l-6.8-1.2l0.5-2.7l5.6,1l0.4-2L335,210l0.3-1.9l6.6,1.1l0.3-2l-8.7-1.5
	L331.9,216.4z"/>
<g id="R">
	<path id="P" class="st0" d="M369.4,224.8"/>
</g>
<g id="G">
	
		<rect x="407.1" y="231.4" transform="matrix(0.3986 -0.9171 0.9171 0.3986 31.0586 514.6503)" class="st0" width="1.7" height="4.5"/>
	
		<rect x="405.4" y="235.4" transform="matrix(0.3987 -0.9171 0.9171 0.3987 28.9356 516.5503)" class="st0" width="6" height="1.7"/>
</g>
<path id="E-3" class="st0" d="M425.6,248.1l9.4,5.3l1.1-1.9l-7.6-4.3l1.5-2.7l6,3.4l1-1.8l-6-3.4l1.2-2.1l7.2,4l1.1-1.9l-9-5.1
	L425.6,248.1z"/>
<path id="S" class="st0" d="M443.1,253.9c-0.6,1,0,2.1,1.5,3.1s2.4,0.9,2.9,0.2c1.3-2.1-6.3-5.1-3.9-8.7c2-3.1,5.5-0.7,6.8,0.1
	s3.4,3,1.8,5.4l-2.2-1.4c0.7-1.1-0.1-2.1-1.2-2.9s-2-1-2.7,0c-1.1,1.7,6.3,4.8,4,8.4c-1.7,2.6-4.6,1.5-6.6,0.2
	c-1.7-1.1-4.1-3.6-2.5-6.1L443.1,253.9z"/>
<path id="S-2" class="st0" d="M456,262.5c-0.7,1-0.1,2.1,1.3,3.1s2.4,1,2.8,0.4c1.4-2-6-5.4-3.5-8.9c2.2-3,5.5-0.4,6.8,0.5
	s3.2,3.1,1.5,5.5l-2.1-1.5c0.8-1,0-2.1-1.1-2.9s-2-1.1-2.7-0.1c-1.2,1.6,6.1,5.2,3.6,8.6c-1.8,2.5-4.7,1.3-6.6-0.1
	c-1.6-1.1-4-3.8-2.2-6.2L456,262.5z"/>
<g id="c">
	<path id="t" class="st4" d="M256.1,224l-1.7,5.1l2.6,0.8"/>
	<path id="t-2" class="st4" d="M256.1,224l1.7,5.1l-2.6,0.8"/>
</g>
<g id="c-2">
	<path id="t-3" class="st4" d="M261.3,227.7h-5.4v2.7"/>
	<path id="t-4" class="st4" d="M261.3,227.7l-4.4,3.2l-1.6-2.2"/>
</g>
<g id="c-3">
	<path id="t-5" class="st4" d="M251,227.7l4.4,3.2l1.6-2.2"/>
	<path id="t-6" class="st4" d="M251,227.7h5.4v2.7"/>
</g>
<g id="c-4">
	<path id="t-7" class="st4" d="M259.3,233.7l-1.7-5.1l-2.6,0.8"/>
	<path id="t-8" class="st4" d="M259.3,233.7l-4.3-3.2l1.6-2.2"/>
</g>
<g id="star">
	<g id="c-5">
		<path id="t-9" class="st4" d="M253,233.7l4.4-3.2l-1.6-2.2"/>
		<g id="αCMi">
			<path id="t-10" class="st4" d="M253,233.7l1.7-5.1l2.6,0.8"/>
		</g>
	</g>
</g>
<g id="c-6">
	<path id="t-11" class="st4" d="M267.3,276.9l-1.7,5.1l2.6,0.8"/>
	<path id="t-12" class="st4" d="M267.3,276.9l1.7,5.1l-2.6,0.8"/>
</g>
<g id="c-7">
	<path id="t-13" class="st4" d="M272.4,280.7H267v2.7"/>
	<path id="t-14" class="st4" d="M272.4,280.7l-4.4,3.2l-1.6-2.2"/>
</g>
<g id="c-8">
	<path id="t-15" class="st4" d="M262.1,280.7l4.4,3.2l1.6-2.2"/>
	<path id="t-16" class="st4" d="M262.1,280.7h5.4v2.7"/>
</g>
<g id="c-9">
	<path id="t-17" class="st4" d="M270.5,286.7l-1.7-5.1l-2.6,0.8"/>
	<path id="t-18" class="st4" d="M270.5,286.7l-4.4-3.2l1.6-2.2"/>
</g>
<g id="star-2">
	<g id="c-10">
		<path id="t-19" class="st4" d="M264.1,286.7l4.4-3.2l-1.6-2.2"/>
		<g id="αCMa">
			<path id="t-20" class="st4" d="M264.1,286.7l1.7-5.1l2.6,0.8"/>
		</g>
	</g>
</g>
<g id="c-11">
	<path id="t-21" class="st4" d="M251.9,289.2l-1.4,4.3l2.1,0.7"/>
	<path id="t-22" class="st4" d="M251.9,289.2l1.4,4.3l-2.1,0.7"/>
</g>
<g id="c-12">
	<path id="t-23" class="st4" d="M256.1,292.3h-4.5v2.3"/>
	<path id="t-24" class="st4" d="M256.1,292.3l-3.6,2.6l-1.3-1.8"/>
</g>
<g id="c-13">
	<path id="t-25" class="st4" d="M247.6,292.3l3.6,2.6l1.3-1.8"/>
	<path id="t-26" class="st4" d="M247.6,292.3h4.5v2.3"/>
</g>
<g id="c-14">
	<path id="t-27" class="st4" d="M254.5,297.3l-1.4-4.3l-2.1,0.7"/>
	<path id="t-28" class="st4" d="M254.5,297.3l-3.6-2.6l1.3-1.8"/>
</g>
<g id="star-3">
	<g id="c-15">
		<path id="t-29" class="st4" d="M249.2,297.3l3.6-2.6l-1.3-1.8"/>
		<g id="βCMa">
			<path id="t-30" class="st4" d="M249.2,297.3l1.4-4.3l2.1,0.7"/>
		</g>
	</g>
</g>
<g id="c-16">
	<path id="t-31" class="st4" d="M359,303.7l-1.7,5.1l2.6,0.8"/>
	<path id="t-32" class="st4" d="M359,303.7l1.7,5.1l-2.6,0.8"/>
</g>
<g id="c-17">
	<path id="t-33" class="st4" d="M353.9,307.5l4.4,3.2l1.6-2.2"/>
	<path id="t-34" class="st4" d="M353.9,307.5h5.4v2.7"/>
	<path id="t-35" class="st4" d="M364.1,307.5h-5.4v2.7"/>
	<path id="t-36" class="st4" d="M364.1,307.5l-4.4,3.2l-1.6-2.2"/>
</g>
<g id="c-18">
	<path id="t-37" class="st4" d="M362.2,313.5l-1.7-5.1l-2.6,0.8"/>
	<path id="t-38" class="st4" d="M362.2,313.5l-4.4-3.2l1.6-2.2"/>
</g>
<g id="star-4">
	<g id="c-19">
		<path id="t-39" class="st4" d="M355.8,313.5l4.4-3.2l-1.6-2.2"/>
		<g id="αCMa-2">
			<path id="t-40" class="st4" d="M355.8,313.5l1.7-5.1l2.6,0.8"/>
		</g>
	</g>
</g>
<g id="c-20">
	<path id="t-41" class="st4" d="M308.5,312.8l-1.7,5.1l2.6,0.8"/>
	<path id="t-42" class="st4" d="M308.5,312.8l1.7,5.1l-2.6,0.8"/>
</g>
<g id="c-21">
	<path id="t-43" class="st4" d="M303.4,316.5l4.4,3.2l1.6-2.2"/>
	<path id="t-44" class="st4" d="M303.4,316.5h5.4v2.7"/>
	<path id="t-45" class="st4" d="M313.7,316.5h-5.4v2.7"/>
	<path id="t-46" class="st4" d="M313.7,316.5l-4.4,3.2l-1.6-2.2"/>
</g>
<g id="c-22">
	<path id="t-47" class="st4" d="M311.7,322.6l-1.7-5.1l-2.6,0.8"/>
	<path id="t-48" class="st4" d="M311.7,322.6l-4.4-3.2l1.6-2.2"/>
</g>
<g id="star-5">
	<g id="c-23">
		<path id="t-49" class="st4" d="M305.4,322.6l4.4-3.2l-1.6-2.2"/>
		<g id="αCMa-3">
			<path id="t-50" class="st4" d="M305.4,322.6l1.7-5.1l2.6,0.8"/>
		</g>
	</g>
</g>
<g id="c-24">
	<path id="t-51" class="st4" d="M447.3,290.7l-1.7,5.1l2.6,0.8"/>
	<path id="t-52" class="st4" d="M447.3,290.7l1.7,5.1l-2.6,0.8"/>
</g>
<g id="c-25">
	<path id="t-53" class="st4" d="M442.1,294.5l4.4,3.2l1.6-2.2"/>
	<path id="t-54" class="st4" d="M442.1,294.5h5.4v2.7"/>
	<path id="t-55" class="st4" d="M452.4,294.5H447v2.7"/>
	<path id="t-56" class="st4" d="M452.4,294.5l-4.4,3.2l-1.6-2.2"/>
</g>
<g id="c-26">
	<path id="t-57" class="st4" d="M450.4,300.5l-1.7-5.1l-2.6,0.8"/>
	<path id="t-58" class="st4" d="M450.4,300.5l-4.4-3.2l1.6-2.2"/>
</g>
<g id="star-6">
	<g id="c-27">
		<path id="t-59" class="st4" d="M444.1,300.5l4.4-3.2l-1.6-2.2"/>
		<g id="αCMa-4">
			<path id="t-60" class="st4" d="M444.1,300.5l1.7-5.1l2.6,0.8"/>
		</g>
	</g>
</g>
<g id="c-28">
	<path id="t-61" class="st4" d="M396.7,332.3l-1.4,4.3l2.2,0.7"/>
	<path id="t-62" class="st4" d="M396.7,332.3l1.4,4.3l-2.1,0.7"/>
</g>
<g id="c-29">
	<path id="t-63" class="st4" d="M392.4,335.4l3.7,2.7l1.3-1.8"/>
	<path id="t-64" class="st4" d="M392.4,335.4h4.5v2.3"/>
	<path id="t-65" class="st4" d="M401,335.4h-4.5v2.3"/>
	<path id="t-66" class="st4" d="M401,335.4l-3.7,2.7l-1.3-1.8"/>
</g>
<g id="c-30">
	<path id="t-67" class="st4" d="M399.3,340.5l-1.4-4.3l-2.2,0.7"/>
	<path id="t-68" class="st4" d="M399.3,340.5l-3.7-2.7l1.3-1.8"/>
</g>
<g id="star-7">
	<g id="c-31">
		<path id="t-69" class="st4" d="M394,340.5l3.7-2.7l-1.3-1.8"/>
		<g id="αCMa-5">
			<path id="t-70" class="st4" d="M394,340.5l1.4-4.3l2.1,0.7"/>
		</g>
	</g>
</g>
<g id="c-32">
	<path id="t-71" class="st4" d="M421.9,329l-1.4,4.3l2.2,0.7"/>
	<path id="t-72" class="st4" d="M421.9,329l1.4,4.3l-2.1,0.7"/>
</g>
<g id="c-33">
	<path id="t-73" class="st4" d="M417.6,332.2l3.7,2.7l1.3-1.8"/>
	<path id="t-74" class="st4" d="M417.6,332.2h4.5v2.3"/>
	<path id="t-75" class="st4" d="M426.2,332.2h-4.5v2.3"/>
	<path id="t-76" class="st4" d="M426.2,332.2l-3.7,2.7l-1.3-1.8"/>
</g>
<g id="c-34">
	<path id="t-77" class="st4" d="M424.6,337.2l-1.4-4.3l-2.2,0.7"/>
	<path id="t-78" class="st4" d="M424.6,337.2l-3.7-2.7l1.3-1.8"/>
</g>
<g id="star-8">
	<g id="c-35">
		<path id="t-79" class="st4" d="M419.2,337.2l3.7-2.7l-1.3-1.8"/>
		<g id="αCMa-6">
			<path id="t-80" class="st4" d="M419.2,337.2l1.4-4.3l2.1,0.7"/>
		</g>
	</g>
</g>
<g id="c-36">
	<path id="t-81" class="st4" d="M444.8,312.8l-1.4,4.3l2.1,0.7"/>
	<path id="t-82" class="st4" d="M444.8,312.8l1.4,4.3l-2.2,0.7"/>
</g>
<g id="c-37">
	<path id="t-83" class="st4" d="M440.5,316l3.7,2.7l1.3-1.8"/>
	<path id="t-84" class="st4" d="M440.5,316h4.5v2.3"/>
	<path id="t-85" class="st4" d="M449.1,316h-4.5v2.3"/>
	<path id="t-86" class="st4" d="M449.1,316l-3.7,2.7l-1.3-1.8"/>
</g>
<g id="c-38">
	<path id="t-87" class="st4" d="M447.5,321l-1.4-4.3l-2.1,0.7"/>
	<path id="t-88" class="st4" d="M447.5,321l-3.7-2.7l1.3-1.8"/>
</g>
<g id="star-9">
	<g id="c-39">
		<path id="t-89" class="st4" d="M442.2,321l3.7-2.7l-1.3-1.8"/>
		<g id="αCMa-7">
			<path id="t-90" class="st4" d="M442.2,321l1.4-4.3l2.2,0.7"/>
		</g>
	</g>
</g>
<g id="c-40">
	<path id="t-91" class="st4" d="M452.4,303l-1.4,4.3l2.2,0.7"/>
	<path id="t-92" class="st4" d="M452.4,303l1.4,4.3l-2.1,0.7"/>
</g>
<g id="c-41">
	<path id="t-93" class="st4" d="M448.1,306.1l3.7,2.7l1.3-1.8"/>
	<path id="t-94" class="st4" d="M448.1,306.1h4.5v2.3"/>
	<path id="t-95" class="st4" d="M456.7,306.1h-4.5v2.3"/>
	<path id="t-96" class="st4" d="M456.7,306.1l-3.7,2.7l-1.3-1.8"/>
</g>
<g id="c-42">
	<path id="t-97" class="st4" d="M455.1,311.2l-1.4-4.3l-2.2,0.7"/>
	<path id="t-98" class="st4" d="M455.1,311.2l-3.7-2.7l1.3-1.8"/>
</g>
<g id="star-10">
	<g id="c-43">
		<path id="t-99" class="st4" d="M449.7,311.2l3.7-2.7l-1.3-1.8"/>
		<g id="αCMa-8">
			<path id="t-100" class="st4" d="M449.7,311.2l1.4-4.3l2.1,0.7"/>
		</g>
	</g>
</g>
<g id="c-44">
	<path id="t-101" class="st4" d="M373.6,279.2l-1.4,4.3l2.2,0.7"/>
	<path id="t-102" class="st4" d="M373.6,279.2l1.4,4.3l-2.1,0.7"/>
</g>
<g id="c-45">
	<path id="t-103" class="st4" d="M369.3,282.3l3.7,2.7l1.3-1.8"/>
	<path id="t-104" class="st4" d="M369.3,282.3h4.5v2.3"/>
	<path id="t-105" class="st4" d="M377.9,282.3h-4.5v2.3"/>
	<path id="t-106" class="st4" d="M377.9,282.3l-3.7,2.7l-1.3-1.8"/>
</g>
<g id="c-46">
	<path id="t-107" class="st4" d="M376.2,287.4l-1.4-4.3l-2.2,0.7"/>
	<path id="t-108" class="st4" d="M376.2,287.4l-3.7-2.7l1.3-1.8"/>
</g>
<g id="star-11">
	<g id="c-47">
		<path id="t-109" class="st4" d="M370.9,287.4l3.7-2.7l-1.3-1.8"/>
		<g id="αCMa-9">
			<path id="t-110" class="st4" d="M370.9,287.4l1.4-4.3l2.2,0.7"/>
		</g>
	</g>
</g>
<g id="c-48">
	<path id="t-111" class="st4" d="M359,268.1l-1.4,4.3l2.2,0.7"/>
	<path id="t-112" class="st4" d="M359,268.1l1.4,4.3l-2.1,0.7"/>
</g>
<g id="c-49">
	<path id="t-113" class="st4" d="M354.7,271.3l3.7,2.7l1.3-1.8"/>
	<path id="t-114" class="st4" d="M354.7,271.3h4.5v2.3"/>
	<path id="t-115" class="st4" d="M363.3,271.3h-4.5v2.3"/>
	<path id="t-116" class="st4" d="M363.3,271.3l-3.7,2.7l-1.3-1.8"/>
</g>
<g id="c-50">
	<path id="t-117" class="st4" d="M361.7,276.4l-1.4-4.3l-2.2,0.7"/>
	<path id="t-118" class="st4" d="M361.7,276.4l-3.7-2.7l1.3-1.8"/>
</g>
<g id="star-12">
	<g id="c-51">
		<path id="t-119" class="st4" d="M356.3,276.4l3.7-2.7l-1.3-1.8"/>
		<g id="αCMa-10">
			<path id="t-120" class="st4" d="M356.3,276.4l1.4-4.3l2.1,0.7"/>
		</g>
	</g>
</g>
<g id="c-52">
	<path id="t-121" class="st4" d="M398.5,208.1l-1.4,4.3l2.2,0.7"/>
	<path id="t-122" class="st4" d="M398.5,208.1l1.4,4.3l-2.2,0.7"/>
</g>
<g id="c-53">
	<path id="t-123" class="st4" d="M394.2,211.3l3.7,2.7l1.3-1.8"/>
	<path id="t-124" class="st4" d="M394.2,211.3h4.5v2.3"/>
	<path id="t-125" class="st4" d="M402.8,211.3h-4.5v2.3"/>
	<path id="t-126" class="st4" d="M402.8,211.3l-3.7,2.7l-1.3-1.8"/>
</g>
<g id="c-54">
	<path id="t-127" class="st4" d="M401.2,216.4l-1.4-4.3l-2.2,0.7"/>
	<path id="t-128" class="st4" d="M401.2,216.4l-3.7-2.7l1.3-1.8"/>
</g>
<g id="star-13">
	<g id="c-55">
		<path id="t-129" class="st4" d="M395.8,216.4l3.7-2.7l-1.3-1.8"/>
		<g id="αCMa-11">
			<path id="t-130" class="st4" d="M395.8,216.4l1.4-4.3l2.2,0.7"/>
		</g>
	</g>
</g>
<g id="c-56">
	<path id="t-131" class="st4" d="M311.1,252.6l-1.4,4.2l2.1,0.7"/>
	<path id="t-132" class="st4" d="M311.1,252.6l1.4,4.2l-2.1,0.7"/>
</g>
<g id="c-57">
	<path id="t-133" class="st4" d="M306.9,255.7l3.6,2.6l1.3-1.8"/>
	<path id="t-134" class="st4" d="M306.9,255.7h4.4v2.2"/>
	<path id="t-135" class="st4" d="M315.3,255.7h-4.4v2.2"/>
	<path id="t-136" class="st4" d="M315.3,255.7l-3.6,2.6l-1.3-1.8"/>
</g>
<g id="c-58">
	<path id="t-137" class="st4" d="M313.7,260.6l-1.4-4.2l-2.1,0.7"/>
	<path id="t-138" class="st4" d="M313.7,260.6l-3.6-2.6l1.3-1.8"/>
</g>
<g id="star-14">
	<g id="c-59">
		<path id="t-139" class="st4" d="M308.5,260.6l3.6-2.6l-1.3-1.8"/>
		<g id="αCMa-12">
			<path id="t-140" class="st4" d="M308.5,260.6l1.4-4.2l2.1,0.7"/>
		</g>
	</g>
</g>
<g id="c-60">
	<path id="t-141" class="st4" d="M464.9,293.8l-1.2,3.5l1.8,0.6"/>
	<path id="t-142" class="st4" d="M464.9,293.8l1.1,3.5l-1.8,0.6"/>
</g>
<g id="c-61">
	<path id="t-143" class="st4" d="M461.4,296.4l3,2.2l1.1-1.5"/>
	<path id="t-144" class="st4" d="M461.4,296.4h3.7v1.9"/>
	<path id="t-145" class="st4" d="M468.5,296.4h-3.7v1.9"/>
	<path id="t-146" class="st4" d="M468.5,296.4l-3,2.2l-1.1-1.5"/>
</g>
<g id="c-62">
	<path id="t-147" class="st4" d="M467.1,300.5L466,297l-1.8,0.6"/>
	<path id="t-148" class="st4" d="M467.1,300.5l-3-2.2l1.1-1.5"/>
</g>
<g id="star-15">
	<g id="c-63">
		<path id="t-149" class="st4" d="M462.7,300.5l3-2.2l-1.1-1.5"/>
		<g id="αCMa-13">
			<path id="t-150" class="st4" d="M462.7,300.5l1.2-3.6l1.8,0.6"/>
		</g>
	</g>
</g>
<g id="c-64">
	<path id="t-151" class="st4" d="M393.5,242l-1.1,3.6l1.8,0.6"/>
	<path id="t-152" class="st4" d="M393.5,242l1.2,3.6l-1.8,0.6"/>
</g>
<g id="c-65">
	<path id="t-153" class="st4" d="M390,244.5l3,2.2l1.1-1.5"/>
	<path id="t-154" class="st4" d="M390,244.5h3.7v1.9"/>
	<path id="t-155" class="st4" d="M397.1,244.5h-3.7v1.9"/>
	<path id="t-156" class="st4" d="M397.1,244.5l-3,2.2l-1.1-1.5"/>
</g>
<g id="c-66">
	<path id="t-157" class="st4" d="M395.7,248.7l-1.2-3.6l-1.8,0.6"/>
	<path id="t-158" class="st4" d="M395.7,248.7l-3-2.2l1.1-1.5"/>
</g>
<g id="star-16">
	<g id="c-67">
		<path id="t-159" class="st4" d="M391.3,248.7l3-2.2l-1.1-1.5"/>
		<g id="αCMa-14">
			<path id="t-160" class="st4" d="M391.3,248.7l1.1-3.6l1.8,0.6"/>
		</g>
	</g>
</g>
<g id="c-68">
	<path id="t-161" class="st4" d="M421.6,317.7l-1.2,3.5l1.8,0.6"/>
	<path id="t-162" class="st4" d="M421.6,317.7l1.1,3.5l-1.8,0.6"/>
</g>
<g id="c-69">
	<path id="t-163" class="st4" d="M418,320.3l3,2.2l1.1-1.5"/>
	<path id="t-164" class="st4" d="M418,320.3h3.7v1.9"/>
	<path id="t-165" class="st4" d="M425.1,320.3h-3.7v1.9"/>
	<path id="t-166" class="st4" d="M425.1,320.3l-3,2.2l-1.1-1.5"/>
</g>
<g id="c-70">
	<path id="t-167" class="st4" d="M423.8,324.4l-1.2-3.5l-1.8,0.6"/>
	<path id="t-168" class="st4" d="M423.8,324.4l-3-2.2l1.1-1.5"/>
</g>
<g id="star-17">
	<g id="c-71">
		<path id="t-169" class="st4" d="M419.4,324.4l3-2.2l-1.1-1.5"/>
		<g id="αCMa-15">
			<path id="t-170" class="st4" d="M419.4,324.4l1.2-3.5l1.8,0.6"/>
		</g>
	</g>
</g>
<g id="c-72">
	<path id="t-171" class="st4" d="M434.8,319.9l-1.2,3.6l1.8,0.6"/>
	<path id="t-172" class="st4" d="M434.8,319.9l1.1,3.6l-1.8,0.6"/>
</g>
<g id="c-73">
	<path id="t-173" class="st4" d="M431.2,322.5l3,2.2l1.1-1.5"/>
	<path id="t-174" class="st4" d="M431.2,322.5h3.7v1.9"/>
	<path id="t-175" class="st4" d="M438.3,322.5h-3.7v1.9"/>
	<path id="t-176" class="st4" d="M438.3,322.5l-3,2.2l-1.1-1.5"/>
</g>
<g id="c-74">
	<path id="t-177" class="st4" d="M436.9,326.7l-1.1-3.5l-1.8,0.6"/>
	<path id="t-178" class="st4" d="M436.9,326.7l-3-2.2l1.1-1.5"/>
</g>
<g id="star-18">
	<g id="c-75">
		<path id="t-179" class="st4" d="M432.5,326.7l3-2.2l-1.1-1.5"/>
		<g id="αCMa-16">
			<path id="t-180" class="st4" d="M432.5,326.7l1.1-3.5l1.8,0.6"/>
		</g>
	</g>
</g>
<g id="c-76">
	<path id="t-181" class="st4" d="M422.2,342.7l-1.1,3.6l1.8,0.6"/>
	<path id="t-182" class="st4" d="M422.2,342.7l1.2,3.6l-1.8,0.6"/>
</g>
<g id="c-77">
	<path id="t-183" class="st4" d="M418.6,345.3l3,2.2l1.1-1.5"/>
	<path id="t-184" class="st4" d="M418.6,345.3h3.7v1.9"/>
	<path id="t-185" class="st4" d="M425.8,345.3H422v1.9"/>
	<path id="t-186" class="st4" d="M425.8,345.3l-3,2.2l-1.1-1.5"/>
</g>
<g id="c-78">
	<path id="t-187" class="st4" d="M424.4,349.5l-1.2-3.5l-1.8,0.6"/>
	<path id="t-188" class="st4" d="M424.4,349.5l-3-2.2l1.1-1.5"/>
</g>
<g id="star-19">
	<g id="c-79">
		<path id="t-189" class="st4" d="M420,349.5l3-2.2l-1.1-1.5"/>
		<g id="αCMa-17">
			<path id="t-190" class="st4" d="M420,349.5l1.1-3.5l1.8,0.6"/>
		</g>
	</g>
</g>
<g id="c-80">
	<path id="t-191" class="st4" d="M407.6,321.9l-1.2,3.6l1.8,0.6"/>
	<path id="t-192" class="st4" d="M407.6,321.9l1.1,3.6L407,326"/>
</g>
<g id="c-81">
	<path id="t-193" class="st4" d="M404,324.4l3,2.2l1.1-1.5"/>
	<path id="t-194" class="st4" d="M404,324.4h3.7v1.9"/>
	<path id="t-195" class="st4" d="M411.1,324.4h-3.7v1.9"/>
	<path id="t-196" class="st4" d="M411.1,324.4l-3,2.2l-1.1-1.5"/>
</g>
<g id="c-82">
	<path id="t-197" class="st4" d="M409.8,328.6l-1.1-3.5l-1.8,0.6"/>
	<path id="t-198" class="st4" d="M409.8,328.6l-3-2.2l1.1-1.5"/>
</g>
<g id="star-20">
	<g id="c-83">
		<path id="t-199" class="st4" d="M405.4,328.6l3-2.2l-1.1-1.5"/>
		<g id="αCMa-18">
			<path id="t-200" class="st4" d="M405.4,328.6l1.2-3.5l1.8,0.6"/>
		</g>
	</g>
</g>
<g id="c-84">
	<path id="t-201" class="st4" d="M386.7,319l-1.1,3.5l1.8,0.6"/>
	<path id="t-202" class="st4" d="M386.7,319l1.2,3.5l-1.8,0.6"/>
</g>
<g id="c-85">
	<path id="t-203" class="st4" d="M383.2,321.6l3,2.2l1.1-1.5"/>
	<path id="t-204" class="st4" d="M383.2,321.6h3.7v1.9"/>
	<path id="t-205" class="st4" d="M390.3,321.6h-3.7v1.9"/>
	<path id="t-206" class="st4" d="M390.3,321.6l-3,2.2l-1.1-1.5"/>
</g>
<g id="c-86">
	<path id="t-207" class="st4" d="M388.9,325.8l-1.2-3.5l-1.8,0.6"/>
	<path id="t-208" class="st4" d="M388.9,325.8l-3-2.2l1.1-1.5"/>
</g>
<g id="star-21">
	<g id="c-87">
		<path id="t-209" class="st4" d="M384.5,325.8l3-2.2l-1.1-1.5"/>
		<g id="αCMa-19">
			<path id="t-210" class="st4" d="M384.5,325.8l1.2-3.5l1.8,0.6"/>
		</g>
	</g>
</g>
<g id="c-88">
	<path id="t-211" class="st4" d="M293.8,290.5l-1.3,3.9l1.9,0.6"/>
	<path id="t-212" class="st4" d="M293.8,290.5l1.3,3.9l-1.9,0.6"/>
</g>
<g id="c-89">
	<path id="t-213" class="st4" d="M289.9,293.3l3.3,2.4l1.2-1.6"/>
	<path id="t-214" class="st4" d="M289.9,293.3h4.1v2"/>
	<path id="t-215" class="st4" d="M297.7,293.3h-4.1v2"/>
	<path id="t-216" class="st4" d="M297.7,293.3l-3.3,2.4l-1.2-1.6"/>
</g>
<g id="c-90">
	<path id="t-217" class="st4" d="M296.2,297.9l-1.3-3.9l-1.9,0.6"/>
	<path id="t-218" class="st4" d="M296.2,297.9l-3.3-2.4l1.2-1.6"/>
</g>
<g id="star-22">
	<g id="c-91">
		<path id="t-219" class="st4" d="M291.4,297.9l3.3-2.4l-1.2-1.6"/>
		<g id="αCMa-20">
			<path id="t-220" class="st4" d="M291.4,297.9l1.3-3.9l1.9,0.6"/>
		</g>
	</g>
</g>
<g id="c-92">
	<path id="t-221" class="st4" d="M289.9,303.9l-1.2,3.6l1.8,0.6"/>
	<path id="t-222" class="st4" d="M289.9,303.9l1.1,3.6l-1.8,0.6"/>
</g>
<g id="c-93">
	<path id="t-223" class="st4" d="M286.4,306.5l3,2.2l1.1-1.5"/>
	<path id="t-224" class="st4" d="M286.4,306.5h3.7v1.9"/>
	<path id="t-225" class="st4" d="M293.5,306.5h-3.7v1.9"/>
	<path id="t-226" class="st4" d="M293.5,306.5l-3,2.2l-1.1-1.5"/>
</g>
<g id="c-94">
	<path id="t-227" class="st4" d="M292.1,310.7l-1.1-3.6l-1.8,0.6"/>
	<path id="t-228" class="st4" d="M292.1,310.7l-3-2.2l1.1-1.5"/>
</g>
<g id="star-23">
	<g id="c-95">
		<path id="t-229" class="st4" d="M287.7,310.7l3-2.2l-1.1-1.5"/>
		<g id="αCMa-21">
			<path id="t-230" class="st4" d="M287.7,310.7l1.2-3.5l1.8,0.6"/>
		</g>
	</g>
</g>
<g id="c-96">
	<path id="t-231" class="st4" d="M346.3,280l-1.2,3.6l1.8,0.6"/>
	<path id="t-232" class="st4" d="M346.3,280l1.1,3.6l-1.8,0.6"/>
</g>
<g id="c-97">
	<path id="t-233" class="st4" d="M342.7,282.6l3,2.2l1.1-1.5"/>
	<path id="t-234" class="st4" d="M342.7,282.6h3.7v1.9"/>
	<path id="t-235" class="st4" d="M349.8,282.6h-3.7v1.9"/>
	<path id="t-236" class="st4" d="M349.8,282.6l-3,2.2l-1.1-1.5"/>
</g>
<g id="c-98">
	<path id="t-237" class="st4" d="M348.5,286.8l-1.1-3.5l-1.8,0.6"/>
	<path id="t-238" class="st4" d="M348.5,286.8l-3-2.2l1.1-1.5"/>
</g>
<g id="star-24">
	<g id="c-99">
		<path id="t-239" class="st4" d="M344.1,286.8l3-2.2l-1.1-1.5"/>
		<g id="αCMa-22">
			<path id="t-240" class="st4" d="M344.1,286.8l1.1-3.5l1.8,0.6"/>
		</g>
	</g>
</g>
<g id="c-100">
	<path id="t-241" class="st4" d="M279.5,272.5l-0.7,2.2l1.1,0.4"/>
	<path id="t-242" class="st4" d="M279.5,272.5l0.7,2.2l-1.1,0.4"/>
</g>
<g id="c-101">
	<path id="t-243" class="st4" d="M277.4,274.1l1.8,1.3l0.7-0.9"/>
	<path id="t-244" class="st4" d="M277.4,274.1h2.3v1.1"/>
	<path id="t-245" class="st4" d="M281.7,274.1h-2.3v1.1"/>
	<path id="t-246" class="st4" d="M281.7,274.1l-1.8,1.3l-0.7-0.9"/>
</g>
<g id="c-102">
	<path id="t-247" class="st4" d="M280.9,276.6l-0.7-2.2l-1.1,0.4"/>
	<path id="t-248" class="st4" d="M280.9,276.6l-1.9-1.3l0.7-0.9"/>
</g>
<g id="star-25">
	<g id="c-103">
		<path id="t-249" class="st4" d="M278.2,276.6l1.8-1.3l-0.7-0.9"/>
		<g id="αCMa-23">
			<path id="t-250" class="st4" d="M278.2,276.6l0.7-2.2l1.1,0.4"/>
		</g>
	</g>
</g>
<g id="c-104">
	<path id="t-251" class="st4" d="M352.6,289.8l-0.7,2.2l1.1,0.4"/>
	<path id="t-252" class="st4" d="M352.6,289.8l0.7,2.2l-1.1,0.4"/>
</g>
<g id="c-105">
	<path id="t-253" class="st4" d="M350.4,291.3l1.8,1.3l0.7-0.9"/>
	<path id="t-254" class="st4" d="M350.4,291.3h2.3v1.1"/>
	<path id="t-255" class="st4" d="M354.7,291.3h-2.3v1.1"/>
	<path id="t-256" class="st4" d="M354.7,291.3l-1.8,1.3l-0.7-0.9"/>
</g>
<g id="c-106">
	<path id="t-257" class="st4" d="M353.9,293.9l-0.7-2.2l-1.1,0.4"/>
	<path id="t-258" class="st4" d="M353.9,293.9l-1.8-1.3l0.7-0.9"/>
</g>
<g id="star-26">
	<g id="c-107">
		<path id="t-259" class="st4" d="M351.2,293.9l1.8-1.3l-0.7-0.9"/>
		<g id="αCMa-24">
			<path id="t-260" class="st4" d="M351.2,293.9l0.7-2.2l1.1,0.4"/>
		</g>
	</g>
</g>
<g id="c-108">
	<path id="t-261" class="st4" d="M358.9,348.8l-0.5,1.6l0.8,0.3"/>
	<path id="t-262" class="st4" d="M358.9,348.8l0.5,1.6l-0.8,0.3"/>
</g>
<g id="c-109">
	<path id="t-263" class="st4" d="M357.3,350l1.4,1l0.5-0.7"/>
	<path id="t-264" class="st4" d="M357.3,350h1.7v0.9"/>
	<path id="t-265" class="st4" d="M360.6,350h-1.7v0.9"/>
	<path id="t-266" class="st4" d="M360.6,350l-1.4,1l-0.5-0.7"/>
</g>
<g id="c-110">
	<path id="t-267" class="st4" d="M359.9,352l-0.5-1.6l-0.8,0.3"/>
	<path id="t-268" class="st4" d="M359.9,352l-1.4-1l0.5-0.7"/>
</g>
<g id="star-27">
	<g id="c-111">
		<path id="t-269" class="st4" d="M357.9,352l1.4-1l-0.5-0.7"/>
		<g id="αCMa-25">
			<path id="t-270" class="st4" d="M357.9,352l0.5-1.6l0.8,0.3"/>
		</g>
	</g>
</g>
<path class="st0" d="M477.3,274.3c1.5-2.9,0.6-6.4-2-7.8s-6-0.1-7.5,2.8s-0.6,6.4,2,7.8S475.7,277.3,477.3,274.3z M474.5,268.8
	c3.4,2.3-0.8,8.3-4.1,6S471.2,266.5,474.5,268.8z"/>
<path class="st0" d="M286.3,203.3c-0.9-1.3-2.4-2.1-4-2.2l-6,0.1l0.2,12c0,0,4.8,0,6-0.1c1.5-0.2,2.8-0.9,3.7-2.1
	c0.7-1.1,1.1-2.4,1-3.7C287.4,205.8,287,204.4,286.3,203.3z M281.4,210.9h-2.7c0,0-0.1-6.1-0.1-7.5h3.5c1.3,0.1,2.5,0.9,2.9,2.2
	c0.1,0.7,0.2,1.4,0.2,2.2c-0.1,0.9-0.5,1.7-1.1,2.3C283.3,210.6,282.4,210.9,281.4,210.9L281.4,210.9z"/>
<path class="st0" d="M269.9,208.5c0.8-0.7,1.3-1.6,1.6-2.6c0.2-1.1-0.2-2.3-1-3.1c-0.6-0.7-1.5-1.1-2.5-1.1
	c-1.2,0.1-7.4,0.5-7.4,0.5l0.7,12l2.2-0.2l-0.3-4.4l3.9-0.3l0.9-0.1c0.6,1,1.1,2,1.3,3.2c0,0.4,0.1,0.9,0.1,1.3h2.2
	c0-1.2-0.2-2.3-0.6-3.4C270.7,209.6,270.4,209,269.9,208.5z M268.6,206.6c-0.6,0.3-1.2,0.4-1.8,0.4l-3.7,0.2c0,0-0.1-2.1-0.2-3.1
	c0.6,0,3.5-0.2,3.6-0.2c0.6,0,1.3-0.1,1.3-0.1c0.4,0,0.7,0.2,1,0.4c0.3,0.2,0.5,0.6,0.5,1C269.2,205.8,268.9,206.3,268.6,206.6z"/>
<path class="st0" d="M396.7,226.7c0.5-3.3-1.6-6.3-4.5-6.7s-5.7,1.9-6.2,5.2s1.6,6.3,4.5,6.7S396.2,230,396.7,226.7z M392.2,222.4
	c4,1.1,2.1,8.1-1.9,7.1S388.3,221.4,392.2,222.4z"/>
<path class="st0" d="M379.4,222.1c1-0.4,1.8-1.1,2.3-1.9c0.9-1.9,0.2-4.1-1.7-5.1c-0.1,0-0.2-0.1-0.3-0.1c-1.2-0.4-7.1-1.9-7.1-1.9
	l-3.3,11.5l2.2,0.6l1.1-4.3l3.7,1l0.9,0.3c0.3,1.1,0.3,2.3,0.2,3.4c-0.1,0.4-0.2,0.8-0.4,1.3l2,0.7c0.4-1.1,0.6-2.2,0.6-3.4
	C379.8,223.4,379.6,222.7,379.4,222.1z M378.8,219.9c-0.6,0.1-1.2,0-1.8-0.2l-3.6-1l0.8-3c0.5,0.2,3.4,0.9,3.5,0.9
	c0.6,0.2,1.2,0.3,1.2,0.3c0.3,0.2,0.6,0.4,0.8,0.7c0.2,0.3,0.3,0.8,0.1,1.1C379.6,219.3,379.2,219.7,378.8,219.9z"/>
<path class="st0" d="M423,239.7c1-0.3,1.8-0.9,2.5-1.7c1.1-1.8,0.5-4.1-1.3-5.2c-0.1,0-0.1-0.1-0.2-0.1c-1.1-0.4-6.9-2.6-6.9-2.6
	l-4.3,11.2l2.1,0.8l1.5-4.2l3.6,1.3l0.9,0.3c0.2,1.1,0.1,2.3-0.1,3.4c-0.1,0.4-0.3,0.8-0.5,1.2l2,0.9c0.5-1,0.8-2.2,0.9-3.3
	C423.3,241.1,423.2,240.4,423,239.7z M422.5,237.5c-0.6,0-1.2-0.1-1.8-0.4l-3.5-1.3c0,0,0.7-2,1-2.9c0.5,0.2,3.3,1.2,3.4,1.2
	c0.5,0.2,1.2,0.4,1.2,0.4c0.3,0.2,0.6,0.5,0.7,0.8c0.2,0.4,0.2,0.8,0,1.1C423.4,237,423,237.3,422.5,237.5z"/>
<path class="st0" d="M364.6,218.1c0.9-0.4,1.7-1.1,2.3-2c0.9-1.9,0.1-4.1-1.8-5c-0.1,0-0.2-0.1-0.2-0.1c-1.2-0.3-7.1-1.8-7.1-1.8
	l-3,11.6l2.2,0.5l1-4.3l3.8,0.9l0.9,0.2 M364,215.9c-0.6,0.1-1.2,0-1.8-0.2l-3.6-0.9c0,0,0.5-2,0.7-3c0.5,0.2,3.4,0.8,3.5,0.9
	c0.6,0.2,1.2,0.3,1.2,0.3c0.3,0.1,0.6,0.4,0.8,0.7c0.2,0.3,0.3,0.8,0.1,1.1C364.7,215.3,364.4,215.7,364,215.9L364,215.9z"/>
<path class="st0" d="M409.3,233.2c-0.3-0.1-0.6-0.2-1-0.3c-0.9,1.8-3,3-4.9,1.8c-3.4-2.3,0.8-8.3,4.1-6c0.7,0.5,1.2,1.3,1.2,2.1
	c0.5,0.2,1.1,0.3,1.6,0.6l0.6,0.3c0.2-2.2-0.8-4.3-2.8-5.3c-2.6-1.4-6-0.1-7.5,2.8s-0.6,6.4,2,7.8s6,0.1,7.6-2.8
	c0.1-0.1,0.1-0.2,0.2-0.4L409.3,233.2z"/>
<path class="st5" d="M715.6,504.6H-1V0.6h720v504H715.6z M7.4,498.4h704.7V8.6H7.4V498.4z"/>
</svg>
