<?xml version="1.0" encoding="utf-8"?>
<!-- Generator: Adobe Illustrator 22.0.1, SVG Export Plug-In . SVG Version: 6.00 Build 0)  -->
<svg version="1.1" id="Layer_1" xmlns="http://www.w3.org/2000/svg" xmlns:xlink="http://www.w3.org/1999/xlink" x="0px" y="0px"
	 viewBox="0 0 63 42" style="enable-background:new 0 0 63 42;" xml:space="preserve">
<style type="text/css">
	.st0{fill:#FFBE29;}
	.st1{fill:#FFB700;}
	.st2{fill:#FF5B00;}
	.st3{fill:#005641;}
	.st4{fill:#8D2029;}
</style>
<g transform="matrix(-1,0,0,1,1585,0)">
	<g id="leaf_1_">
		<path class="st0" d="M26.2,32.6c0,0-0.4,1-0.8,1.4c-0.6,0.6-1.8,0.5-2.3,1.2c-0.6,0.8,0,1.9,0,2v0.6c0,0,0.4,0,0.6,0
			c0.3,0.1,0.4,0.3,0.8,0.3c1.2-0.1,1.2-1.6,1.2-2.8c0.1-0.5,0.2-1.1,0.3-1.6C26.2,33.3,26.2,32.6,26.2,32.6L26.2,32.6z"/>
		<path d="M24.5,38.1c-0.3,0-0.4-0.1-0.5-0.2c-0.1-0.1-0.1-0.1-0.2-0.1c-0.2,0-0.6,0-0.6,0h-0.1v-0.6v-0.1c-0.1-0.3-0.5-1.2,0-1.9
			c0.3-0.4,0.8-0.5,1.2-0.7c0.4-0.1,0.8-0.3,1.1-0.5c0.4-0.4,0.7-1.3,0.7-1.3h0.1h-0.1h0.1c0,0.1,0,0.7-0.1,1.1
			c0,0.2-0.1,0.4-0.1,0.6c-0.1,0.3-0.1,0.7-0.2,1c0,0.1,0,0.2,0,0.3C25.8,36.7,25.8,38,24.5,38.1C24.6,38.1,24.5,38.1,24.5,38.1z
			 M23.2,37.7c0.1,0,0.4,0,0.5,0s0.2,0.1,0.3,0.1c0.1,0.1,0.3,0.2,0.6,0.2c1.1-0.1,1.1-1.3,1.2-2.4c0-0.1,0-0.2,0-0.3l0,0
			c0-0.3,0.1-0.6,0.2-1c0-0.2,0.1-0.4,0.1-0.6c0-0.2,0.1-0.5,0.1-0.7c-0.1,0.3-0.4,0.8-0.6,1.1c-0.3,0.3-0.7,0.4-1.1,0.6
			c-0.5,0.2-0.9,0.3-1.2,0.7c-0.5,0.6-0.1,1.4,0,1.7c0,0.1,0.1,0.1,0.1,0.2L23.2,37.7z"/>
	</g>
</g>
<g transform="matrix(1,0,0,-1,0,600)">
	<g id="leaf_2_">
		<path class="st0" d="M64.2,554.8C64.2,554.8,64.2,554.7,64.2,554.8c0.1-0.1,0.1-0.1,0.2-0.1c0,0,0-0.1,0-0.1v0c0,0,0,0,0,0
			c0,0,0,0,0,0c-0.1,0-0.1,0.1-0.1,0.1C64.2,554.7,64.2,554.7,64.2,554.8C64.2,554.8,64.2,554.8,64.2,554.8L64.2,554.8z"/>
		<path d="M64.2,554.8L64.2,554.8L64.2,554.8C64.2,554.8,64.2,554.8,64.2,554.8C64.2,554.7,64.2,554.7,64.2,554.8c0-0.1,0-0.1,0-0.1
			c0,0,0,0,0,0c0-0.1,0-0.1,0.1-0.1c0,0,0,0,0,0c0,0,0,0,0,0c0,0,0,0,0,0h0v0v0c0,0,0,0.1,0,0.1c0,0,0,0-0.1,0
			C64.3,554.7,64.2,554.7,64.2,554.8C64.2,554.7,64.2,554.8,64.2,554.8z M64.3,554.5L64.3,554.5c-0.1,0-0.1,0.1-0.1,0.1c0,0,0,0,0,0
			l0,0c0,0,0,0,0,0.1c0,0,0,0,0,0c0,0,0,0,0,0c0,0,0,0,0-0.1c0,0,0,0,0.1,0c0,0,0,0,0.1,0C64.3,554.6,64.3,554.6,64.3,554.5
			C64.3,554.6,64.3,554.6,64.3,554.5L64.3,554.5C64.3,554.5,64.3,554.5,64.3,554.5C64.3,554.5,64.3,554.5,64.3,554.5
			C64.3,554.5,64.3,554.5,64.3,554.5z"/>
	</g>
</g>
<g transform="matrix(-1,0,0,-1,1585,600)">
	<g id="leaf_3_">
		<path class="st0" d="M26.2,9.4c0,0-0.4-1-0.8-1.4c-0.6-0.6-1.8-0.5-2.3-1.2c-0.6-0.8,0-1.9,0-2V4.2c0,0,0.4,0,0.6,0
			c0.3-0.1,0.4-0.3,0.8-0.3c1.2,0.1,1.2,1.6,1.2,2.8c0.1,0.5,0.2,1.1,0.3,1.6C26.2,8.7,26.2,9.4,26.2,9.4L26.2,9.4z"/>
		<path d="M26.3,9.5h-0.1V9.4c0-0.1-0.4-1-0.7-1.3c-0.3-0.3-0.7-0.4-1.1-0.5c-0.5-0.2-1-0.3-1.2-0.7c-0.5-0.7-0.2-1.6,0-1.9V4.9V4.3
			h0.1c0,0,0.4,0,0.6,0c0.1,0,0.2-0.1,0.2-0.1C24.2,4.1,24.4,4,24.7,4c1.2,0.1,1.2,1.4,1.3,2.6c0,0.1,0,0.2,0,0.3
			c0,0.3,0.1,0.6,0.2,1c0,0.2,0.1,0.4,0.1,0.6C26.2,8.7,26.2,9.3,26.3,9.5L26.3,9.5z M23.2,4.3v0.5c0,0,0,0.1-0.1,0.2
			c-0.1,0.3-0.5,1.1,0,1.7c0.3,0.4,0.7,0.5,1.2,0.7c0.4,0.1,0.8,0.3,1.1,0.6c0.3,0.2,0.6,0.7,0.7,1c0-0.2,0-0.5-0.1-0.7
			c0-0.1,0-0.3-0.1-0.6s-0.1-0.7-0.2-1l0,0c0-0.1,0-0.2,0-0.3c-0.1-1.1-0.1-2.3-1.2-2.4c-0.3,0-0.4,0.1-0.6,0.2
			c-0.1,0.1-0.2,0.1-0.3,0.1C23.6,4.3,23.3,4.3,23.2,4.3z"/>
	</g>
</g>
<rect id="rect628" class="st1" width="63" height="42"/>
<rect id="rect626" x="11.3" y="3.5" class="st2" width="8.7" height="35"/>
<rect id="rect625" x="2.6" y="3.5" class="st3" width="8.7" height="35"/>
<g>
	<path class="st1" d="M60.1,35.2c-0.5-0.7-1.7-0.6-2.3-1.2c-0.4-0.4-0.8-1.4-0.8-1.4s0,0.6,0.1,1.1c0.1,0.5,0.2,1.1,0.3,1.6
		c0.1,1.2,0,2.7,1.2,2.8c0.5,0,0.6-0.2,0.8-0.3c0.2,0,0.6,0,0.6,0l0-0.6C60,37.1,60.7,36,60.1,35.2z"/>
	<path class="st1" d="M25.8,6.7c-0.1-1.2,0-2.7-1.2-2.8c-0.5,0-0.6,0.2-0.8,0.3c-0.2,0-0.6,0-0.6,0l0,0.6c0,0.1-0.7,1.2,0,2
		c0.5,0.7,1.7,0.6,2.3,1.2c0.4,0.4,0.8,1.4,0.8,1.4s0-0.6-0.1-1.1C26,7.8,25.9,7.2,25.8,6.7z"/>
	<path class="st1" d="M57.8,8c0.6-0.6,1.8-0.5,2.3-1.2c0.6-0.8,0-1.9,0-2l0-0.6c0,0-0.4,0-0.6,0c-0.3-0.1-0.4-0.3-0.8-0.3
		c-1.2,0.1-1.2,1.6-1.2,2.8c-0.1,0.5-0.2,1.1-0.3,1.6C57,8.7,57,9.4,57,9.4S57.4,8.4,57.8,8z"/>
	<path class="st1" d="M25.4,34c-0.6,0.6-1.8,0.5-2.3,1.2c-0.6,0.8,0,1.9,0,2l0,0.6c0,0,0.4,0,0.6,0c0.3,0.1,0.4,0.3,0.8,0.3
		c1.2-0.1,1.2-1.6,1.2-2.8c0.1-0.5,0.2-1.1,0.3-1.6c0.1-0.4,0.1-1.1,0.1-1.1S25.8,33.6,25.4,34z"/>
</g>
<path id="path3018" class="st1" d="M35.8,33.6l0.2-0.2l0.1,0.2c0.1,0.2,0.5,0.2,0.7,0l0.2-0.2l0.2,0.2c0.2,0.2,0.6,0.2,0.8,0
	c0.2-0.2,0.2-0.2,0.3,0c0.1,0.1,0.3,0.2,0.4,0.2c0.3,0.1,0.3,0.1,0.5-0.3c0.2-0.3,0.2-0.4,0.1-0.7c0-0.2,0-0.5-0.1-0.7
	c0-0.3,0-0.3,0.4-0.5c0.2-0.1,0.4-0.2,0.5-0.3c0.1-0.1,0.6-0.7,0.6-0.9c0,0-0.2-0.1-0.4-0.1c-0.8-0.1-0.9-0.7-0.4-1.7
	c0.8-1.7,1.3-3.3,1.3-4.4c0-0.5,0-0.6,0.1-0.5c0.2,0.4-0.1,2.2-0.6,3.4l-0.2,0.5l0.2-0.1c0.1,0,0.7-0.4,1.4-0.8
	c1.8-1.1,2.4-1.3,3.6-1.2c1,0.1,1.4,0.3,2.1,1.3c0.4,0.5,0.7,0.9,1.4,1.4c1.4,1.1,1.4,1.2,1.5,2.6c0.1,1.4,0,1.4-0.7,1.7
	c-0.7,0.2-1.1,0.6-1.2,1.2c-0.1,0.3,0.1,0.3,0.4,0l0.2-0.2l0.1,0.2c0.1,0.3,0.4,0.3,0.7,0l0.2-0.2l0.2,0.2c0.3,0.3,0.7,0.2,0.8-0.2
	c0-0.1,0.1-0.1,0.2,0.1c0.2,0.3,0.8,0.4,0.8,0.2c0-0.1,0-0.3-0.1-0.4c-0.3-0.7-0.4-1-0.4-1.3c0-0.5,0.1-0.7,0.5-1.1
	c0.5-0.5,0.7-1.1,0.3-1.1c-0.2,0-0.5-0.3-0.6-0.7c-0.3-0.9-0.3-2,0.2-3.8c0.5-1.8,0.5-2.1,0.5-3.3c0-1,0-1.1-0.2-1.7
	c-0.1-0.3-0.3-0.8-0.5-1.1l-0.3-0.5l0.3-0.4c1.1-1.2,0.8-3.1-0.4-3.8c-0.4-0.2-0.5-0.2-1.2-0.2c-0.4,0-1,0.1-1.4,0.2
	c-0.4,0.1-1,0.2-1.4,0.2c-0.7,0-0.8,0-1-0.2c-0.3-0.2-0.3-0.3-0.4-0.7c0-0.1-0.1-0.2-0.1-0.2c-0.1,0-0.5,0.4-0.6,0.7
	c0,0.1-0.1,0.1-0.1,0c-0.1-0.1-0.1-0.3-0.2-0.5c-0.1-0.4,0-0.8,0.4-1l0.3-0.2l-0.2-0.1c-0.4-0.3-1-0.1-1.2,0.4
	c-0.1,0.1-0.1,0.3-0.2,0.3c0,0-0.1-0.1-0.3-0.3c-0.5-0.6-0.3-1.5,0.3-1.8c0.3-0.1,0.6,0,0.7,0.3c0.1,0.4,0.4-0.1,0.3-0.7
	c0-0.4,0-0.4,0.2-0.4c0.3,0,0.8,0.4,1,0.8c0.2,0.4,0.2,1,0,1.5l-0.2,0.4l0.2-0.1c0.3-0.1,0.6-0.4,0.8-0.7c0.2-0.3,0.2-1,0-1.4
	c-0.1-0.3-0.1-0.4,0.1-0.3c0.4,0.2,0.6,0.4,0.7,0.8c0.1,0.3,0.1,0.4,0.1,0.8c0,0.2-0.1,0.5-0.2,0.6c-0.1,0.2-0.1,0.2,0,0.2
	c0.2,0,0.5-0.2,0.7-0.4c0.1-0.1,0.2-0.3,0.2-0.5l0.1-0.3l0.1,0.3c0.2,0.4,0.4,0.7,0.8,0.9c0.4,0.2,0.5,0.2,0.3,0
	c-0.1-0.1-0.4-1.1-0.3-1.2c0-0.1,0.6,0.5,1.2,1.2c0.6,0.7,0.9,0.9,1.4,0.9c0.7,0,1-0.8,0.7-1.5c-0.2-0.4-0.6-0.5-0.8-0.1
	c-0.1,0.2-0.1,0.3-0.1,0.5c0,0.2,0,0.2-0.1,0.2c-0.2,0-0.6-0.3-1.2-1.1c-1-1.1-2.3-2.1-3.2-2.5c-0.6-0.2-1.8-0.3-2.4-0.2
	c-0.6,0.2-1.4,0.6-1.8,1.2c-0.7,0.9-0.7,2.1,0,3.2l0.2,0.3l-0.1,0.3c-0.2,0.4-0.2,1,0,1.4c0.1,0.2,0.2,0.3,0.2,0.3
	c0,0,0-0.1,0.1-0.3c0-0.4,0.1-0.6,0.3-0.7c0.2-0.1,0.3,0,1.1,0.4c0.9,0.5,2.3,0.5,3.8,0.1c0.7-0.2,1.6-0.2,2,0
	c0.7,0.4,0.9,1.4,0.3,2.2c-0.2,0.3-0.4,0.5-1.2,0.7c-0.5,0.2-0.7,0.2-1.9,0.2c-1.1,0-1.4,0-1.9,0.1c-0.5,0.1-0.8,0.1-2.1,0.1
	L43,18.5l0.2,0.2c0.1,0.1,0.2,0.2,0.3,0.3c0.1,0.1,0.1,0.1-0.1,0.2c-0.1,0.1-0.3,0.1-0.5,0.1h-0.3l0,0.4c0,0.2,0,0.4,0,0.5
	c0,0.1,0,0.1-0.1,0.1c-0.1,0-0.3-0.1-0.4-0.1c-0.2,0-0.4-0.1-0.5-0.2c-0.2-0.1-0.2-0.1-0.3,0c-0.1,0.1-0.6,0.7-0.7,0.7
	c0,0,0-0.1,0-0.2c0-0.1-0.1-0.5-0.2-0.8c-0.1-0.3-0.2-0.6-0.2-0.7c0-0.1-0.1-0.1-0.1,0c0,0.1-0.1,0.3-0.1,0.4c0,0.2-0.1,0.4-0.2,0.6
	l-0.1,0.3L39.6,20c-0.1-0.3-0.3-0.6-0.3-0.6c0,0-0.1,0.1-0.1,0.2c0,0.2-0.4,0.8-0.5,0.8c0,0-0.1-0.2-0.1-0.4c0-0.2,0-0.4-0.1-0.4
	s-0.1,0.1-0.1,0.1c0,0.2-0.3,0.7-0.4,0.7c0,0-0.1,0.1-0.2,0.1c-0.1,0.2-0.2,0.2-0.2,0c0-0.1,0-0.3,0-0.5s-0.1-0.4-0.1-0.4
	c0-0.1-0.1,0-0.4,0.1c-0.4,0.2-0.5,0.1-0.3-0.1c0.1-0.1,0.2-0.4,0.3-0.6c0.1-0.3,0.2-0.5,0.2-0.5c0.1,0,0.1,0,0,0.2
	c-0.1,0.1-0.1,0.3-0.1,0.3c0,0.1,0,0.2-0.1,0.4C37,19.5,37,19.6,37,19.6c0,0,0.2-0.1,0.3-0.2l0.3-0.2l0,0.2c0,0.1,0,0.4,0.1,0.6
	l0.1,0.4l0.2-0.1c0.2-0.1,0.4-0.6,0.4-1c0-0.2,0.1-0.2,0.1,0c0,0.1,0.1,0.3,0.1,0.5l0.1,0.4l0.1-0.2c0.1-0.1,0.2-0.4,0.2-0.6
	c0.1-0.3,0.2-0.5,0.2-0.2c0,0.2,0.3,0.8,0.4,0.7c0,0,0.1-0.2,0.1-0.5c0.1-0.5,0.2-0.9,0.3-0.8c0,0,0.1,0.1,0,0.1
	c0,0,0.1,0.4,0.2,0.7c0.1,0.4,0.2,0.7,0.3,0.8c0,0.1,0.1,0.1,0.3-0.2c0.2-0.2,0.3-0.4,0.3-0.4c0-0.1,0.1-0.1,0.2,0
	c0.2,0.2,0.9,0.4,0.9,0.4c0,0,0-0.3,0-0.5l0-0.5l0.2,0.1c0.1,0,0.3,0,0.5,0l0.3-0.1l-0.3-0.2c-0.1-0.1-0.3-0.3-0.3-0.4
	c0-0.1-0.2-0.2-0.3-0.2c-0.4,0-1.1-0.6-1.1-0.8c0,0,0.1,0,0.2,0.2c0.3,0.3,0.6,0.5,1,0.5h0.2l-0.2-0.3c-0.1-0.2-0.2-0.4-0.2-0.7
	c0-0.4-0.1-0.4-0.4-0.7c-0.2-0.2-0.4-0.4-0.5-0.6l-0.2-0.3l-0.1,0.3c0,0.2-0.1,0.3-0.1,0.3c0,0-0.1-0.1-0.2-0.2
	c-0.1-0.1-0.2-0.2-0.2-0.2c0,0-0.1,0.2-0.2,0.4l-0.1,0.4l-0.1-0.2c-0.1-0.1-0.2-0.3-0.3-0.4c-0.1-0.1-0.2-0.2-0.1-0.2
	c0,0,0.2,0.1,0.3,0.3l0.2,0.3l0.1-0.2c0.1-0.1,0.1-0.3,0-0.5c0-0.2,0-0.3,0-0.1c0,0.1,0.2,0.3,0.3,0.4l0.2,0.2l0.1-0.4
	c0.1-0.4,0.1-0.4,0.2-0.1c0.1,0.3,0.7,1,1.3,1.4c0.1,0.1,0-0.2-0.1-0.7c0-0.1-0.1-0.4-0.1-0.5c0-0.2-0.1-0.3-0.3-0.6
	c-0.3-0.3-0.4-0.6-0.5-1.1c0-0.2-0.1-0.5-0.1-0.5c-0.1-0.1-0.1-0.1-0.1,0.4c0,0.3,0,0.6-0.1,0.8l-0.1,0.3l-0.1-0.2
	c0-0.1-0.2-0.3-0.3-0.5C41.1,14.1,41,14,41,13.9c0,0,0.2,0.1,0.3,0.3c0.3,0.3,0.3,0.3,0.4,0.2c0-0.1,0-0.7-0.1-1.2
	c0-0.2,0-0.2,0.2,0.1c0.1,0.2,0.2,0.4,0.3,0.8c0.1,0.5,0.1,0.6,0.5,1c0.2,0.2,0.4,0.4,0.4,0.4c0,0,0-0.7,0.1-1.4
	c0-1.5,0-1.8-0.3-2.3l-0.1-0.2l0.2-0.3c0.3-0.4,0.4-0.7,0.5-1.2l0-0.4L43,10.1c-0.2,0.2-0.3,0.3-0.5,0.3c-0.2,0-0.3-0.1-0.5-0.3
	c-0.2-0.3-0.5-0.5-0.8-0.6c-0.1,0-0.2,0-0.2,0.1c0,0.1-0.1,0.3-0.1,0.5l-0.1,0.3L40.5,10c-0.2-0.2-0.4-0.4-0.6-0.5
	c-0.4-0.1-0.4-0.1-0.4,0.3c0,0.6-0.2,0.7-0.6,0.3c-0.3-0.3-0.5-0.4-1-0.3l-0.4,0.1l0.1,0.2c0.1,0.2,0,0.3-0.1,0.5
	c-0.2,0.4-0.5,0.5-0.9,0.5c-0.2,0-0.4,0.1-0.5,0.1c-0.1,0.1-0.4,0.1-0.6,0.2c-0.2,0-0.4,0.1-0.5,0.1c-0.1,0-0.1,0-0.1-0.3
	c0-0.5-0.2-0.8-0.6-0.8c-0.5,0-0.7,0.6-0.5,1.3c0,0.1,0.1,0.4,0.1,0.5c0,0.1,0.2,0.5,0.5,0.9c0.3,0.3,0.5,0.7,0.5,0.8
	s0.2,0.2,0.3,0.3l0.2,0.2l0-0.3c0-0.3,0-0.4,0.2-0.2c0,0.1,0.2,0.2,0.3,0.3c0.2,0.1,0.2,0.1,0.2,0c0-0.1,0-0.2,0.1-0.4l0.1-0.2
	l0.1,0.3c0.1,0.2,0.3,0.6,0.5,0.9c0.4,0.6,0.7,1.3,0.5,1.5c-0.1,0.1-0.2,0.1-0.5,0c-0.2-0.1-0.5-0.1-0.6-0.1c-0.2,0-0.3,0-0.1-0.2
	c0.2-0.3,0.1-0.3-0.2-0.3c-0.3,0-1.2-0.2-1.5-0.4c-0.3-0.2-0.4-0.1-0.5,0.3c0,0.2-0.1,0.5-0.2,0.7l-0.1,0.4l0.3,0
	c0.2,0,0.4-0.1,0.5-0.1c0.1,0,0.2-0.1,0.2-0.1c0,0,0,0.2-0.1,0.3l-0.1,0.3l0.2-0.1c0.1,0,0.3-0.1,0.4-0.2c0.2-0.1,0.2-0.1,0.3,0.2
	c0.2,0.4,0.3,0.3,0.3,0c0-0.4,0.1-0.3,0.3,0.2c0.2,0.5,0.4,0.7,0.4,0.4c0-0.1,0.1-0.3,0.2-0.4c0.2-0.2,0.4-0.1,0.5,0.2
	c0.1,0.3-0.1,0.7-0.7,1.1c-1.2,1-1.9,2.3-2.1,4.1c-0.2,1.6,0.4,3.2,1.5,4.3c0.5,0.6,1.4,1.1,1.4,0.9c-0.2-0.9-0.2-2.7,0-3.1
	c0,0,0,0.1,0,0.4c-0.2,1-0.1,1.8,0.4,3.8c0.4,1.7,0.4,2.5-0.2,3c-0.2,0.2-0.3,0.2-0.9,0.2c-0.6,0-0.7,0-0.8,0.2
	c-0.2,0.2-0.4,0.8-0.4,1.1C35.4,33.8,35.5,33.8,35.8,33.6L35.8,33.6z M40.5,18.5c0-0.1-0.3-0.5-0.6-0.7c-0.2-0.2-0.3-0.2-0.3,0
	c0,0.2-0.1,0.8-0.2,0.8c0,0-0.1-0.1-0.1-0.2c0-0.1-0.1-0.4-0.2-0.6L39,17.4l-0.1,0.3c-0.1,0.3-0.4,0.6-0.5,0.6c0,0,0-0.1,0-0.3
	c0-0.2,0-0.4,0-0.4c0,0-0.1,0-0.1,0c0,0.1-0.3,0.6-0.4,0.6c0,0-0.1-0.1-0.1-0.3s-0.1-0.5-0.1-0.6c0-0.2,0-0.1,0.1,0.2l0.1,0.5
	l0.2-0.3c0.1-0.2,0.2-0.4,0.2-0.4c0-0.1,0-0.1,0.1-0.1c0,0,0.1,0.2,0.1,0.5l0,0.4l0.2-0.3c0.1-0.1,0.2-0.3,0.3-0.4
	c0.1-0.2,0.1-0.2,0.2,0c0.1,0.1,0.2,0.3,0.3,0.5c0.1,0.2,0.1,0.3,0.2,0.3c0,0,0-0.2,0.1-0.4c0-0.2,0-0.4,0-0.4
	c0-0.1,0.5,0.4,0.7,0.6c0.1,0.1,0.2,0.2,0.3,0.2c0,0,0-0.2,0-0.5c0-0.4,0-0.5-0.2-0.7c-0.2-0.2-0.2-0.2-0.3-0.1
	c-0.1,0.2-0.2,0.2-0.2,0c0-0.2-0.4-0.8-0.5-0.8c0,0-0.1,0.1-0.2,0.3c-0.1,0.2-0.1,0.3-0.2,0.3c-0.1,0-0.6-0.8-0.6-0.9
	c0-0.1,0-0.1,0.1,0.1c0.1,0.1,0.2,0.4,0.3,0.5c0.2,0.2,0.3,0.2,0.4-0.3c0-0.1,0.1-0.2,0.1-0.2c0.1,0,0.5,0.6,0.6,0.9l0.1,0.2l0-0.2
	c0.1-0.3,0.1-0.3,0.2,0c0,0.1,0.2,0.3,0.4,0.5l0.4,0.3l0.1-0.3c0-0.2,0.1-0.3,0.1-0.2c0,0.1-0.1,0.6-0.1,0.7c0,0-0.1-0.1-0.3-0.2
	l-0.2-0.2l0,0.4c0,0.2,0,0.5,0,0.6C40.7,18.7,40.5,18.7,40.5,18.5L40.5,18.5z M38.7,15.2c-0.4-0.5-0.5-0.6-0.5-0.8l0-0.2l0,0.2
	c0,0.1,0.1,0.3,0.3,0.5L38.7,15.2l0.2-0.3c0.1-0.1,0.2-0.3,0.2-0.3c0-0.2,0-0.1,0.3,0.2c0.3,0.3,0.3,0.3,0.3,0.1c0-0.1,0-0.3,0-0.5
	c-0.1-0.4-0.1-0.4,0.1-0.2c0.1,0.1,0.2,0.3,0.2,0.4c0.1,0.1,0.1,0.1,0.2,0c0-0.1,0-0.3,0-0.4l0-0.2l0.2,0.4c0.2,0.3,0.2,0.3,0.3,0.2
	c0-0.1,0.1-0.3,0.1-0.5c0-0.2,0-0.3,0.1-0.2c0.1,0.1,0,0.6-0.1,0.9l-0.1,0.2l-0.1-0.3c-0.2-0.3-0.2-0.3-0.3,0
	c-0.1,0.3-0.2,0.4-0.3,0.1c-0.1-0.2-0.1-0.2-0.1,0.2l0,0.4L39.5,15l-0.3-0.3l-0.1,0.2c-0.1,0.1-0.1,0.3-0.1,0.3
	C38.9,15.3,38.8,15.3,38.7,15.2L38.7,15.2z M42.6,13.4c-0.2-0.2-0.3-0.4-0.2-0.4c0,0,0.1,0,0.1,0c0,0,0.1,0.2,0.3,0.4
	C43,13.8,43,13.9,42.6,13.4z M37.5,12.7c-0.1-0.3-0.1-0.4,0-0.7c0.1-0.2,0.2-0.2,0.4-0.2c0.1,0,0.4,0.2,0.7,0.4
	c0.3,0.2,0.5,0.3,0.8,0.4c0.2,0,0.3,0,0.3,0c0,0-0.1-0.2-0.2-0.4c-0.2-0.4-0.2-0.5,0-0.2c0.3,0.3,0.6,0.4,1.3,0.3l0.3,0L40.9,12
	c-0.3-0.4-0.2-0.4,0.1,0c0.3,0.3,0.3,0.3-0.3,0.4c-0.3,0-0.5,0-0.7-0.1c-0.3-0.1-0.4-0.1-0.3,0c0,0.1,0.1,0.2,0.1,0.2
	c0,0,0.1,0,0.1,0.1c0,0.2-0.7,0-1.1-0.2c-0.8-0.5-0.9-0.6-1.1-0.5c-0.1,0-0.2,0.2-0.2,0.3c-0.1,0.4,0.3,0.8,0.5,0.4
	c0.1-0.1,0-0.2-0.1-0.3c-0.1-0.2-0.1-0.2,0.1-0.1c0.1,0.1,0.1,0.5,0,0.6C37.9,13,37.6,12.9,37.5,12.7z M40.6,11.6
	c-0.1-0.1,0-0.2,0.4-0.2c0.6,0,0.9-0.1,1.3-0.5c0.3-0.3,0.4-0.2,0.1,0.1c-0.3,0.3-0.7,0.4-1.1,0.5c-0.2,0-0.4,0.1-0.5,0.1
	C40.7,11.7,40.6,11.7,40.6,11.6z M45.3,33.5l0.2-0.2l0.2,0.2c0.2,0.3,0.5,0.3,0.7,0c0.1-0.1,0.2-0.2,0.2-0.2c0,0,0.1,0.1,0.1,0.2
	c0.1,0.1,0.2,0.2,0.4,0.2c0.2,0,0.3,0,0.4-0.2l0.1-0.2l0.2,0.2c0.7,0.6,1,0,0.7-1.2c-0.2-0.6-0.1-0.9,0.4-1.7
	c0.2-0.3,0.4-0.7,0.4-0.8c0-0.2,0-0.2-0.3-0.2c-0.3,0-0.3,0-0.5-0.2c-0.2-0.3-0.2-0.7,0-1.1l0.2-0.3l-0.4-0.3
	c-0.2-0.2-0.5-0.6-0.8-0.9c-0.5-0.8-1-1.1-1.7-1.2l-0.5-0.1l0,0.5c0,0.6,0.2,1.2,0.8,2.1c0.7,1.1,0.7,1.3,0.7,2.7l0,1.2l-0.2,0.2
	c-0.2,0.2-0.2,0.2-0.8,0.3c-0.5,0-0.6,0.1-0.8,0.3c-0.2,0.2-0.3,0.4-0.3,0.7c0,0.2,0,0.2,0.1,0.2C45,33.7,45.2,33.7,45.3,33.5
	L45.3,33.5z M31.3,30.4c0.1-0.1,0.1-0.3,0.1-0.4c0-0.2,0.1-0.2,0.3-0.2l0.3-0.1l-0.2-0.2c-0.2-0.3-0.3-0.5-0.1-0.5
	c0.2,0,0.6-0.3,0.6-0.5c0-0.1,0-0.2,0-0.3c-0.1-0.2-0.3-0.2-0.4,0c0,0.2-0.1,0.2-0.3,0c-0.3-0.3-0.3-1,0-1.4c0.1-0.2,0.1-0.2,0-0.4
	c-0.2-0.2-0.3-0.6-0.2-0.7c0,0,0.2,0,0.3,0.1c0.2,0.1,0.3,0.1,0.3,0c0.2-0.2,0-0.6-0.4-0.5c-0.2,0-0.2,0-0.2-0.1
	c0-0.1-0.1-0.2-0.3-0.2c-0.3-0.1-0.3-0.1-0.3,0.2c0,0.3-0.1,0.3-0.3,0.1c-0.2-0.1-0.3,0-0.3,0.2c0,0.2,0.2,0.3,0.5,0.3
	c0.2,0,0.3,0.2,0,0.6l-0.2,0.2l0.1,0.3c0.2,0.4,0.2,1,0,1.3l-0.2,0.2l-0.1-0.2C30.2,28,30,28,30,28.3c0,0.2,0,0.3,0.2,0.5
	c0.1,0.1,0.3,0.2,0.4,0.2c0.2,0,0.2,0.2,0,0.5l-0.2,0.2l0.3,0.1c0.2,0,0.3,0.1,0.3,0.1c0,0.2,0.2,0.7,0.3,0.7
	C31.2,30.6,31.3,30.5,31.3,30.4L31.3,30.4z M35.1,28.2c0.3-0.1,0.8-0.8,0.8-0.9c0,0-0.2-0.3-0.3-0.5c-0.4-0.5-0.8-1.3-1-1.8
	c-0.1-0.2-0.3-0.7-1.2-1.7l-1.1-1.4L32.1,22c-0.2,0.1-0.4,0.1-0.5,0.1c-0.1,0-0.1,0,0.1,0.2l0.2,0.2l0.3-0.2c0.3-0.2,0.3-0.2,0.3,0
	c0,0.1,0,0.3-0.1,0.4c-0.1,0.1-0.1,0.3-0.1,0.3c0,0,0,0.1-0.2,0.2c-0.2,0.1-0.3,0.6-0.2,0.6c0.1,0,0.5-0.5,0.4-0.7
	c0-0.1,0-0.2,0-0.2c0.1-0.1,0.1,0.3,0,0.5c-0.1,0.1-0.1,0.3-0.1,0.3c0,0,0,0.1-0.2,0.2c-0.2,0.1-0.3,0.6-0.2,0.6
	c0.2,0,0.5-0.5,0.4-0.7c0-0.1,0-0.2,0-0.2c0.1-0.1,0.1,0.3,0.1,0.4c0,0.1,0,0.2,0,0.3c0.1,0.2,0,0.5-0.1,0.6c-0.1,0,0,0.1,0.1,0.3
	c0.2,0.2,0.2,0.2,0.2,1.1c0,0.7,0,0.9,0.1,1c0.1,0.1,0.1,0.1,0.1,0c0-0.1,0.2-0.3,0.3-0.3c0,0,0.3,0.3,0.6,0.7
	c0.3,0.4,0.6,0.7,0.7,0.8c0.1,0,0.2,0,0.2,0.1C34.8,28.3,35,28.3,35.1,28.2L35.1,28.2z M31.8,24.8c0-0.2-0.4-0.5-0.8-0.5
	c-0.3-0.1-0.3,0-0.3,0.2c0,0.2,0.1,0.3,0.3,0.4C31.4,25,31.8,25,31.8,24.8z M32.2,24.8c0.2-0.2,0.3-0.5,0.2-0.5
	c-0.1,0-0.4,0.4-0.4,0.5C31.9,25,32,25,32.2,24.8z M31.8,24.1c0-0.1,0-0.2-0.2-0.3c-0.4-0.2-0.8-0.3-1-0.2c-0.2,0.2-0.1,0.5,0.3,0.6
	c0.1,0,0.3,0.1,0.4,0.1C31.6,24.3,31.8,24.3,31.8,24.1z M31.8,23.4c0-0.2-0.1-0.2-0.8-0.6c-0.5-0.3-0.8-0.1-0.6,0.3
	c0.1,0.2,0.2,0.2,0.4,0.3c0.2,0,0.4,0.1,0.5,0.1C31.6,23.6,31.8,23.6,31.8,23.4z M32.2,22.7c0.1-0.1,0.2-0.3,0.2-0.4
	c0-0.2-0.4,0.2-0.5,0.4C31.8,23.1,31.9,23.1,32.2,22.7L32.2,22.7z M31.8,22.7c0-0.2-0.2-0.4-0.8-0.5c-0.4-0.1-0.5,0-0.5,0.2
	c0,0.1,0.1,0.2,0.5,0.4C31.6,23,31.8,23,31.8,22.7z M32.3,21.7c0.7-0.4,0.7-1.4,0.1-1.6c-0.3-0.1-0.4,0-0.5,0.2
	c-0.1,0.2,0,0.5,0.1,0.5c0,0,0.1,0.1,0.1,0.1c0,0.3-1,0.5-1.4,0.2c-0.1-0.1-0.2-0.4-0.1-0.4c0.1,0,0.2-0.3,0.1-0.4
	c-0.1-0.2-0.3-0.3-0.5-0.2c-0.6,0.2-0.6,1.2,0,1.6C30.7,22,31.8,22,32.3,21.7z M31.9,21c0,0,0-0.1,0-0.2c-0.1-0.1-0.1-0.4,0-0.6
	c0.1-0.2,0.1-0.5,0.2-3.3c0.1-4.9,0.3-8.5,0.7-9.4c0.1-0.4,0.1-0.4-0.2,0c-0.5,0.4-0.8,1-1.2,1.8c-0.6,1.5-0.8,3.6-0.8,7.9
	c0,2.5,0,2.8,0.1,3c0.1,0.2,0.1,0.3,0,0.5c0,0.2-0.1,0.3,0,0.3C30.8,21.2,31.8,21.2,31.9,21L31.9,21z M37.5,16.3c0,0,0-0.3-0.1-0.5
	c-0.1-0.3-0.2-0.4-0.3-0.4c-0.5,0-1.4-0.3-2.3-0.8c-0.5-0.3-0.7-0.4-0.7-0.3c-0.2,0.2,0.1,0.7,0.5,0.9c0.4,0.2,1.3,0.5,1.8,0.5
	c0.3,0,0.3,0,0.1,0.3l-0.1,0.2l0.3,0c0.2,0,0.4,0,0.5,0.1C37.4,16.4,37.4,16.4,37.5,16.3L37.5,16.3z"/>
<g>
	<path class="st4" d="M39.5,16.1c0,0-0.1,0.1-0.1,0.2c-0.1,0.5-0.2,0.5-0.4,0.3c-0.1-0.1-0.2-0.3-0.3-0.5c-0.1-0.2-0.1-0.2-0.1-0.1
		c0,0.1,0.5,0.9,0.6,0.9c0,0,0.1-0.1,0.2-0.3c0.1-0.2,0.1-0.3,0.2-0.3c0.1,0,0.5,0.6,0.5,0.8c0,0.2,0.1,0.2,0.2,0
		c0.1-0.2,0.1-0.2,0.3,0.1c0.2,0.2,0.2,0.3,0.2,0.7c0,0.2,0,0.5,0,0.5c0,0-0.1-0.1-0.3-0.2c-0.2-0.2-0.7-0.7-0.7-0.6
		c0,0,0,0.2,0,0.4c0,0.2,0,0.4-0.1,0.4c0,0-0.1-0.1-0.2-0.3c-0.1-0.2-0.2-0.4-0.3-0.5c-0.1-0.2-0.2-0.2-0.2,0c0,0.1-0.2,0.3-0.3,0.4
		l-0.2,0.3l0-0.4c0-0.2-0.1-0.5-0.1-0.5c0,0-0.1,0-0.1,0.1c0,0.1-0.1,0.3-0.2,0.4l-0.2,0.3l-0.1-0.5c-0.1-0.3-0.1-0.4-0.1-0.2
		c0,0.2,0.1,0.4,0.1,0.6c0,0.2,0.1,0.3,0.1,0.3c0.1,0,0.4-0.5,0.4-0.6c0,0,0-0.1,0.1,0c0,0,0.1,0.2,0,0.4c0,0.2,0,0.3,0,0.3
		c0.1,0,0.3-0.3,0.5-0.6l0.1-0.3l0.2,0.3c0.1,0.2,0.2,0.4,0.2,0.6c0,0.1,0.1,0.2,0.1,0.2c0.1,0,0.2-0.5,0.2-0.8c0-0.1,0-0.1,0.3,0
		c0.3,0.2,0.6,0.6,0.6,0.7h0c0,0.2,0.1,0.1,0.2-0.1c0-0.1,0-0.4,0-0.6l0-0.4l0.2,0.2c0.1,0.1,0.3,0.2,0.3,0.2
		c0.1-0.1,0.2-0.6,0.1-0.7c0-0.1-0.1,0-0.1,0.2l-0.1,0.3l-0.4-0.3c-0.2-0.2-0.4-0.4-0.4-0.5c-0.1-0.3-0.2-0.3-0.2,0l0,0.2l-0.1-0.2
		C40,16.7,39.5,16.1,39.5,16.1z"/>
	<path class="st4" d="M40.8,13.9c0,0.2,0,0.4-0.1,0.5c-0.1,0.2-0.1,0.1-0.3-0.2l-0.2-0.4l0,0.2c0,0.1,0,0.3,0,0.4c0,0.2,0,0.2-0.2,0
		c-0.1-0.1-0.2-0.2-0.2-0.4c-0.1-0.2-0.1-0.2-0.1,0.2c0,0.1,0,0.3,0,0.5c0,0.2,0,0.2-0.3-0.1c-0.3-0.3-0.3-0.4-0.3-0.2
		c0,0.1-0.1,0.2-0.2,0.3l-0.2,0.2l-0.2-0.3c-0.1-0.2-0.3-0.4-0.3-0.5l0-0.2l0,0.2c0,0.2,0.1,0.3,0.5,0.8h0c0.1,0.1,0.2,0.1,0.2,0
		c0-0.1,0.1-0.2,0.1-0.3l0.1-0.2l0.3,0.3l0.3,0.3l0-0.4c0-0.4,0.1-0.4,0.1-0.2c0.1,0.3,0.2,0.2,0.3-0.1c0.1-0.4,0.2-0.4,0.3,0
		l0.1,0.3l0.1-0.2c0.1-0.3,0.2-0.7,0.1-0.9C40.8,13.6,40.8,13.6,40.8,13.9z"/>
	<path class="st4" d="M22.6,3.5v35h38.1v-35H22.6z M31.4,9.2c0.3-0.8,0.7-1.4,1.2-1.8c0.4-0.3,0.4-0.3,0.2,0
		c-0.4,0.9-0.6,4.5-0.7,9.4c0,2.8-0.1,3.1-0.2,3.3c-0.2,0.2-0.2,0.5,0,0.6c0.1,0.1,0.1,0.1,0,0.2h0c-0.1,0.2-1.1,0.2-1.3,0.1
		c0,0,0-0.2,0-0.3c0.1-0.2,0.1-0.3,0-0.5c-0.1-0.2-0.1-0.6-0.1-3C30.6,12.8,30.8,10.8,31.4,9.2z M26.1,33.7
		c-0.1,0.5-0.2,1.1-0.3,1.6c-0.1,1.2,0,2.7-1.2,2.8c-0.5,0-0.6-0.2-0.8-0.3c-0.2,0-0.6,0-0.6,0l0-0.6c0-0.1-0.7-1.2,0-2
		c0.5-0.7,1.7-0.6,2.3-1.2c0.4-0.4,0.8-1.4,0.8-1.4S26.2,33.3,26.1,33.7z M25.4,8c-0.6-0.6-1.8-0.5-2.3-1.2c-0.6-0.8,0-1.9,0-2
		l0-0.6c0,0,0.4,0,0.6,0c0.3-0.1,0.4-0.3,0.8-0.3c1.2,0.1,1.2,1.6,1.2,2.8c0.1,0.5,0.2,1.1,0.3,1.6c0.1,0.4,0.1,1.1,0.1,1.1
		S25.8,8.4,25.4,8z M30.1,20.1c0.3-0.1,0.5,0,0.5,0.2c0,0.2,0,0.4-0.1,0.4c-0.1,0-0.1,0.3,0.1,0.4c0.4,0.3,1.4,0.1,1.4-0.2
		c0-0.1,0-0.1-0.1-0.1c-0.1,0-0.2-0.3-0.1-0.5c0.1-0.2,0.3-0.3,0.5-0.2c0.6,0.3,0.6,1.2-0.1,1.6c-0.5,0.3-1.7,0.3-2.2,0
		C29.5,21.3,29.5,20.3,30.1,20.1z M31.3,24.2c-0.1,0-0.3-0.1-0.4-0.1c-0.3-0.1-0.5-0.3-0.3-0.6c0.1-0.1,0.6,0,1,0.2
		c0.2,0.1,0.2,0.2,0.2,0.3C31.8,24.3,31.6,24.3,31.3,24.2z M31.8,24.8c0,0.2-0.5,0.3-0.8,0c-0.2-0.1-0.3-0.2-0.3-0.4
		c0-0.2,0-0.2,0.3-0.2C31.5,24.3,31.8,24.6,31.8,24.8z M31.8,23.4c0,0.2-0.2,0.2-0.5,0.1c-0.1,0-0.3-0.1-0.5-0.1
		c-0.2,0-0.3-0.1-0.4-0.3c-0.2-0.4,0.1-0.6,0.6-0.3C31.8,23.1,31.9,23.2,31.8,23.4z M31.8,22.7c0,0.2-0.2,0.2-0.8,0
		c-0.4-0.1-0.5-0.2-0.5-0.4c0-0.2,0.1-0.3,0.5-0.2C31.6,22.3,31.9,22.5,31.8,22.7z M32.4,28.5C32.4,28.7,32,29,31.8,29
		c-0.2,0-0.2,0.2,0.1,0.5l0.2,0.2l-0.3,0.1c-0.3,0-0.3,0.1-0.3,0.2c0,0.1,0,0.3-0.1,0.4v0c-0.1,0.1-0.1,0.2-0.2,0.2
		c-0.1,0-0.3-0.5-0.3-0.7c0,0-0.1-0.1-0.3-0.1l-0.3-0.1l0.2-0.2c0.2-0.2,0.2-0.5,0-0.5c-0.1,0-0.3-0.1-0.4-0.2
		c-0.2-0.2-0.2-0.3-0.2-0.5c0.1-0.3,0.3-0.3,0.4,0l0.1,0.2l0.2-0.2c0.2-0.3,0.2-0.9,0-1.3l-0.1-0.3l0.2-0.2c0.2-0.3,0.2-0.6,0-0.6
		c-0.3,0-0.5-0.1-0.5-0.3c0-0.3,0.2-0.4,0.3-0.2c0.2,0.2,0.3,0.1,0.3-0.1c0-0.2,0-0.2,0.3-0.2c0.1,0.1,0.3,0.2,0.3,0.2
		c0,0.1,0.1,0.1,0.2,0.1c0.4-0.1,0.6,0.2,0.4,0.5c-0.1,0.1-0.2,0.1-0.3,0c-0.1-0.1-0.3-0.1-0.3-0.1c-0.1,0.1,0,0.5,0.2,0.7
		c0.2,0.2,0.2,0.2,0,0.4c-0.2,0.4-0.2,1.1,0,1.4c0.2,0.2,0.2,0.2,0.3,0c0-0.2,0.3-0.2,0.4,0C32.4,28.3,32.4,28.4,32.4,28.5z
		 M31.9,24.8c0-0.1,0.3-0.5,0.4-0.5c0.1,0,0,0.2-0.2,0.5C32,25,31.9,25,31.9,24.8z M34.8,28.3c0,0-0.1,0-0.2-0.1
		c-0.1,0-0.4-0.4-0.7-0.8c-0.3-0.4-0.6-0.7-0.6-0.7c-0.2,0-0.3,0.2-0.3,0.3c0,0.1,0,0.1-0.1,0c-0.1-0.1-0.1-0.3-0.1-1
		c0-0.8,0-0.9-0.2-1.1c-0.1-0.1-0.2-0.2-0.1-0.3c0.1-0.1,0.2-0.4,0.1-0.6c0-0.1,0-0.2,0-0.3c0.1-0.2,0-0.5-0.1-0.4c0,0,0,0.1,0,0.2
		c0,0.2-0.3,0.7-0.4,0.7c-0.2,0,0-0.4,0.2-0.6c0.1-0.1,0.2-0.2,0.2-0.2c0,0,0-0.2,0.1-0.3c0.1-0.2,0.1-0.6,0-0.5c0,0,0,0.1,0,0.2
		c0,0.2-0.3,0.7-0.4,0.7c-0.2,0,0-0.4,0.2-0.6c0.1-0.1,0.2-0.2,0.2-0.2c0,0,0-0.2,0.1-0.3c0.1-0.1,0.1-0.3,0.1-0.4
		c0-0.2,0-0.2-0.3,0l-0.3,0.2l-0.2-0.2c-0.2-0.2-0.2-0.2-0.1-0.2c0.1,0,0.3-0.1,0.5-0.1l0.3-0.1l1.1,1.4c0.8,1,1.1,1.5,1.2,1.7
		c0.1,0.5,0.6,1.3,1,1.8c0.2,0.2,0.3,0.5,0.3,0.5c0,0.2-0.6,0.8-0.8,0.9l0,0C35,28.3,34.8,28.3,34.8,28.3z M32.2,22.7
		c-0.2,0.3-0.4,0.3-0.3,0c0.1-0.3,0.5-0.6,0.5-0.4C32.4,22.4,32.3,22.6,32.2,22.7L32.2,22.7z M47.8,33.5l-0.2-0.2l-0.1,0.2
		c-0.1,0.2-0.2,0.2-0.4,0.2c-0.2,0-0.3-0.1-0.4-0.2c0-0.1-0.1-0.2-0.1-0.2c0,0-0.1,0.1-0.2,0.2c-0.2,0.3-0.5,0.3-0.7,0l-0.2-0.2
		l-0.2,0.2h0c-0.1,0.1-0.3,0.2-0.4,0.2c-0.1,0-0.1,0-0.1-0.2c0.1-0.3,0.1-0.5,0.3-0.7c0.2-0.2,0.3-0.2,0.8-0.3
		c0.5,0,0.6-0.1,0.8-0.3L47,32l0-1.2c0-1.4-0.1-1.6-0.7-2.7c-0.6-1-0.8-1.5-0.8-2.1l0-0.5l0.5,0.1c0.7,0.1,1.2,0.4,1.7,1.2
		c0.2,0.3,0.6,0.8,0.8,0.9l0.4,0.3l-0.2,0.3c-0.3,0.4-0.3,0.8,0,1.1c0.1,0.2,0.2,0.2,0.5,0.2c0.3,0,0.3,0,0.3,0.2
		c0,0.1-0.2,0.4-0.4,0.8c-0.5,0.8-0.6,1.1-0.4,1.7C48.8,33.5,48.5,34.1,47.8,33.5z M52.7,13.5c-0.5,0-0.9-0.2-1.4-0.9
		c-0.6-0.7-1.1-1.2-1.2-1.2c-0.1,0.1,0.2,1.1,0.3,1.2c0.2,0.2,0,0.2-0.3,0c-0.4-0.2-0.6-0.5-0.8-0.9l-0.1-0.3l-0.1,0.3
		c-0.1,0.2-0.1,0.4-0.2,0.5c-0.1,0.2-0.5,0.4-0.7,0.4c-0.1,0-0.1,0,0-0.2c0.1-0.1,0.2-0.4,0.2-0.6c0.1-0.4,0.1-0.4-0.1-0.8
		c-0.1-0.4-0.3-0.6-0.7-0.8c-0.2-0.1-0.2-0.1-0.1,0.3c0.1,0.4,0.1,1,0,1.4c-0.2,0.3-0.5,0.6-0.8,0.7l-0.2,0.1l0.2-0.4
		c0.2-0.5,0.2-1.1,0-1.5c-0.2-0.3-0.7-0.8-1-0.8c-0.2,0-0.2,0-0.2,0.4c0.1,0.5-0.2,1.1-0.3,0.7c-0.1-0.3-0.4-0.4-0.7-0.3
		c-0.6,0.3-0.8,1.2-0.3,1.8c0.1,0.2,0.2,0.3,0.3,0.3c0,0,0.1-0.1,0.2-0.3c0.2-0.5,0.8-0.7,1.2-0.4l0.2,0.1l-0.3,0.2
		c-0.4,0.2-0.5,0.6-0.4,1c0,0.2,0.1,0.4,0.2,0.5c0.1,0.1,0.1,0.1,0.1,0c0.1-0.2,0.5-0.7,0.6-0.7c0,0,0.1,0.1,0.1,0.2
		c0.1,0.4,0.1,0.5,0.4,0.7c0.3,0.2,0.4,0.2,1,0.2c0.4,0,1-0.1,1.4-0.2c0.4-0.1,1-0.2,1.4-0.2c0.7,0,0.8,0,1.2,0.2
		c1.3,0.7,1.5,2.7,0.4,3.8l-0.3,0.4l0.3,0.5c0.1,0.3,0.4,0.7,0.5,1.1c0.2,0.5,0.2,0.7,0.2,1.7c0,1.2-0.1,1.5-0.5,3.3
		c-0.5,1.8-0.5,2.8-0.2,3.8c0.2,0.5,0.4,0.7,0.6,0.7c0.4,0,0.2,0.6-0.3,1.1c-0.4,0.4-0.5,0.6-0.5,1.1c0,0.4,0.1,0.7,0.4,1.3
		c0.1,0.2,0.1,0.3,0.1,0.4c-0.1,0.2-0.6,0.1-0.8-0.2c-0.1-0.1-0.2-0.2-0.2-0.1c-0.1,0.4-0.5,0.5-0.8,0.2l-0.2-0.2l-0.2,0.2
		c-0.3,0.3-0.6,0.3-0.7,0l-0.1-0.2l-0.2,0.2c-0.3,0.3-0.5,0.3-0.4,0c0.1-0.6,0.5-1,1.2-1.2c0.8-0.2,0.8-0.3,0.7-1.7
		c-0.1-1.3-0.1-1.4-1.5-2.6c-0.6-0.5-1-0.9-1.4-1.4c-0.7-1-1.1-1.2-2.1-1.3c-1.2-0.1-1.8,0.1-3.6,1.2c-0.7,0.4-1.3,0.7-1.4,0.8
		l-0.2,0.1l0.2-0.5c0.5-1.3,0.8-3,0.6-3.4c0-0.1-0.1,0.1-0.1,0.5c0,1-0.5,2.7-1.3,4.4c-0.5,1-0.4,1.6,0.4,1.7c0.2,0,0.4,0.1,0.4,0.1
		c0,0.1-0.4,0.8-0.6,0.9c-0.1,0.1-0.3,0.2-0.5,0.3c-0.4,0.2-0.4,0.2-0.4,0.5c0,0.2,0,0.5,0.1,0.7c0,0.3,0,0.4-0.1,0.7
		c-0.2,0.4-0.2,0.4-0.5,0.3c-0.2,0-0.4-0.1-0.4-0.2c-0.1-0.1-0.1-0.1-0.3,0c-0.2,0.2-0.6,0.2-0.8,0L37,33.4l-0.2,0.2
		c-0.2,0.2-0.6,0.2-0.7,0L36,33.4l-0.2,0.2l0,0c-0.3,0.2-0.4,0.2-0.4,0.1c0-0.3,0.2-0.9,0.4-1.1c0.2-0.2,0.3-0.2,0.8-0.2
		c0.5,0,0.7,0,0.9-0.2c0.6-0.5,0.7-1.2,0.2-3c-0.5-1.9-0.6-2.7-0.4-3.8c0.1-0.3,0.1-0.5,0-0.4c-0.2,0.3-0.2,2.1,0,3.1
		c0.1,0.2-0.8-0.4-1.4-0.9c-1.1-1.2-1.7-2.8-1.5-4.3c0.2-1.7,0.9-3.1,2.1-4.1c0.6-0.5,0.8-0.8,0.7-1.1c-0.1-0.3-0.2-0.4-0.5-0.2
		c-0.1,0.1-0.2,0.3-0.2,0.4c0,0.3-0.2,0.1-0.4-0.4c-0.2-0.5-0.3-0.6-0.3-0.2c0,0.4-0.2,0.4-0.3,0c-0.1-0.3-0.2-0.3-0.3-0.2
		c-0.1,0.1-0.3,0.1-0.4,0.2l-0.2,0.1l0.1-0.3c0.1-0.2,0.1-0.3,0.1-0.3c0,0-0.1,0-0.2,0.1c-0.1,0-0.4,0.1-0.5,0.1l-0.3,0l0.1-0.4
		c0.1-0.2,0.1-0.6,0.2-0.7c0.1-0.4,0.2-0.4,0.5-0.3c0.3,0.2,1.2,0.4,1.5,0.4c0.3,0,0.3,0,0.2,0.3c-0.1,0.2-0.1,0.3,0.1,0.2
		c0.1,0,0.4,0,0.6,0.1c0.3,0.1,0.4,0.1,0.5,0c0.1-0.2-0.1-0.9-0.5-1.5c-0.2-0.3-0.4-0.7-0.5-0.9l-0.1-0.3l-0.1,0.2
		c0,0.1-0.1,0.3-0.1,0.4c0,0.1,0,0.1-0.2,0c-0.1-0.1-0.2-0.2-0.3-0.3c-0.1-0.2-0.2-0.2-0.2,0.2l0,0.3l-0.2-0.2
		c-0.1-0.1-0.3-0.2-0.3-0.3c0-0.1-0.3-0.4-0.5-0.8c-0.3-0.4-0.5-0.7-0.5-0.9c0-0.1-0.1-0.4-0.1-0.5c-0.2-0.8,0-1.3,0.5-1.3
		c0.4,0,0.6,0.3,0.6,0.8c0,0.3,0,0.3,0.1,0.3c0.1,0,0.3-0.1,0.5-0.1c0.2,0,0.5-0.1,0.6-0.2c0.1-0.1,0.3-0.1,0.5-0.1
		c0.4,0,0.7-0.2,0.9-0.5c0.1-0.2,0.1-0.3,0.1-0.5l-0.1-0.2L38,9.8c0.5-0.1,0.7,0,1,0.3c0.4,0.4,0.6,0.3,0.6-0.3c0-0.4,0-0.4,0.4-0.3
		c0.2,0.1,0.4,0.2,0.6,0.5l0.3,0.4l0.1-0.3c0.1-0.2,0.1-0.4,0.1-0.5c0-0.1,0-0.1,0.2-0.1c0.3,0.1,0.6,0.4,0.8,0.6
		c0.2,0.2,0.2,0.3,0.5,0.3c0.2,0,0.3-0.1,0.5-0.3l0.2-0.3l0,0.4c-0.1,0.4-0.2,0.8-0.5,1.2l-0.2,0.3l0.1,0.2c0.3,0.5,0.3,0.8,0.3,2.3
		c0,0.8,0,1.4-0.1,1.4c0,0-0.2-0.2-0.4-0.4c-0.3-0.4-0.4-0.5-0.5-1c-0.1-0.4-0.1-0.6-0.3-0.8c-0.2-0.3-0.2-0.3-0.2-0.1
		c0.1,0.4,0.1,1,0.1,1.2c0,0.1-0.1,0.1-0.4-0.2C41.2,14,41,13.9,41,13.9c0,0,0.1,0.2,0.2,0.3c0.2,0.1,0.3,0.3,0.3,0.5l0.1,0.2
		l0.1-0.3c0-0.1,0.1-0.5,0.1-0.8c0-0.4,0-0.5,0.1-0.4c0,0.1,0.1,0.3,0.1,0.5c0.1,0.5,0.2,0.8,0.5,1.1c0.2,0.2,0.3,0.3,0.3,0.6
		c0,0.2,0,0.4,0.1,0.5c0.2,0.5,0.2,0.7,0.1,0.7c-0.5-0.4-1.2-1.1-1.3-1.4c-0.1-0.2-0.1-0.2-0.2,0.1l-0.1,0.4L41,15.8
		c-0.1-0.1-0.2-0.3-0.3-0.4c-0.1-0.1-0.1-0.1,0,0.1c0,0.2,0,0.4,0,0.5l-0.1,0.2l-0.2-0.3c-0.1-0.2-0.3-0.3-0.3-0.3
		c0,0,0,0.1,0.1,0.2c0.1,0.1,0.2,0.3,0.3,0.4l0.1,0.2l0.1-0.4c0.1-0.2,0.2-0.4,0.2-0.4c0,0,0.1,0.1,0.2,0.2c0.1,0.1,0.2,0.2,0.2,0.2
		c0,0,0.1-0.1,0.1-0.3l0.1-0.3l0.2,0.3c0.1,0.1,0.3,0.4,0.5,0.6c0.3,0.3,0.3,0.3,0.4,0.7c0,0.2,0.1,0.5,0.2,0.7l0.2,0.3h-0.2
		c-0.3,0-0.7-0.2-1-0.5c-0.1-0.1-0.2-0.2-0.2-0.2c0,0.3,0.7,0.8,1.1,0.8c0.1,0,0.3,0.1,0.3,0.2c0,0.1,0.2,0.3,0.3,0.4l0.3,0.2
		l-0.3,0.1c-0.2,0-0.4,0-0.5,0l-0.2-0.1l0,0.5c0,0.3,0,0.5,0,0.5c-0.1,0.1-0.7-0.2-0.9-0.4c-0.1-0.1-0.2-0.1-0.2,0
		c0,0.1-0.2,0.3-0.3,0.4c-0.2,0.3-0.3,0.3-0.3,0.2c0-0.1-0.1-0.5-0.3-0.8s-0.2-0.7-0.2-0.7c0,0,0-0.1,0-0.1
		c-0.1-0.1-0.2,0.3-0.3,0.8c0,0.2-0.1,0.5-0.1,0.5c-0.1,0.1-0.4-0.5-0.4-0.7c0-0.2-0.1-0.1-0.2,0.2c0,0.2-0.1,0.4-0.2,0.6l-0.1,0.2
		l-0.1-0.4c-0.1-0.2-0.1-0.4-0.1-0.5c0-0.2-0.1-0.2-0.1,0c0,0.4-0.2,0.9-0.4,1l-0.2,0.1L37.7,20c0-0.2-0.1-0.5-0.1-0.6l0-0.2
		l-0.3,0.2c-0.2,0.1-0.3,0.2-0.3,0.2c0,0,0-0.1,0.1-0.3c0.1-0.1,0.1-0.3,0.1-0.4c0-0.1,0.1-0.2,0.1-0.3c0.1-0.2,0.1-0.2,0-0.2
		c-0.1,0-0.1,0.2-0.2,0.5c-0.1,0.3-0.2,0.5-0.3,0.6c-0.2,0.2-0.1,0.2,0.3,0.1c0.2-0.1,0.4-0.1,0.4-0.1c0,0.1,0.1,0.2,0.1,0.4
		s0.1,0.4,0,0.5c-0.1,0.2,0,0.2,0.2,0c0-0.1,0.1-0.1,0.2-0.1c0.1,0,0.4-0.5,0.4-0.7c0-0.1,0-0.1,0.1-0.1s0.1,0.2,0.1,0.4
		c0,0.2,0,0.4,0.1,0.4c0.1,0,0.5-0.6,0.5-0.8c0-0.1,0.1-0.2,0.1-0.2c0.1,0,0.2,0.3,0.3,0.6l0.1,0.3l0.1-0.3c0.1-0.2,0.2-0.4,0.2-0.6
		s0.1-0.4,0.1-0.4c0-0.1,0.1-0.1,0.1,0c0,0.1,0.1,0.4,0.2,0.7c0.1,0.3,0.2,0.6,0.2,0.8c0,0.1,0,0.2,0,0.2c0.1,0,0.6-0.6,0.7-0.7
		c0.1-0.2,0.1-0.2,0.3,0c0.1,0.1,0.3,0.2,0.5,0.2c0.2,0,0.4,0.1,0.4,0.1c0.1,0,0.1,0,0.1-0.1c0-0.1,0-0.3,0-0.5l0-0.4h0.3
		c0.2,0,0.4,0,0.5-0.1c0.2-0.1,0.2-0.1,0.1-0.2c-0.1-0.1-0.2-0.2-0.3-0.3L43,18.5l1.6,0.1c1.4,0,1.7,0,2.1-0.1
		c0.4-0.1,0.8-0.1,1.9-0.1c1.2,0,1.4,0,1.9-0.2c0.7-0.3,0.9-0.4,1.2-0.7c0.5-0.8,0.4-1.8-0.3-2.2c-0.4-0.2-1.2-0.2-2,0
		c-1.5,0.4-2.9,0.4-3.8-0.1c-0.8-0.4-0.9-0.5-1.1-0.4c-0.2,0.1-0.3,0.3-0.3,0.7c0,0.1,0,0.3-0.1,0.3c0,0-0.1-0.1-0.2-0.3
		c-0.2-0.4-0.2-1,0-1.4l0.1-0.3l-0.2-0.3c-0.7-1.1-0.7-2.3,0-3.2c0.4-0.5,1.2-1,1.8-1.2c0.6-0.1,1.8-0.1,2.4,0.2
		c0.9,0.4,2.1,1.3,3.2,2.5c0.7,0.7,1,1.1,1.2,1.1c0.1,0,0.2,0,0.1-0.2c0-0.2,0-0.3,0.1-0.5c0.2-0.4,0.6-0.3,0.8,0.1
		C53.7,12.8,53.3,13.5,52.7,13.5z M37.5,16.3c0,0.1,0,0.1-0.3,0c-0.1,0-0.3-0.1-0.5-0.1l-0.3,0l0.1-0.2c0.1-0.3,0.1-0.3-0.1-0.3
		c-0.5,0-1.4-0.3-1.8-0.5c-0.4-0.2-0.7-0.7-0.5-0.9c0.1-0.1,0.2,0,0.7,0.3c0.9,0.5,1.7,0.8,2.3,0.8c0.2,0,0.2,0.1,0.3,0.4
		C37.4,16.1,37.5,16.3,37.5,16.3L37.5,16.3z M60.1,37.7c0,0-0.4,0-0.6,0c-0.3,0.1-0.4,0.3-0.8,0.3c-1.2-0.1-1.2-1.6-1.2-2.8
		c-0.1-0.5-0.2-1.1-0.3-1.6C57,33.3,57,32.6,57,32.6s0.4,1,0.8,1.4c0.6,0.6,1.8,0.5,2.3,1.2c0.6,0.8,0,1.9,0,2L60.1,37.7z M60.1,6.8
		c-0.5,0.7-1.7,0.6-2.3,1.2C57.4,8.4,57,9.4,57,9.4s0-0.6,0.1-1.1c0.1-0.5,0.2-1.1,0.3-1.6c0.1-1.2,0-2.7,1.2-2.8
		c0.5,0,0.6,0.2,0.8,0.3c0.2,0,0.6,0,0.6,0l0,0.6C60,4.9,60.7,6,60.1,6.8z"/>
	<path class="st4" d="M42.3,13c0,0,0.1,0.2,0.2,0.4c0.4,0.5,0.4,0.4,0.1,0C42.5,13.2,42.4,13,42.3,13C42.4,13,42.4,13,42.3,13z"/>
	<path class="st4" d="M40.8,11.6c0.1,0,0.3-0.1,0.5-0.1c0.4-0.1,0.8-0.3,1.1-0.5c0.3-0.3,0.2-0.3-0.1-0.1c-0.4,0.3-0.7,0.5-1.3,0.5
		c-0.4,0-0.5,0-0.4,0.2C40.6,11.7,40.7,11.7,40.8,11.6z"/>
	<path class="st4" d="M38,12.8c0.1-0.1,0.1-0.6,0-0.6c-0.2-0.1-0.2-0.1-0.1,0.1c0.1,0.1,0.1,0.2,0.1,0.3c-0.2,0.4-0.7,0-0.5-0.4
		c0-0.1,0.1-0.3,0.2-0.3c0.2-0.1,0.3,0,1.1,0.5c0.3,0.2,1.1,0.4,1.1,0.2c0-0.1,0-0.1-0.1-0.1c0,0-0.1-0.1-0.1-0.2
		c-0.1-0.2-0.1-0.2,0.3,0c0.2,0.1,0.5,0.1,0.7,0.1c0.6-0.1,0.6-0.1,0.3-0.4c-0.3-0.3-0.4-0.3-0.1,0l0.2,0.3l-0.3,0
		c-0.7,0-1-0.1-1.3-0.3c-0.3-0.3-0.3-0.2,0,0.2c0.1,0.2,0.2,0.4,0.2,0.4s-0.2,0-0.3,0c-0.2,0-0.5-0.2-0.8-0.4
		c-0.2-0.2-0.5-0.3-0.7-0.4c-0.2,0-0.3,0-0.4,0.2c-0.2,0.3-0.2,0.5,0,0.7C37.6,12.9,37.9,13,38,12.8z"/>
</g>
</svg>
