<?xml version="1.0" encoding="UTF-8"?>
<svg width="32px" height="31px" viewBox="0 0 32 31" version="1.1" xmlns="http://www.w3.org/2000/svg" xmlns:xlink="http://www.w3.org/1999/xlink">
    <!-- Generator: Sketch 55.2 (78181) - https://sketchapp.com -->
    <title>pictograms/untitled/</title>
    <desc>Created with Sketch.</desc>
    <g id="Signup" stroke="none" stroke-width="1" fill="none" fill-rule="evenodd">
        <g id="Payment-details" transform="translate(-1216.000000, -352.000000)" fill="#000000">
            <g id="pictograms/untitled/" transform="translate(1215.510204, 351.005221)">
                <path d="M20,16.8603 C20,18.8673 18.367,20.5003 16.36,20.5003 C14.353,20.5003 12.72,18.8673 12.72,16.8603 C12.72,14.8533 14.353,13.2203 16.36,13.2203 C18.367,13.2203 20,14.8533 20,16.8603 L20,16.8603 Z M14.725,10.8553 C14.725,9.9543 15.458,9.2203 16.359,9.2203 C17.261,9.2203 17.995,9.9543 17.995,10.8553 L17.995,12.8243 C17.489,12.6183 16.938,12.5003 16.36,12.5003 C15.781,12.5003 15.23,12.6193 14.725,12.8243 L14.725,10.8553 Z M16.359,8.5003 C17.658,8.5003 18.714,9.5563 18.714,10.8553 L18.714,13.2013 C19.917,13.9783 20.72,15.3243 20.72,16.8603 C20.72,19.2643 18.764,21.2203 16.36,21.2203 C13.956,21.2203 12,19.2643 12,16.8603 C12,15.3253 12.802,13.9783 14.005,13.2013 L14.005,10.8553 C14.005,9.5563 15.061,8.5003 16.359,8.5003 Z M25.3599,4 C28.8669,4 31.7199,6.853 31.7199,10.359 C31.7199,13.867 28.8669,16.721 25.3599,16.721 L22.3599,16.721 L22.3599,16 L25.3599,16 C28.4699,16 30.9999,13.47 30.9999,10.359 C30.9999,7.25 28.4699,4.721 25.3599,4.721 L10.3599,4.721 L10.3599,4 L25.3599,4 Z M7.3599,28.7207 C3.8529,28.7207 0.9999,25.8677 0.9999,22.3617 C0.9999,18.8537 3.8529,15.9997 7.3599,15.9997 L10.3599,15.9997 L10.3599,16.7207 L7.3599,16.7207 C4.2499,16.7207 1.7199,19.2507 1.7199,22.3617 C1.7199,25.4707 4.2499,27.9997 7.3599,27.9997 L22.3599,27.9997 L22.3599,28.7207 L7.3599,28.7207 Z M1.72,6.9997 L7,6.9997 L7,1.7207 L1.72,1.7207 L1.72,6.9997 Z M1.36,7.7207 C1.161,7.7207 1,7.5597 1,7.3607 L1,1.3607 C1,1.1607 1.161,0.9997 1.36,0.9997 L7.36,0.9997 C7.559,0.9997 7.72,1.1607 7.72,1.3607 L7.72,7.3607 C7.72,7.5597 7.559,7.7207 7.36,7.7207 L1.36,7.7207 Z M25.72,30.9997 L31,30.9997 L31,25.7207 L25.72,25.7207 L25.72,30.9997 Z M31.72,25.3607 L31.72,31.3607 C31.72,31.5597 31.559,31.7207 31.36,31.7207 L25.36,31.7207 C25.161,31.7207 25,31.5597 25,31.3607 L25,25.3607 C25,25.1607 25.161,24.9997 25.36,24.9997 L31.36,24.9997 C31.559,24.9997 31.72,25.1607 31.72,25.3607 Z" id="Fill-9"></path>
            </g>
        </g>
    </g>
</svg>