<?xml version="1.0" encoding="UTF-8"?>
<svg width="359px" height="347px" viewBox="0 0 359 347" version="1.1" xmlns="http://www.w3.org/2000/svg" xmlns:xlink="http://www.w3.org/1999/xlink">
    <!-- Generator: Sketch 55.2 (78181) - https://sketchapp.com -->
    <title>404_page_not_found_</title>
    <desc>Created with Sketch.</desc>
    <defs>
        <linearGradient x1="49.695586%" y1="48.9488859%" x2="50.6183409%" y2="52.1491426%" id="linearGradient-1">
            <stop stop-color="#000000" stop-opacity="0" offset="0%"></stop>
            <stop stop-color="#000000" offset="95%"></stop>
        </linearGradient>
        <linearGradient x1="50.2016229%" y1="92.7091328%" x2="49.8405628%" y2="-17.6899463%" id="linearGradient-2">
            <stop stop-color="#000000" stop-opacity="0" offset="0%"></stop>
            <stop stop-color="#000000" offset="99%"></stop>
        </linearGradient>
        <linearGradient x1="50.5291114%" y1="79.2210284%" x2="49.3559959%" y2="-59.2862625%" id="linearGradient-3">
            <stop stop-color="#000000" stop-opacity="0" offset="0%"></stop>
            <stop stop-color="#000000" offset="95%"></stop>
        </linearGradient>
        <linearGradient x1="48.3160928%" y1="86.6155214%" x2="50.4558122%" y2="40.1118948%" id="linearGradient-4">
            <stop stop-color="#000000" stop-opacity="0" offset="0%"></stop>
            <stop stop-color="#000000" offset="99%"></stop>
        </linearGradient>
    </defs>
    <g id="Creating-Pot-flow" stroke="none" stroke-width="1" fill="none" fill-rule="evenodd">
        <g id="Savings-Dashboard-Copy-24" transform="translate(-541.000000, -189.000000)" fill-rule="nonzero">
            <g id="404_page_not_found_" transform="translate(541.000000, 189.000000)">
                <path d="M109.953069,234.075371 C133.437726,244.391905 159.999918,244.233015 185.653613,243.892535 C199.11073,243.722295 213.033453,243.449911 225.286811,237.877394 C242.321137,230.125807 253.382092,213.487701 268.326874,202.229174 C285.486118,189.279598 307.449042,183.695731 324.0859,170.087894 C340.475352,156.692346 350.133152,136.765417 350.489768,115.608817 C350.846385,94.4522162 341.865653,74.2114968 325.936964,60.2718542 C317.135895,52.5770139 306.631394,47.1406886 296.217743,41.795158 L243.922363,14.8972648 C231.669005,8.59839109 219.097672,2.19737348 205.424787,0.483625853 C193.88687,-0.957738042 182.212679,1.03974263 170.935955,3.61603873 C138.797861,10.8796048 106.909603,23.397907 83.3340962,46.3121881 C63.0518924,66.0600084 49.8105432,92.583374 27.6204948,110.163474 C21.9423862,114.646456 15.6510419,118.607369 11.5173789,124.531715 C-3.35926563,145.87979 11.7104346,173.152211 31.0387162,184.092957 C57.80532,199.232953 81.8918567,221.761357 109.953069,234.075371 Z" id="Path" fill="#474EE0" opacity="0.18"></path>
                <ellipse id="Oval" fill="#474EE0" cx="179.5" cy="325" rx="179" ry="22"></ellipse>
                <ellipse id="Oval" fill="url(#linearGradient-1)" cx="179.5" cy="325" rx="179" ry="22"></ellipse>
                <path d="M82.2656892,109.176168 C75.4643771,104.617969 67.0849296,102.976521 59.0385037,104.6262 C57.5807517,104.850605 56.2034226,105.433403 55.0330227,106.321063 C52.3051521,108.596047 52.7310222,112.827517 52.005892,116.308242 C51.1196218,120.596587 48.2075911,124.270685 47.1601809,128.502155 C46.5502033,131.686257 46.5151327,134.951908 47.0565908,138.148087 C48.5901832,150.755815 51.6467706,163.136544 56.161003,175.025575 L43.5,339.859529 C43.5,339.859529 56.4487531,341.929765 82.7145793,344 L85.5,187.026115 L82.2656892,109.176168 Z" id="Path" fill="#EEA886"></path>
                <polygon id="Path" fill="url(#linearGradient-2)" points="67.5 204.737145 83.5 272 83.5 174.987145 76.3840082 153"></polygon>
                <path d="M283.780351,111.099212 C290.596151,106.580282 298.973518,104.97395 307.007536,106.645478 C308.467296,106.874747 309.847127,107.456246 311.024527,108.338351 C313.740888,110.610665 313.326528,114.837168 314.040148,118.32517 C314.937928,122.608481 317.849959,126.278268 318.897369,130.504771 C319.509253,133.681427 319.540437,136.940522 318.989449,140.128019 C317.466578,152.721728 314.413656,165.088732 309.896547,176.962224 L322.5,339.307672 C322.5,339.307672 308.400247,341.648155 283.204851,344 L280.5,188.937317 L283.780351,111.099212 Z" id="Path" fill="#EEA886"></path>
                <polygon id="Path" fill="url(#linearGradient-3)" points="300.5 200.833845 294.772303 230.888526 282.574636 258 281.5 199"></polygon>
                <rect id="Rectangle" fill="#474EE0" x="60.5" y="56" width="240" height="151" rx="8.37"></rect>
                <rect id="Rectangle" fill="url(#linearGradient-4)" x="60.5" y="56" width="240" height="151" rx="8.37"></rect>
                <rect id="Rectangle" fill="#474EE0" x="60.5" y="50" width="240" height="151" rx="8.37"></rect>
                <path d="M81.5,112.210349 C85.318348,107.943275 85.318348,107.943275 89.6352339,102.831914 L108.024488,81.1542664 C110.916773,77.9740519 113.567979,74.579766 115.955775,71 L133.325292,71 C132.837474,75.7031713 132.614286,80.4303665 132.656798,85.1589266 L132.656798,112.894906 L135.115497,112.894906 C137.922959,112.868173 140.724933,112.639404 143.5,112.210349 L143.5,127.749799 C140.744844,127.405518 137.971098,127.234048 135.19481,127.236381 L132.656798,127.236381 L132.656798,131.503455 C132.578666,135.015167 132.80233,138.527104 133.325292,142 L115.876462,142 C116.349581,138.464502 116.572973,134.899656 116.544956,131.332316 L116.544956,127.213563 L92.5244883,127.213563 C87.0065789,127.213563 84.5932018,127.293428 81.5,127.544432 L81.5,112.210349 Z M116.624269,103.174193 C116.624269,99.3292624 116.794225,94.640045 117.134137,90.8863892 C115.434576,93.2709304 114.16557,94.9823236 111.876827,97.8802828 L99.4700292,113.066045 L116.590278,113.066045 L116.624269,103.174193 Z" id="Shape" fill="#FFFFFF"></path>
                <path d="M158.98039,136.027089 C156.280428,133.351528 154.175317,130.129304 152.804263,126.573495 C150.574818,120.315413 149.456765,113.711031 149.501279,107.062644 C149.501279,98.1102047 151.616546,88.8388487 154.840349,83.462829 C159.998433,74.7723565 168.79885,70 179.454367,70 C187.666581,70 194.860751,72.8132984 200.018836,77.9729106 C202.722291,80.6455822 204.827928,83.8686108 206.194964,87.4265045 C208.436364,93.7090291 209.55464,100.341719 209.497948,107.017085 C209.497948,115.969524 207.382681,125.343389 204.170189,130.708019 C199.091286,139.227644 190.200377,144 179.454367,144 C171.162972,143.954441 164.149787,141.220871 158.98039,136.027089 Z M166.898503,106.413422 C166.898503,121.664461 171.208218,129.500693 179.590106,129.500693 C187.971994,129.500693 192.112035,121.835309 192.112035,106.720948 C192.066789,92.0621825 187.632646,84.3740188 179.454367,84.3740188 C171.50232,84.3740188 166.853256,92.4949977 166.853256,106.379252 L166.898503,106.413422 Z" id="Shape" fill="#FFFFFF"></path>
                <path d="M213.5,112.210349 C217.321141,107.943275 217.321141,107.943275 221.641185,102.831914 L240.05523,81.1542664 C242.930969,77.9728028 245.565177,74.5785006 247.935625,71 L265.329188,71 C264.831349,75.7024997 264.604196,80.4300343 264.648866,85.1589266 L264.648866,112.894906 L267.109364,112.894906 C269.918879,112.868173 272.722903,112.639404 275.5,112.210349 L275.5,127.749799 C272.742829,127.405518 269.967053,127.234048 267.188734,127.236381 L264.648866,127.236381 L264.648866,131.503455 C264.567939,135.015637 264.795598,138.528145 265.329188,142 L247.856255,142 C248.334158,138.464839 248.561506,134.899945 248.536576,131.332316 L248.536576,127.213563 L224.532553,127.213563 C219.021946,127.213563 216.595465,127.293428 213.5,127.544432 L213.5,112.210349 Z M248.649963,103.174193 C248.649963,99.3292624 248.820044,94.640045 249.160205,90.8863892 C247.4594,93.2709304 246.189466,94.9823236 243.899049,97.8802828 L231.483175,113.066045 L248.615947,113.066045 L248.649963,103.174193 Z" id="Shape" fill="#FFFFFF"></path>
                <path d="M83.5105308,167.348354 C84.8368068,167.122844 86.1788945,167.012983 87.5227761,167.019919 C89.1532127,166.891162 90.7723002,167.389888 92.0720936,168.421241 C93.020345,169.322694 93.5400973,170.611489 93.4937553,171.946441 C93.5592432,173.273443 93.1074861,174.571876 92.2405869,175.548277 C90.8992327,176.842563 89.1074549,177.51093 87.2805671,177.39846 C86.718479,177.419751 86.1560262,177.368266 85.6061655,177.24519 L85.6061655,184 L83.5,184 L83.5105308,167.348354 Z M85.6166963,175.471642 C86.1826201,175.607763 86.7631921,175.666647 87.3437521,175.646807 C89.8711507,175.646807 91.4086515,174.376859 91.4086515,172.044972 C91.4086515,169.713085 89.8922123,168.760623 87.5859611,168.760623 C86.9252959,168.741982 86.2647125,168.800741 85.6166963,168.935789 L85.6166963,175.471642 Z" id="Shape" fill="#FFFFFF"></path>
                <path d="M96.7023346,178.653671 L94.8346304,184 L92.5,184 L98.5933852,167 L101.371595,167 L107.5,184 L105.025292,184 L103.110895,178.653671 L96.7023346,178.653671 Z M102.538911,176.94152 L100.776265,172.048083 C100.379377,170.94347 100.110895,169.927225 99.8424125,168.94412 L99.8424125,168.94412 C99.5856031,169.949318 99.2821012,170.987654 98.9435798,172.014945 L97.1809339,176.94152 L102.538911,176.94152 Z" id="Shape" fill="#FFFFFF"></path>
                <path d="M123.5,182.990267 C121.701017,183.616646 119.805135,183.945166 117.892542,183.961931 C115.369402,184.196129 112.86816,183.341429 111.060977,181.627517 C109.253793,179.913604 108.326035,177.516278 108.527019,175.079774 C108.527019,169.832785 112.285083,166.003284 118.402311,166.003284 C119.961732,165.966259 121.512072,166.242664 122.954666,166.81491 L122.385621,168.666788 C121.11646,168.130904 119.739803,167.873223 118.35489,167.912319 C113.909231,167.912319 111.016588,170.575823 111.016588,174.976892 C111.016588,179.377961 113.802535,182.08719 118.058513,182.08719 C119.129056,182.141608 120.199484,181.978019 121.200112,181.607074 L121.200112,176.371516 L117.489468,176.371516 L117.489468,174.542501 L123.5,174.542501 L123.5,182.990267 Z" id="Path" fill="#FFFFFF"></path>
                <polygon id="Path" fill="#FFFFFF" points="135.726328 176.024691 128.797921 176.024691 128.797921 182.155296 136.5 182.155296 136.5 184 126.5 184 126.5 167 136.10739 167 136.10739 168.844704 128.821016 168.844704 128.821016 174.213125 135.749423 174.213125"></polygon>
                <path d="M144.5,183.977936 L144.5,167 L146.948785,167 L152.512153,175.582738 C153.670876,177.355776 154.714875,179.198015 155.638021,181.098637 L155.638021,181.098637 C155.434896,178.892278 155.378472,176.774173 155.378472,174.126541 L155.378472,167.022064 L157.5,167.022064 L157.5,184 L155.243056,184 L149.724826,175.384166 C148.527491,173.558691 147.442243,171.665236 146.474826,169.713822 L146.395833,169.713822 C146.53125,171.865023 146.576389,173.905905 146.576389,176.719014 L146.576389,183.977936 L144.5,183.977936 Z" id="Path" fill="#FFFFFF"></path>
                <path d="M177.5,174.81309 C177.5,180.816866 173.838308,184 169.369225,184 C164.900142,184 161.5,180.431718 161.5,175.152926 C161.5,169.613593 164.911514,166 169.630775,166 C174.350036,166 177.5,169.647577 177.5,174.81309 Z M163.922175,175.096287 C163.922175,178.823159 165.94634,182.164884 169.505686,182.164884 C173.065032,182.164884 175.11194,178.879799 175.11194,174.915041 C175.11194,171.460038 173.292466,167.835116 169.528429,167.835116 C165.764392,167.835116 163.922175,171.278792 163.922175,175.096287 Z" id="Shape" fill="#FFFFFF"></path>
                <polygon id="Path" fill="#FFFFFF" points="181.836842 168.866797 176.5 168.866797 176.5 167 189.5 167 189.5 168.866797 184.128947 168.866797 184.128947 184 181.848246 184"></polygon>
                <polygon id="Path" fill="#FFFFFF" points="197.512048 167 207.5 167 207.5 168.841115 199.909639 168.841115 199.909639 174.474708 206.921687 174.474708 206.921687 176.28275 199.909639 176.28275 199.909639 184 197.5 184"></polygon>
                <path d="M224.5,174.81309 C224.5,180.816866 220.835704,184 216.374822,184 C211.743243,184 208.5,180.431718 208.5,175.152926 C208.5,169.613593 211.91394,166 216.625178,166 C221.336415,166 224.5,169.647577 224.5,174.81309 Z M210.912518,175.096287 C210.912518,178.823159 212.938122,182.164884 216.5,182.164884 C220.061878,182.164884 222.110242,178.879799 222.110242,174.915041 C222.110242,171.460038 220.289474,167.835116 216.52276,167.835116 C212.756046,167.835116 210.912518,171.278792 210.912518,175.096287 Z" id="Shape" fill="#FFFFFF"></path>
                <path d="M230.813656,166 L230.813656,176.464582 C230.813656,180.427569 232.566079,182.104659 234.925551,182.104659 C237.537004,182.104659 239.209251,180.370134 239.209251,176.464582 L239.209251,166 L241.5,166 L241.5,176.338226 C241.5,181.771538 238.648018,184 234.833921,184 C231.225991,184 228.5,181.932355 228.5,176.441608 L228.5,166.034461 L230.813656,166 Z" id="Path" fill="#FFFFFF"></path>
                <path d="M244.5,183.977936 L244.5,167 L246.942424,167 L252.491342,175.582738 C253.647949,177.353302 254.685644,179.195836 255.597835,181.098637 L255.654113,181.098637 C255.451515,178.892278 255.395238,176.774173 255.395238,174.126541 L255.395238,167.022064 L257.5,167.022064 L257.5,184 L255.248918,184 L249.756277,175.384166 C248.557823,173.561182 247.475247,171.66747 246.514719,169.713822 L246.435931,169.713822 C246.55974,171.865023 246.616017,173.905905 246.616017,176.719014 L246.616017,183.977936 L244.5,183.977936 Z" id="Path" fill="#FFFFFF"></path>
                <path d="M261.5,166.367581 C263.161434,166.125982 264.838985,166.003123 266.519054,166 C269.900686,166 272.321222,166.769623 273.911183,168.205488 C275.687173,169.856842 276.627932,172.177791 276.485969,174.557754 C276.622329,177.105643 275.674675,179.596398 273.863721,181.449904 C272.155107,183.10402 269.331148,184 265.783401,184 C264.351249,183.989571 262.920974,183.897517 261.5,183.724314 L261.5,166.367581 Z M263.873075,182.001276 C264.658451,182.113974 265.452489,182.160097 266.24615,182.139119 C271.288935,182.139119 274.017971,179.405233 274.017971,174.638162 C274.017971,170.468411 271.644896,167.814933 266.625842,167.814933 C265.697991,167.798102 264.771,167.878985 263.86121,168.056158 L263.873075,182.001276 Z" id="Shape" fill="#FFFFFF"></path>
                <path d="M70.9537656,107.136797 C71.9344463,107.621735 72.769909,108.353667 73.3767589,109.259532 C73.8789167,110.324034 74.1254002,111.489787 74.0967993,112.66499 L74.4396757,119.986724 C74.5948207,121.191317 74.449604,122.41532 74.0167948,123.551103 C73.5407577,124.707722 72.2978316,125.358455 71.0680578,125.094911 C71.952403,127.974758 71.6095423,131.088763 70.119433,133.710718 C69.7498594,134.257219 69.4611851,134.85358 69.262242,135.481556 C69.1672886,136.239174 69.2059643,137.00743 69.3765341,137.751862 C69.9008391,141.467198 68.7889597,145.226855 66.3249341,148.070398 C65.952575,148.530925 65.4947602,148.916267 64.9762869,149.205551 C64.2963626,149.493497 63.5666515,149.647699 62.8275948,149.659612 L59.467406,149.9434 C59.1307299,150.053136 58.7618481,150.00157 58.4687501,149.803795 C58.175652,149.606021 57.9914907,149.284411 57.970179,148.933114 C55.4188359,140.89507 54.2594542,132.485275 54.541415,124.061922 C54.6735741,119.817474 55.1861039,115.593151 56.0729296,111.439025 C56.6101026,109.009799 57.6615903,105.309201 60.2788802,104.321619 C63.6619274,103.14106 68.027887,105.468123 70.9537656,107.136797 Z" id="Path" fill="#EEA886"></path>
                <path d="M291.040165,107.569508 C290.061163,108.060345 289.22713,108.801179 288.621319,109.718062 C288.12002,110.795511 287.873959,111.975442 287.902511,113.164939 L287.560221,120.575725 C287.405342,121.794969 287.55031,123.033859 287.982378,124.183456 C288.457601,125.354143 289.698399,126.01279 290.926069,125.74604 C290.045195,128.659876 290.383103,131.809495 291.86166,134.466639 C292.238626,135.016752 292.530965,135.621019 292.728794,136.259015 C292.825193,137.026332 292.78267,137.804891 292.603288,138.556933 C292.090529,142.318582 293.203825,146.121103 295.661075,149.000971 C296.032797,149.467099 296.489828,149.857127 297.007414,150.14993 C297.686174,150.441378 298.414637,150.597456 299.152428,150.609513 L302.541095,150.942712 C302.877195,151.053783 303.245446,151.001589 303.538042,150.801409 C303.830639,150.601229 304.014485,150.275707 304.03576,149.920138 C306.582737,141.78433 307.740134,133.27225 307.458656,124.746446 C307.328418,120.449612 306.812887,116.173417 305.918353,111.970022 C305.393509,109.511249 304.777387,106.432039 302.187396,105.432445 C298.77591,104.180079 293.961036,105.880539 291.040165,107.569508 Z" id="Path" fill="#EEA886"></path>
            </g>
        </g>
    </g>
</svg>