<?xml version="1.0" encoding="UTF-8"?>
<svg width="32px" height="15px" viewBox="0 0 32 15" version="1.1" xmlns="http://www.w3.org/2000/svg" xmlns:xlink="http://www.w3.org/1999/xlink">
    <!-- Generator: Sketch 55.2 (78181) - https://sketchapp.com -->
    <title>arrow-right</title>
    <desc>Created with Sketch.</desc>
    <defs>
        <path d="M17,8 L28.865,8 L25.232,12.36 C24.878,12.784 24.936,13.415 25.36,13.768 C25.785,14.122 26.415,14.064 26.769,13.64 L31.769,7.64 C31.808,7.593 31.827,7.538 31.856,7.486 C31.88,7.444 31.909,7.408 31.927,7.362 C31.972,7.247 31.999,7.126 31.999,7.004 C31.999,6.874 31.972,6.753 31.927,6.638 C31.909,6.592 31.88,6.556 31.856,6.514 C31.827,6.462 31.808,6.407 31.769,6.36 L26.769,0.36 C26.57,0.123 26.286,0 26,0 C25.774,0 25.547,0.076 25.36,0.232 C24.936,0.585 24.878,1.216 25.232,1.64 L28.865,6 L1,6 C0.448,6 0,6.448 0,7 C0,7.552 0.448,8 1,8" id="path-1"></path>
    </defs>
    <g id="Signup" stroke="none" stroke-width="1" fill="none" fill-rule="evenodd">
        <g id="01-website" transform="translate(-998.000000, -1821.000000)">
            <g id="arrow-right" transform="translate(998.000000, 1821.933333)">
                <mask id="mask-2" fill="white">
                    <use xlink:href="#path-1"></use>
                </mask>
                <use id="🎨-Icon-color" fill="#319795" xlink:href="#path-1"></use>
            </g>
        </g>
    </g>
</svg>