<?xml version="1.0" encoding="UTF-8"?>
<svg width="96px" height="88px" viewBox="0 0 96 88" version="1.1" xmlns="http://www.w3.org/2000/svg" xmlns:xlink="http://www.w3.org/1999/xlink">
    <!-- Generator: Sketch 55.2 (78181) - https://sketchapp.com -->
    <title>Group</title>
    <desc>Created with Sketch.</desc>
    <g id="Creating-Pot-flow" stroke="none" stroke-width="1" fill="none" fill-rule="evenodd">
        <g id="Savings-Dashboard-Copy-25" transform="translate(-822.000000, -457.000000)" fill-rule="nonzero">
            <g id="Group" transform="translate(822.000000, 457.000000)">
                <g id="noun_goal_2310647" fill="#A0AEC0">
                    <path d="M58.944,27.107 C58.8227707,26.9214339 58.6677468,26.760304 58.487,26.632 L58.487,2.052 C58.4679905,1.38443006 57.9213405,0.853124778 57.2535,0.853124778 C56.5856595,0.853124778 56.0390095,1.38443006 56.02,2.052 L56.02,3.287 L43.97,3.287 C42.4487504,3.28810225 41.2156543,4.5207509 41.214,6.042 L41.214,6.7 C41.2134514,6.8588302 41.0848302,6.98745136 40.926,6.988 L27.643,6.988 C27.1437728,6.98748303 26.6934996,7.28805288 26.5025159,7.74930477 C26.3115322,8.21055667 26.4175321,8.74145423 26.771,9.094 L33.301,15.625 L26.771,22.156 C26.4182485,22.5086403 26.3127045,23.0390727 26.5035972,23.4998859 C26.6944899,23.960699 27.1442127,24.2611111 27.643,24.261 L40.926,24.261 C42.4468591,24.2593466 43.6793466,23.0268591 43.681,21.506 L43.681,20.559 L56.02,20.559 L56.02,26.631 C55.8385127,26.7583587 55.6830542,26.9192481 55.562,27.105 L38.747,54.01 L31.185,41.91 C30.798835,41.3577345 30.1673847,41.0287611 29.4935,41.0287611 C28.8196153,41.0287611 28.188165,41.3577345 27.802,41.91 L0.688,85.294 C0.449417969,85.6740737 0.436364965,86.1538115 0.653926744,86.5462963 C0.871488522,86.9387811 1.28524999,87.1819275 1.734,87.1810053 L94.266,87.1810053 C94.71475,87.1819275 95.1285115,86.9387811 95.3460733,86.5462963 C95.563635,86.1538115 95.550582,85.6740737 95.312,85.294 L58.944,27.107 Z M41.212,21.506 C41.2114514,21.6648302 41.0828302,21.7934514 40.924,21.794 L30.624,21.794 L35.924,16.494 C36.1555618,16.2628869 36.2856897,15.9491608 36.2856897,15.622 C36.2856897,15.2948392 36.1555618,14.9811131 35.924,14.75 L30.624,9.45 L40.924,9.45 C41.0201782,9.45034909 41.1163091,9.44567607 41.212,9.436 L41.212,21.506 L41.212,21.506 Z M43.679,18.092 L43.679,6.042 C43.679,5.96544407 43.7094795,5.89203819 43.7637065,5.83799888 C43.8179334,5.78395956 43.8914445,5.75373418 43.968,5.75399826 L56.02,5.75399826 L56.02,18.093 L43.679,18.092 Z M57.253,29.056 L68.024,46.29 L63.424,50.89 L58.124,45.59 C57.6422237,45.1088522 56.8617763,45.1088522 56.38,45.59 L51.08,50.89 L46.48,46.29 L57.253,29.056 Z M29.494,43.861 L37.18,56.161 L34.12,59.221 L30.366,55.467 C29.8842237,54.9858522 29.1037763,54.9858522 28.622,55.467 L24.867,59.221 L21.807,56.162 L29.494,43.861 Z M3.96,84.714 L20.465,58.307 L24,61.837 C24.4822307,62.3170487 25.2617693,62.3170487 25.744,61.837 L29.499,58.082 L33.253,61.837 C33.376751,61.9581254 33.5246277,62.051826 33.687,62.112 L28.452,70.489 C28.1932376,70.8623354 28.160504,71.3476468 28.3667888,71.752349 C28.5730736,72.1570511 28.985019,72.4157008 29.4391534,72.4256584 C29.8932879,72.435616 30.3161746,72.1952713 30.54,71.8 L39.794,56.995 L45.14,48.441 L50.212,53.513 C50.6937763,53.9941478 51.4742237,53.9941478 51.956,53.513 L57.256,48.213 L62.556,53.513 C63.0377763,53.9941478 63.8182237,53.9941478 64.3,53.513 L69.372,48.441 L92.04,84.714 L3.96,84.714 Z" id="Shape"></path>
                </g>
                <g id="noun_goal_2310647-copy" transform="translate(26.400000, 0.850000)" fill="#474EE0">
                    <path d="M32.5353132,26.2538752 C32.414084,26.0683091 32.25906,25.9071792 32.0783132,25.7788752 L32.0783132,1.19887522 C32.0593037,0.531305279 31.5126538,-3.55271368e-15 30.8448132,-3.55271368e-15 C30.1769727,-3.55271368e-15 29.6303227,0.531305279 29.6113132,1.19887522 L29.6113132,2.43387522 L17.5613132,2.43387522 C16.0400636,2.43497748 14.8069676,3.66762612 14.8053132,5.18887522 L14.8053132,5.84687522 C14.8047646,6.00570542 14.6761434,6.13432658 14.5173132,6.13487522 L1.23431323,6.13487522 C0.735086011,6.13435825 0.284812807,6.4349281 0.093829116,6.89618 C-0.0971545746,7.35743189 0.00884532472,7.88832945 0.362313227,8.24087522 L6.89231323,14.7718752 L0.362313227,21.3028752 C0.00956176653,21.6555155 -0.0959822463,22.1859479 0.0949104266,22.6467611 C0.285803099,23.1075742 0.735525928,23.4079864 1.23431323,23.4078752 L14.5173132,23.4078752 C16.0381723,23.4062218 17.2706598,22.1737343 17.2723132,20.6528752 L17.2723132,19.7058752 L29.6113132,19.7058752 L29.6113132,25.7778752 C29.4298259,25.9052339 29.2743674,26.0661233 29.1533132,26.2518752 L32.5353132,26.2538752 Z M14.8033132,20.6528752 C14.8027646,20.8117054 14.6741434,20.9403266 14.5153132,20.9408752 L4.21531323,20.9408752 L9.51531323,15.6408752 C9.74687507,15.4097621 9.87700294,15.096036 9.87700294,14.7688752 C9.87700294,14.4417145 9.74687507,14.1279884 9.51531323,13.8968752 L4.21531323,8.59687522 L14.5153132,8.59687522 C14.6114915,8.59722432 14.7076223,8.59255129 14.8033132,8.58287522 L14.8033132,20.6528752 L14.8033132,20.6528752 Z M17.2703132,17.2388752 L17.2703132,5.18887522 C17.2703132,5.1123193 17.3007928,5.03891341 17.3550197,4.9848741 C17.4092467,4.93083478 17.4827578,4.9006094 17.5593132,4.90087348 L29.6113132,4.90087348 L29.6113132,17.2398752 L17.2703132,17.2388752 Z" id="Shape"></path>
                </g>
            </g>
        </g>
    </g>
</svg>