<?xml version="1.0" encoding="UTF-8"?>
<svg width="67px" height="67px" viewBox="0 0 67 67" version="1.1" xmlns="http://www.w3.org/2000/svg" xmlns:xlink="http://www.w3.org/1999/xlink">
    <!-- Generator: Sketch 55.2 (78181) - https://sketchapp.com -->
    <title>noun_SEO Press_986322</title>
    <desc>Created with Sketch.</desc>
    <g id="Creating-Pot-flow" stroke="none" stroke-width="1" fill="none" fill-rule="evenodd">
        <g id="Savings-Dashboard-Copy-6" transform="translate(-1197.000000, -554.000000)" fill-rule="nonzero">
            <g id="noun_SEO-Press_986322" transform="translate(1197.000000, 554.000000)">
                <g id="Group">
                    <path d="M61.1,0.9 L56.7,5.2 L52.3,0.9 L48,5.1 L43.6,0.8 L39.2,5.1 L34.8,0.8 L30.4,5.1 L26,0.8 L21.6,5.1 L17.2,0.8 L12.1,5.8 L12.1,40.8 L0.8,40.8 L0.8,59.6 C0.8,63.2 3.7,66.1 7.3,66.1 L59.8,66.1 C63.4,66.1 66.3,63.2 66.3,59.6 L66.3,5.9 L61.1,0.9 Z M2.3,59.7 L2.3,42.3 L12.3,42.3 L12.3,59.6 C12.3,62.3 10.1,64.6 7.3,64.6 C4.5,64.6 2.3,62.4 2.3,59.7 Z M64.8,59.7 C64.8,62.4 62.6,64.7 59.8,64.7 L11.4,64.7 C12.8,63.5 13.7,61.7 13.7,59.7 L13.7,41.6 L13.7,40.8 L13.7,6.5 L17.3,3 L21.7,7.3 L26.1,3 L30.5,7.3 L34.9,3 L39.3,7.3 L43.6,3 L48,7.2 L52.4,3 L56.8,7.3 L61.1,3 L64.7,6.5 L64.7,59.7 L64.8,59.7 Z" id="Shape" fill="#A0AEC0"></path>
                    <path d="M45.5,12.9 L17.4,12.9 L17.4,32.8 L45.5,32.8 L45.5,12.9 Z M44,31.3 L18.9,31.3 L18.9,14.4 L44,14.4 L44,31.3 Z" id="Shape" fill="#474EE0"></path>
                    <path d="M34.6,37.1 L17.4,37.1 L17.4,52.3 L34.6,52.3 L34.6,37.1 L34.6,37.1 Z M33.1,50.8 L18.9,50.8 L18.9,38.6 L33.1,38.6 L33.1,50.8 L33.1,50.8 Z" id="Shape" fill="#474EE0"></path>
                    <path d="M48.4,32.8 L61.6,32.8 L61.6,12.9 L48.4,12.9 L48.4,32.8 Z M49.9,14.4 L60.1,14.4 L60.1,31.3 L49.9,31.3 L49.9,14.4 Z" id="Shape" fill="#474EE0"></path>
                    <rect id="Rectangle" fill="#474EE0" x="42" y="37.1" width="19.4" height="1.5"></rect>
                    <rect id="Rectangle" fill="#474EE0" x="43.5" y="43.4" width="17.9" height="1.5"></rect>
                    <rect id="Rectangle" fill="#474EE0" x="22.5" y="18.3" width="17.9" height="1.5"></rect>
                    <rect id="Rectangle" fill="#474EE0" x="22.5" y="22.4" width="17.9" height="1.5"></rect>
                    <rect id="Rectangle" fill="#474EE0" x="25.2" y="26.6" width="12.6" height="1.5"></rect>
                    <rect id="Rectangle" fill="#474EE0" x="38.6" y="49.7" width="22.8" height="1.5"></rect>
                    <rect id="Rectangle" fill="#474EE0" x="17.5" y="56.1" width="44" height="1.5"></rect>
                    <rect id="Rectangle" fill="#474EE0" x="6.5" y="59.2" width="1.5" height="1.5"></rect>
                    <rect id="Rectangle" fill="#474EE0" x="6.5" y="54.7" width="1.5" height="1.5"></rect>
                    <rect id="Rectangle" fill="#474EE0" x="6.5" y="45.7" width="1.5" height="1.5"></rect>
                    <rect id="Rectangle" fill="#474EE0" x="6.5" y="50.2" width="1.5" height="1.5"></rect>
                </g>
            </g>
        </g>
    </g>
</svg>