<?xml version="1.0" encoding="UTF-8"?>
<svg width="72px" height="67px" viewBox="0 0 72 67" version="1.1" xmlns="http://www.w3.org/2000/svg" xmlns:xlink="http://www.w3.org/1999/xlink">
    <!-- Generator: Sketch 55.2 (78181) - https://sketchapp.com -->
    <title>noun_Page Ranking_986352</title>
    <desc>Created with Sketch.</desc>
    <g id="Creating-Pot-flow" stroke="none" stroke-width="1" fill="none" fill-rule="evenodd">
        <g id="Savings-Dashboard-Copy-6" transform="translate(-639.000000, -554.000000)" fill-rule="nonzero">
            <g id="noun_Page-Ranking_986352" transform="translate(639.000000, 554.000000)">
                <g id="Group">
                    <path d="M36.360597,66.7803279 L43.3146269,66.7803279 L43.3146269,49.0967213 L36.360597,49.0967213 L36.360597,66.7803279 Z M37.9904478,50.7442623 L41.6847761,50.7442623 L41.6847761,65.1327869 L37.9904478,65.1327869 L37.9904478,50.7442623 Z" id="Shape" fill="#474EE0"></path>
                    <path d="M27.8853731,66.7803279 L34.839403,66.7803279 L34.839403,51.952459 L27.8853731,51.952459 L27.8853731,66.7803279 Z M29.5152239,53.6 L33.2095522,53.6 L33.2095522,65.1327869 L29.5152239,65.1327869 L29.5152239,53.6 Z" id="Shape" fill="#474EE0"></path>
                    <path d="M43.9665672,36.904918 L45.161791,39.6508197 L46.6829851,38.9918033 L44.2925373,33.7196721 L39.0770149,36.2459016 L39.7289552,37.7836066 L42.4453731,36.4655738 C37.3385075,49.6459016 22.2352239,49.3163934 21.5832836,49.2065574 L21.4746269,50.8540984 C21.4746269,50.8540984 21.5832836,50.8540984 21.6919403,50.8540984 C23.8650746,50.7442623 38.7510448,50.304918 43.9665672,36.904918 Z" id="Path" fill="#474EE0"></path>
                    <path d="M71.1307463,0.219672131 L0.0692537313,0.219672131 L0.0692537313,59.4213115 L19.6274627,59.4213115 L19.6274627,66.7803279 L26.5814925,66.7803279 L26.5814925,55.357377 L19.6274627,55.357377 L19.6274627,57.7737705 L1.69910448,57.7737705 L1.69910448,10.6540984 L69.6095522,10.6540984 L69.6095522,57.7737705 L51.681194,57.7737705 L51.681194,42.0672131 L44.7271642,42.0672131 L44.7271642,66.7803279 L51.681194,66.7803279 L51.681194,59.4213115 L71.239403,59.4213115 L71.239403,0.219672131 L71.1307463,0.219672131 Z M21.1486567,57.004918 L24.8429851,57.004918 L24.8429851,65.242623 L21.1486567,65.242623 L21.1486567,57.004918 Z M50.0513433,65.1327869 L46.3570149,65.1327869 L46.3570149,43.7147541 L50.0513433,43.7147541 L50.0513433,65.1327869 Z M1.69910448,9.00655738 L1.69910448,1.86721311 L69.6095522,1.86721311 L69.6095522,9.00655738 L1.69910448,9.00655738 Z" id="Shape" fill="#A0AEC0"></path>
                    <rect id="Rectangle" fill="#A0AEC0" x="59.2871642" y="4.61311475" width="1.62985075" height="1.64754098"></rect>
                    <rect id="Rectangle" fill="#A0AEC0" x="63.0901493" y="4.61311475" width="1.62985075" height="1.64754098"></rect>
                    <rect id="Rectangle" fill="#A0AEC0" x="55.4841791" y="4.61311475" width="1.62985075" height="1.64754098"></rect>
                    <path d="M42.6626866,14.6081967 L3.87223881,14.6081967 L3.87223881,28.6672131 L42.6626866,28.6672131 L42.6626866,14.6081967 Z M41.0328358,27.0196721 L5.50208955,27.0196721 L5.50208955,16.2557377 L41.0328358,16.2557377 L41.0328358,27.0196721 Z" id="Shape" fill="#A0AEC0"></path>
                    <path d="M67.3277612,14.6081967 L44.1838806,14.6081967 L44.1838806,28.6672131 L67.4364179,28.6672131 L67.4364179,14.6081967 L67.3277612,14.6081967 Z M65.6979104,27.0196721 L45.8137313,27.0196721 L45.8137313,16.2557377 L65.8065672,16.2557377 L65.8065672,27.0196721 L65.6979104,27.0196721 Z" id="Shape" fill="#A0AEC0"></path>
                    <path d="M54.6149254,24.0540984 C55.2668657,24.0540984 55.918806,23.8344262 56.3534328,23.504918 L58.961194,26.1409836 L60.1564179,24.9327869 L57.5486567,22.2967213 C57.8746269,21.747541 58.0919403,21.1983607 58.0919403,20.5393443 C58.0919403,18.6721311 56.5707463,17.0245902 54.6149254,17.0245902 C52.7677612,17.0245902 51.1379104,18.5622951 51.1379104,20.5393443 C51.1379104,22.4065574 52.7677612,24.0540984 54.6149254,24.0540984 Z M54.6149254,18.6721311 C55.5928358,18.6721311 56.4620896,19.4409836 56.4620896,20.5393443 C56.4620896,21.5278689 55.7014925,22.4065574 54.6149254,22.4065574 C53.6370149,22.4065574 52.7677612,21.6377049 52.7677612,20.5393443 C52.7677612,19.5508197 53.6370149,18.6721311 54.6149254,18.6721311 Z" id="Shape" fill="#474EE0"></path>
                </g>
            </g>
        </g>
    </g>
</svg>