<?xml version="1.0" encoding="UTF-8"?>
<svg width="88px" height="89px" viewBox="0 0 88 89" version="1.1" xmlns="http://www.w3.org/2000/svg" xmlns:xlink="http://www.w3.org/1999/xlink">
    <!-- Generator: Sketch 55.2 (78181) - https://sketchapp.com -->
    <title>noun_cash_3138252</title>
    <desc>Created with Sketch.</desc>
    <g id="Signup" stroke="none" stroke-width="1" fill="none" fill-rule="evenodd">
        <g id="01-website" transform="translate(-1118.000000, -1837.000000)" fill-rule="nonzero">
            <g id="Group-18" transform="translate(1117.000000, 1837.000000)">
                <g id="Group-14" transform="translate(1.000000, 0.000000)">
                    <g id="noun_cash_3138252">
                        <g id="Group">
                            <path d="M33.7333333,28.1451044 C22.822176,29.6317478 14.6807145,38.969357 14.6666667,50.0130556 L14.6666667,52.955 L17.6,52.955 L17.6,50.0130556 C17.6119128,39.4568666 26.1413758,30.9023644 36.6666667,30.8904167 L51.3333333,30.8904167 C58.142862,30.9041734 64.432355,34.5453702 67.8499837,40.452455 L70.3890788,38.9793279 C66.9675337,33.0688067 61.018516,29.0719911 54.2666667,28.147572 L54.2666667,17.8636963 L57.6253902,6.41584209 C58.1022869,4.86118685 57.4616271,3.18064339 56.0722186,2.3416477 C54.68281,1.50265202 52.9021559,1.72108275 51.7553227,2.8711962 C51.522063,3.10445042 51.1446037,3.10445042 50.911344,2.8711962 C47.0918063,-0.950961982 40.9081937,-0.950961982 37.088656,2.8711962 C36.8553963,3.10445042 36.477937,3.10445042 36.2446773,2.8711962 C35.1002428,1.72344004 33.3241825,1.50324592 31.9355243,2.33695187 C30.5468661,3.17065781 29.9013798,4.84467107 30.3694178,6.39851404 L33.7333333,17.8637073 L33.7333333,28.1451044 Z M51.3333333,19.1226389 L51.3333333,22.0645833 L36.6666667,22.0645833 L36.6666667,19.1226389 L51.3333333,19.1226389 Z M36.6666667,27.9484722 L36.6666667,25.0065278 L51.3333333,25.0065278 L51.3333333,27.9484722 L36.6666667,27.9484722 Z M33.4407883,4.86191071 C33.6720308,4.70410659 33.9840339,4.74237725 34.1705412,4.95142305 C35.5499982,6.33189757 37.7833351,6.33189757 39.1627922,4.95142305 C41.8361334,2.27648725 46.1638666,2.27648725 48.8372078,4.95142305 C50.2166649,6.33189757 52.4500018,6.33189757 53.8294588,4.95142305 C54.0159657,4.74237649 54.3279694,4.70410575 54.5592117,4.86191071 C54.8107069,4.99814111 54.9211544,5.30128007 54.816487,5.56803989 L51.7027757,16.1806944 L47.632959,16.1806944 L49.7617468,10.8431228 L47.0382458,9.75048831 L44.4736857,16.1806944 L43.5263143,16.1806944 L40.9617505,9.75048831 L38.2382495,10.8431228 L40.3670373,16.1806944 L36.2972207,16.1806944 L33.1783173,5.55071368 C33.0812129,5.28758651 33.1934592,4.99301846 33.4407883,4.86191071 L33.4407883,4.86191071 Z" id="Shape" fill="#38B2AC"></path>
                            <path d="M86.5333333,44.1291667 L41.0666667,44.1291667 C40.6776791,44.1291667 40.3046201,44.2841288 40.0295644,44.5599921 C39.7545086,44.8358553 39.5999888,45.2100094 39.6,45.6001389 L39.6,55.8969444 L10.2666667,55.8969444 C9.87767905,55.8969332 9.50462015,56.0519066 9.22956437,56.3277698 C8.95450859,56.6036331 8.79998882,56.9777871 8.8,57.3679167 L8.8,65.0951673 C3.07905319,66.5769357 -0.650963051,72.0938724 0.0935103549,77.9726319 C0.837983761,83.8513913 5.82469258,88.2583333 11.7333333,88.2583333 L86.5333333,88.2583333 C86.9223209,88.2583333 87.2953799,88.1033712 87.5704356,87.8275079 C87.8454914,87.5516447 88,87.1774906 88,86.7873611 L88,45.6001389 C88,45.2100094 87.8454914,44.8358553 87.5704356,44.5599921 C87.2953799,44.2841288 86.9223209,44.1291667 86.5333333,44.1291667 Z M85.0666667,58.9456392 C80.5654729,59.604669 77.0302053,63.1503147 76.3731045,67.6647222 L70.4,67.6647222 L70.4,47.0711111 L76.3731045,47.0711111 C77.0302053,51.5855186 80.5654729,55.1311643 85.0666667,55.7901942 L85.0666667,58.9456392 Z M85.0666667,61.928837 L85.0666667,67.6647222 L79.3475705,67.6647222 C79.9406381,64.7787916 82.1891832,62.5236456 85.0666667,61.928837 L85.0666667,61.928837 Z M85.0666667,52.8069963 C82.1891832,52.2121877 79.9406381,49.9570418 79.3475705,47.0711111 L85.0666667,47.0711111 L85.0666667,52.8069963 Z M67.4666667,47.0711111 L67.4666667,67.6647222 L61.6,67.6647222 L61.6,47.0711111 L67.4666667,47.0711111 Z M49.8666667,61.7808333 L32.2666667,61.7808333 L32.2666667,58.8388889 L49.8666667,58.8388889 L49.8666667,61.7808333 Z M49.8666667,64.7227778 L49.8666667,67.6647222 L32.2666667,67.6647222 L32.2666667,64.7227778 L49.8666667,64.7227778 Z M49.8666667,70.6066667 L49.8666667,73.5486111 L32.2666667,73.5486111 L32.2666667,70.6066667 L49.8666667,70.6066667 Z M29.3333333,73.5486111 L23.0953672,73.5486111 C22.8284738,72.5173787 22.4222982,71.5275705 21.8881172,70.6066667 L29.3333333,70.6066667 L29.3333333,73.5486111 Z M23.4666667,76.4905556 L29.3333333,76.4905556 L29.3333333,79.4325 L23.0953672,79.4325 C23.3425312,78.4715165 23.4672912,77.482996 23.4666667,76.4905556 Z M32.2666667,76.4905556 L49.8666667,76.4905556 L49.8666667,79.4325 L32.2666667,79.4325 L32.2666667,76.4905556 Z M52.8,70.6066667 L58.6666667,70.6066667 L58.6666667,85.3163889 L52.8,85.3163889 L52.8,70.6066667 Z M52.8,67.6647222 L52.8,57.3679167 C52.8000112,56.9777871 52.6454914,56.6036331 52.3704356,56.3277698 C52.0953799,56.0519066 51.7223209,55.8969332 51.3333333,55.8969444 L42.5333333,55.8969444 L42.5333333,55.7901942 C47.0345271,55.1311643 50.5697947,51.5855186 51.2268955,47.0711111 L58.6666667,47.0711111 L58.6666667,67.6647222 L52.8,67.6647222 Z M48.2524295,47.0711111 C47.6593619,49.9570418 45.4108168,52.2121877 42.5333333,52.8069963 L42.5333333,47.0711111 L48.2524295,47.0711111 Z M29.3333333,58.8388889 L29.3333333,61.7808333 L11.7333333,61.7808333 L11.7333333,58.8388889 L29.3333333,58.8388889 Z M29.3333333,64.7227757 L29.3333333,67.6647222 L19.4817627,67.6647222 C17.3440733,65.7675719 14.5877778,64.7210542 11.7333333,64.7227757 L29.3333333,64.7227757 Z M2.93333333,76.4905556 C2.93333333,71.6161824 6.87322753,67.6647222 11.7333333,67.6647222 C16.5934391,67.6647222 20.5333333,71.6161824 20.5333333,76.4905556 C20.5333333,81.3649287 16.5934391,85.3163889 11.7333333,85.3163889 C6.87550428,85.3108806 2.9388255,81.3626453 2.93333333,76.4905556 Z M21.8881245,82.3744444 L29.3333333,82.3744444 L29.3333333,85.3163889 L19.4817627,85.3163889 C20.436694,84.4721836 21.2492936,83.4787241 21.8881245,82.3744444 L21.8881245,82.3744444 Z M32.2666667,85.3163889 L32.2666667,82.3744444 L49.8666667,82.3744444 L49.8666667,85.3163889 L32.2666667,85.3163889 Z M61.6,85.3163889 L61.6,70.6066667 L67.4666667,70.6066667 L67.4666667,85.3163889 L61.6,85.3163889 Z M70.4,85.3163889 L70.4,70.6066667 L85.0666667,70.6066667 L85.0666667,85.3163889 L70.4,85.3163889 Z" id="Shape" fill="#4C51BF"></path>
                        </g>
                    </g>
                </g>
            </g>
        </g>
    </g>
</svg>